<svg width="44" height="28" viewBox="0 0 44 28" fill="none" xmlns="http://www.w3.org/2000/svg">
<path d="M6.136 5.636V11.816C6.136 12.504 5.924 13.056 5.5 13.472C5.076 13.88 4.516 14.084 3.82 14.084C3.116 14.084 2.552 13.876 2.128 13.46C1.704 13.036 1.492 12.46 1.492 11.732H2.584C2.592 12.14 2.696 12.472 2.896 12.728C3.104 12.984 3.412 13.112 3.82 13.112C4.228 13.112 4.532 12.992 4.732 12.752C4.932 12.504 5.032 12.192 5.032 11.816V5.636H6.136ZM13.5193 7.424V14H12.4273V13.028C12.2193 13.364 11.9273 13.628 11.5513 13.82C11.1833 14.004 10.7753 14.096 10.3273 14.096C9.81528 14.096 9.35528 13.992 8.94728 13.784C8.53928 13.568 8.21528 13.248 7.97528 12.824C7.74328 12.4 7.62728 11.884 7.62728 11.276V7.424H8.70728V11.132C8.70728 11.78 8.87128 12.28 9.19928 12.632C9.52728 12.976 9.97528 13.148 10.5433 13.148C11.1273 13.148 11.5873 12.968 11.9233 12.608C12.2593 12.248 12.4273 11.724 12.4273 11.036V7.424H13.5193ZM17.0911 14.108C16.5871 14.108 16.1351 14.024 15.7351 13.856C15.3351 13.68 15.0191 13.44 14.7871 13.136C14.5551 12.824 14.4271 12.468 14.4031 12.068H15.5311C15.5631 12.396 15.7151 12.664 15.9871 12.872C16.2671 13.08 16.6311 13.184 17.0791 13.184C17.4951 13.184 17.8231 13.092 18.0631 12.908C18.3031 12.724 18.4231 12.492 18.4231 12.212C18.4231 11.924 18.2951 11.712 18.0391 11.576C17.7831 11.432 17.3871 11.292 16.8511 11.156C16.3631 11.028 15.9631 10.9 15.6511 10.772C15.3471 10.636 15.0831 10.44 14.8591 10.184C14.6431 9.92 14.5351 9.576 14.5351 9.152C14.5351 8.816 14.6351 8.508 14.8351 8.228C15.0351 7.948 15.3191 7.728 15.6871 7.568C16.0551 7.4 16.4751 7.316 16.9471 7.316C17.6751 7.316 18.2631 7.5 18.7111 7.868C19.1591 8.236 19.3991 8.74 19.4311 9.38H18.3391C18.3151 9.036 18.1751 8.76 17.9191 8.552C17.6711 8.344 17.3351 8.24 16.9111 8.24C16.5191 8.24 16.2071 8.324 15.9751 8.492C15.7431 8.66 15.6271 8.88 15.6271 9.152C15.6271 9.368 15.6951 9.548 15.8311 9.692C15.9751 9.828 16.1511 9.94 16.3591 10.028C16.5751 10.108 16.8711 10.2 17.2471 10.304C17.7191 10.432 18.1031 10.56 18.3991 10.688C18.6951 10.808 18.9471 10.992 19.1551 11.24C19.3711 11.488 19.4831 11.812 19.4911 12.212C19.4911 12.572 19.3911 12.896 19.1911 13.184C18.9911 13.472 18.7071 13.7 18.3391 13.868C17.9791 14.028 17.5631 14.108 17.0911 14.108ZM21.7646 8.324V12.2C21.7646 12.52 21.8326 12.748 21.9686 12.884C22.1046 13.012 22.3406 13.076 22.6766 13.076H23.4806V14H22.4966C21.8886 14 21.4326 13.86 21.1286 13.58C20.8246 13.3 20.6726 12.84 20.6726 12.2V8.324H19.8206V7.424H20.6726V5.768H21.7646V7.424H23.4806V8.324H21.7646Z" fill="#FFCC00"/>
<mask id="path-2-outside-1_37_30" maskUnits="userSpaceOnUse" x="0.0500793" y="13" width="41" height="13" fill="black">
<rect fill="white" x="0.0500793" y="13" width="41" height="13"/>
<path d="M6.71008 25L4.22008 20.725H2.57008V25H1.20508V14.545H4.58008C5.37008 14.545 6.03508 14.68 6.57508 14.95C7.12508 15.22 7.53508 15.585 7.80508 16.045C8.07508 16.505 8.21008 17.03 8.21008 17.62C8.21008 18.34 8.00008 18.975 7.58008 19.525C7.17008 20.075 6.55008 20.44 5.72008 20.62L8.34508 25H6.71008ZM2.57008 19.63H4.58008C5.32008 19.63 5.87508 19.45 6.24508 19.09C6.61508 18.72 6.80008 18.23 6.80008 17.62C6.80008 17 6.61508 16.52 6.24508 16.18C5.88508 15.84 5.33008 15.67 4.58008 15.67H2.57008V19.63ZM9.07106 20.86C9.07106 20.02 9.24106 19.285 9.58106 18.655C9.92106 18.015 10.3861 17.52 10.9761 17.17C11.5761 16.82 12.2411 16.645 12.9711 16.645C13.6911 16.645 14.3161 16.8 14.8461 17.11C15.3761 17.42 15.7711 17.81 16.0311 18.28V16.78H17.4111V25H16.0311V23.47C15.7611 23.95 15.3561 24.35 14.8161 24.67C14.2861 24.98 13.6661 25.135 12.9561 25.135C12.2261 25.135 11.5661 24.955 10.9761 24.595C10.3861 24.235 9.92106 23.73 9.58106 23.08C9.24106 22.43 9.07106 21.69 9.07106 20.86ZM16.0311 20.875C16.0311 20.255 15.9061 19.715 15.6561 19.255C15.4061 18.795 15.0661 18.445 14.6361 18.205C14.2161 17.955 13.7511 17.83 13.2411 17.83C12.7311 17.83 12.2661 17.95 11.8461 18.19C11.4261 18.43 11.0911 18.78 10.8411 19.24C10.5911 19.7 10.4661 20.24 10.4661 20.86C10.4661 21.49 10.5911 22.04 10.8411 22.51C11.0911 22.97 11.4261 23.325 11.8461 23.575C12.2661 23.815 12.7311 23.935 13.2411 23.935C13.7511 23.935 14.2161 23.815 14.6361 23.575C15.0661 23.325 15.4061 22.97 15.6561 22.51C15.9061 22.04 16.0311 21.495 16.0311 20.875ZM20.6328 17.905V22.75C20.6328 23.15 20.7178 23.435 20.8878 23.605C21.0578 23.765 21.3528 23.845 21.7728 23.845H22.7778V25H21.5478C20.7878 25 20.2178 24.825 19.8378 24.475C19.4578 24.125 19.2678 23.55 19.2678 22.75V17.905H18.2028V16.78H19.2678V14.71H20.6328V16.78H22.7778V17.905H20.6328ZM31.1816 20.575C31.1816 20.835 31.1666 21.11 31.1366 21.4H24.5666C24.6166 22.21 24.8916 22.845 25.3916 23.305C25.9016 23.755 26.5166 23.98 27.2366 23.98C27.8266 23.98 28.3166 23.845 28.7066 23.575C29.1066 23.295 29.3866 22.925 29.5466 22.465H31.0166C30.7966 23.255 30.3566 23.9 29.6966 24.4C29.0366 24.89 28.2166 25.135 27.2366 25.135C26.4566 25.135 25.7566 24.96 25.1366 24.61C24.5266 24.26 24.0466 23.765 23.6966 23.125C23.3466 22.475 23.1716 21.725 23.1716 20.875C23.1716 20.025 23.3416 19.28 23.6816 18.64C24.0216 18 24.4966 17.51 25.1066 17.17C25.7266 16.82 26.4366 16.645 27.2366 16.645C28.0166 16.645 28.7066 16.815 29.3066 17.155C29.9066 17.495 30.3666 17.965 30.6866 18.565C31.0166 19.155 31.1816 19.825 31.1816 20.575ZM29.7716 20.29C29.7716 19.77 29.6566 19.325 29.4266 18.955C29.1966 18.575 28.8816 18.29 28.4816 18.1C28.0916 17.9 27.6566 17.8 27.1766 17.8C26.4866 17.8 25.8966 18.02 25.4066 18.46C24.9266 18.9 24.6516 19.51 24.5816 20.29H29.7716ZM31.7234 20.86C31.7234 20.02 31.8934 19.285 32.2334 18.655C32.5734 18.015 33.0384 17.52 33.6284 17.17C34.2284 16.82 34.8984 16.645 35.6384 16.645C36.2784 16.645 36.8734 16.795 37.4234 17.095C37.9734 17.385 38.3934 17.77 38.6834 18.25V13.9H40.0634V25H38.6834V23.455C38.4134 23.945 38.0134 24.35 37.4834 24.67C36.9534 24.98 36.3334 25.135 35.6234 25.135C34.8934 25.135 34.2284 24.955 33.6284 24.595C33.0384 24.235 32.5734 23.73 32.2334 23.08C31.8934 22.43 31.7234 21.69 31.7234 20.86ZM38.6834 20.875C38.6834 20.255 38.5584 19.715 38.3084 19.255C38.0584 18.795 37.7184 18.445 37.2884 18.205C36.8684 17.955 36.4034 17.83 35.8934 17.83C35.3834 17.83 34.9184 17.95 34.4984 18.19C34.0784 18.43 33.7434 18.78 33.4934 19.24C33.2434 19.7 33.1184 20.24 33.1184 20.86C33.1184 21.49 33.2434 22.04 33.4934 22.51C33.7434 22.97 34.0784 23.325 34.4984 23.575C34.9184 23.815 35.3834 23.935 35.8934 23.935C36.4034 23.935 36.8684 23.815 37.2884 23.575C37.7184 23.325 38.0584 22.97 38.3084 22.51C38.5584 22.04 38.6834 21.495 38.6834 20.875Z"/>
</mask>
<path d="M6.71008 25L4.22008 20.725H2.57008V25H1.20508V14.545H4.58008C5.37008 14.545 6.03508 14.68 6.57508 14.95C7.12508 15.22 7.53508 15.585 7.80508 16.045C8.07508 16.505 8.21008 17.03 8.21008 17.62C8.21008 18.34 8.00008 18.975 7.58008 19.525C7.17008 20.075 6.55008 20.44 5.72008 20.62L8.34508 25H6.71008ZM2.57008 19.63H4.58008C5.32008 19.63 5.87508 19.45 6.24508 19.09C6.61508 18.72 6.80008 18.23 6.80008 17.62C6.80008 17 6.61508 16.52 6.24508 16.18C5.88508 15.84 5.33008 15.67 4.58008 15.67H2.57008V19.63ZM9.07106 20.86C9.07106 20.02 9.24106 19.285 9.58106 18.655C9.92106 18.015 10.3861 17.52 10.9761 17.17C11.5761 16.82 12.2411 16.645 12.9711 16.645C13.6911 16.645 14.3161 16.8 14.8461 17.11C15.3761 17.42 15.7711 17.81 16.0311 18.28V16.78H17.4111V25H16.0311V23.47C15.7611 23.95 15.3561 24.35 14.8161 24.67C14.2861 24.98 13.6661 25.135 12.9561 25.135C12.2261 25.135 11.5661 24.955 10.9761 24.595C10.3861 24.235 9.92106 23.73 9.58106 23.08C9.24106 22.43 9.07106 21.69 9.07106 20.86ZM16.0311 20.875C16.0311 20.255 15.9061 19.715 15.6561 19.255C15.4061 18.795 15.0661 18.445 14.6361 18.205C14.2161 17.955 13.7511 17.83 13.2411 17.83C12.7311 17.83 12.2661 17.95 11.8461 18.19C11.4261 18.43 11.0911 18.78 10.8411 19.24C10.5911 19.7 10.4661 20.24 10.4661 20.86C10.4661 21.49 10.5911 22.04 10.8411 22.51C11.0911 22.97 11.4261 23.325 11.8461 23.575C12.2661 23.815 12.7311 23.935 13.2411 23.935C13.7511 23.935 14.2161 23.815 14.6361 23.575C15.0661 23.325 15.4061 22.97 15.6561 22.51C15.9061 22.04 16.0311 21.495 16.0311 20.875ZM20.6328 17.905V22.75C20.6328 23.15 20.7178 23.435 20.8878 23.605C21.0578 23.765 21.3528 23.845 21.7728 23.845H22.7778V25H21.5478C20.7878 25 20.2178 24.825 19.8378 24.475C19.4578 24.125 19.2678 23.55 19.2678 22.75V17.905H18.2028V16.78H19.2678V14.71H20.6328V16.78H22.7778V17.905H20.6328ZM31.1816 20.575C31.1816 20.835 31.1666 21.11 31.1366 21.4H24.5666C24.6166 22.21 24.8916 22.845 25.3916 23.305C25.9016 23.755 26.5166 23.98 27.2366 23.98C27.8266 23.98 28.3166 23.845 28.7066 23.575C29.1066 23.295 29.3866 22.925 29.5466 22.465H31.0166C30.7966 23.255 30.3566 23.9 29.6966 24.4C29.0366 24.89 28.2166 25.135 27.2366 25.135C26.4566 25.135 25.7566 24.96 25.1366 24.61C24.5266 24.26 24.0466 23.765 23.6966 23.125C23.3466 22.475 23.1716 21.725 23.1716 20.875C23.1716 20.025 23.3416 19.28 23.6816 18.64C24.0216 18 24.4966 17.51 25.1066 17.17C25.7266 16.82 26.4366 16.645 27.2366 16.645C28.0166 16.645 28.7066 16.815 29.3066 17.155C29.9066 17.495 30.3666 17.965 30.6866 18.565C31.0166 19.155 31.1816 19.825 31.1816 20.575ZM29.7716 20.29C29.7716 19.77 29.6566 19.325 29.4266 18.955C29.1966 18.575 28.8816 18.29 28.4816 18.1C28.0916 17.9 27.6566 17.8 27.1766 17.8C26.4866 17.8 25.8966 18.02 25.4066 18.46C24.9266 18.9 24.6516 19.51 24.5816 20.29H29.7716ZM31.7234 20.86C31.7234 20.02 31.8934 19.285 32.2334 18.655C32.5734 18.015 33.0384 17.52 33.6284 17.17C34.2284 16.82 34.8984 16.645 35.6384 16.645C36.2784 16.645 36.8734 16.795 37.4234 17.095C37.9734 17.385 38.3934 17.77 38.6834 18.25V13.9H40.0634V25H38.6834V23.455C38.4134 23.945 38.0134 24.35 37.4834 24.67C36.9534 24.98 36.3334 25.135 35.6234 25.135C34.8934 25.135 34.2284 24.955 33.6284 24.595C33.0384 24.235 32.5734 23.73 32.2334 23.08C31.8934 22.43 31.7234 21.69 31.7234 20.86ZM38.6834 20.875C38.6834 20.255 38.5584 19.715 38.3084 19.255C38.0584 18.795 37.7184 18.445 37.2884 18.205C36.8684 17.955 36.4034 17.83 35.8934 17.83C35.3834 17.83 34.9184 17.95 34.4984 18.19C34.0784 18.43 33.7434 18.78 33.4934 19.24C33.2434 19.7 33.1184 20.24 33.1184 20.86C33.1184 21.49 33.2434 22.04 33.4934 22.51C33.7434 22.97 34.0784 23.325 34.4984 23.575C34.9184 23.815 35.3834 23.935 35.8934 23.935C36.4034 23.935 36.8684 23.815 37.2884 23.575C37.7184 23.325 38.0584 22.97 38.3084 22.51C38.5584 22.04 38.6834 21.495 38.6834 20.875Z" fill="white"/>
<path d="M6.71008 25L6.53726 25.1007L6.59512 25.2H6.71008V25ZM4.22008 20.725L4.3929 20.6243L4.33504 20.525H4.22008V20.725ZM2.57008 20.725V20.525H2.37008V20.725H2.57008ZM2.57008 25V25.2H2.77008V25H2.57008ZM1.20508 25H1.00508V25.2H1.20508V25ZM1.20508 14.545V14.345H1.00508V14.545H1.20508ZM6.57508 14.95L6.48563 15.1289L6.48695 15.1295L6.57508 14.95ZM7.58008 19.525L7.42112 19.4036L7.41973 19.4055L7.58008 19.525ZM5.72008 20.62L5.67769 20.4245L5.40519 20.4836L5.54853 20.7228L5.72008 20.62ZM8.34508 25V25.2H8.69811L8.51663 24.8972L8.34508 25ZM2.57008 19.63H2.37008V19.83H2.57008V19.63ZM6.24508 19.09L6.38456 19.2334L6.3865 19.2314L6.24508 19.09ZM6.24508 16.18L6.10774 16.3254L6.10975 16.3273L6.24508 16.18ZM2.57008 15.67V15.47H2.37008V15.67H2.57008ZM6.71008 25L6.8829 24.8993L4.3929 20.6243L4.22008 20.725L4.04726 20.8257L6.53726 25.1007L6.71008 25ZM4.22008 20.725V20.525H2.57008V20.725V20.925H4.22008V20.725ZM2.57008 20.725H2.37008V25H2.57008H2.77008V20.725H2.57008ZM2.57008 25V24.8H1.20508V25V25.2H2.57008V25ZM1.20508 25H1.40508V14.545H1.20508H1.00508V25H1.20508ZM1.20508 14.545V14.745H4.58008V14.545V14.345H1.20508V14.545ZM4.58008 14.545V14.745C5.34825 14.745 5.98062 14.8764 6.48564 15.1289L6.57508 14.95L6.66452 14.7711C6.08954 14.4836 5.39191 14.345 4.58008 14.345V14.545ZM6.57508 14.95L6.48695 15.1295C7.00714 15.3849 7.38526 15.7249 7.6326 16.1462L7.80508 16.045L7.97756 15.9438C7.6849 15.4451 7.24302 15.0551 6.66321 14.7705L6.57508 14.95ZM7.80508 16.045L7.6326 16.1462C7.88271 16.5724 8.01008 17.0617 8.01008 17.62H8.21008H8.41008C8.41008 16.9983 8.26745 16.4376 7.97756 15.9438L7.80508 16.045ZM8.21008 17.62H8.01008C8.01008 18.298 7.81337 18.89 7.42113 19.4036L7.58008 19.525L7.73903 19.6464C8.18679 19.06 8.41008 18.382 8.41008 17.62H8.21008ZM7.58008 19.525L7.41973 19.4055C7.04501 19.9081 6.47216 20.2522 5.67769 20.4245L5.72008 20.62L5.76247 20.8155C6.628 20.6278 7.29515 20.2419 7.74043 19.6445L7.58008 19.525ZM5.72008 20.62L5.54853 20.7228L8.17353 25.1028L8.34508 25L8.51663 24.8972L5.89163 20.5172L5.72008 20.62ZM8.34508 25V24.8H6.71008V25V25.2H8.34508V25ZM2.57008 19.63V19.83H4.58008V19.63V19.43H2.57008V19.63ZM4.58008 19.63V19.83C5.34956 19.83 5.96365 19.6429 6.38455 19.2333L6.24508 19.09L6.10561 18.9467C5.78651 19.2571 5.2906 19.43 4.58008 19.43V19.63ZM6.24508 19.09L6.3865 19.2314C6.80023 18.8177 7.00008 18.2735 7.00008 17.62H6.80008H6.60008C6.60008 18.1865 6.42993 18.6223 6.10366 18.9486L6.24508 19.09ZM6.80008 17.62H7.00008C7.00008 16.9581 6.80096 16.4192 6.3804 16.0327L6.24508 16.18L6.10975 16.3273C6.4292 16.6208 6.60008 17.0419 6.60008 17.62H6.80008ZM6.24508 16.18L6.3824 16.0346C5.97009 15.6452 5.3555 15.47 4.58008 15.47V15.67V15.87C5.30466 15.87 5.80007 16.0348 6.10775 16.3254L6.24508 16.18ZM4.58008 15.67V15.47H2.57008V15.67V15.87H4.58008V15.67ZM2.57008 15.67H2.37008V19.63H2.57008H2.77008V15.67H2.57008ZM9.58106 18.655L9.75706 18.75L9.75768 18.7488L9.58106 18.655ZM10.9761 17.17L10.8753 16.9972L10.874 16.998L10.9761 17.17ZM14.8461 17.11L14.7451 17.2826L14.7451 17.2826L14.8461 17.11ZM16.0311 18.28L15.856 18.3768L16.2311 18.28H16.0311ZM16.0311 16.78V16.58H15.8311V16.78H16.0311ZM17.4111 16.78H17.6111V16.58H17.4111V16.78ZM17.4111 25V25.2H17.6111V25H17.4111ZM16.0311 25H15.8311V25.2H16.0311V25ZM16.0311 23.47H16.2311V22.7065L15.8567 23.3719L16.0311 23.47ZM14.8161 24.67L14.917 24.8426L14.918 24.8421L14.8161 24.67ZM10.9761 24.595L10.8719 24.7657L10.8719 24.7657L10.9761 24.595ZM9.58106 23.08L9.75828 22.9873L9.75828 22.9873L9.58106 23.08ZM14.6361 18.205L14.5337 18.3769L14.5386 18.3796L14.6361 18.205ZM11.8461 18.19L11.7468 18.0164L11.7468 18.0164L11.8461 18.19ZM10.8411 19.24L11.0168 19.3355L11.0168 19.3355L10.8411 19.24ZM10.8411 22.51L10.6645 22.6039L10.6653 22.6055L10.8411 22.51ZM11.8461 23.575L11.7437 23.7469L11.7468 23.7486L11.8461 23.575ZM14.6361 23.575L14.7353 23.7487L14.7366 23.7479L14.6361 23.575ZM15.6561 22.51L15.8318 22.6055L15.8326 22.6039L15.6561 22.51ZM9.07106 20.86H9.27106C9.27106 20.0474 9.43534 19.3461 9.75706 18.75L9.58106 18.655L9.40505 18.56C9.04678 19.2239 8.87106 19.9926 8.87106 20.86H9.07106ZM9.58106 18.655L9.75768 18.7488C10.0815 18.1393 10.5215 17.6722 11.0781 17.342L10.9761 17.17L10.874 16.998C10.2506 17.3678 9.76064 17.8907 9.40443 18.5612L9.58106 18.655ZM10.9761 17.17L11.0768 17.3428C11.6447 17.0115 12.2746 16.845 12.9711 16.845V16.645V16.445C12.2075 16.445 11.5075 16.6285 10.8753 16.9972L10.9761 17.17ZM12.9711 16.645V16.845C13.6617 16.845 14.2506 16.9934 14.7451 17.2826L14.8461 17.11L14.947 16.9374C14.3815 16.6066 13.7204 16.445 12.9711 16.445V16.645ZM14.8461 17.11L14.7451 17.2826C15.2486 17.5771 15.6158 17.9426 15.856 18.3768L16.0311 18.28L16.2061 18.1832C15.9263 17.6774 15.5036 17.2629 14.947 16.9374L14.8461 17.11ZM16.0311 18.28H16.2311V16.78H16.0311H15.8311V18.28H16.0311ZM16.0311 16.78V16.98H17.4111V16.78V16.58H16.0311V16.78ZM17.4111 16.78H17.2111V25H17.4111H17.6111V16.78H17.4111ZM17.4111 25V24.8H16.0311V25V25.2H17.4111V25ZM16.0311 25H16.2311V23.47H16.0311H15.8311V25H16.0311ZM16.0311 23.47L15.8567 23.3719C15.6062 23.8173 15.2282 24.1933 14.7141 24.4979L14.8161 24.67L14.918 24.8421C15.4839 24.5067 15.9159 24.0827 16.2054 23.5681L16.0311 23.47ZM14.8161 24.67L14.7151 24.4974C14.2202 24.7868 13.6362 24.935 12.9561 24.935V25.135V25.335C13.6959 25.335 14.3519 25.1732 14.917 24.8426L14.8161 24.67ZM12.9561 25.135V24.935C12.2607 24.935 11.6371 24.764 11.0802 24.4243L10.9761 24.595L10.8719 24.7657C11.495 25.146 12.1915 25.335 12.9561 25.335V25.135ZM10.9761 24.595L11.0802 24.4243C10.5231 24.0843 10.0825 23.6072 9.75828 22.9873L9.58106 23.08L9.40384 23.1727C9.75958 23.8528 10.249 24.3857 10.8719 24.7657L10.9761 24.595ZM9.58106 23.08L9.75828 22.9873C9.43511 22.3695 9.27106 21.662 9.27106 20.86H9.07106H8.87106C8.87106 21.718 9.047 22.4905 9.40384 23.1727L9.58106 23.08ZM16.0311 20.875H16.2311C16.2311 20.2278 16.1004 19.6538 15.8318 19.1595L15.6561 19.255L15.4803 19.3505C15.7117 19.7762 15.8311 20.2822 15.8311 20.875H16.0311ZM15.6561 19.255L15.8318 19.1595C15.5649 18.6684 15.1987 18.29 14.7335 18.0304L14.6361 18.205L14.5386 18.3796C14.9334 18.6 15.2472 18.9216 15.4803 19.3505L15.6561 19.255ZM14.6361 18.205L14.7384 18.0331C14.286 17.7639 13.7854 17.63 13.2411 17.63V17.83V18.03C13.7167 18.03 14.1461 18.1461 14.5338 18.3769L14.6361 18.205ZM13.2411 17.83V17.63C12.6982 17.63 12.1987 17.7581 11.7468 18.0164L11.8461 18.19L11.9453 18.3636C12.3334 18.1419 12.7639 18.03 13.2411 18.03V17.83ZM11.8461 18.19L11.7468 18.0164C11.2919 18.2763 10.9316 18.6546 10.6653 19.1445L10.8411 19.24L11.0168 19.3355C11.2506 18.9054 11.5602 18.5837 11.9453 18.3636L11.8461 18.19ZM10.8411 19.24L10.6653 19.1445C10.3967 19.6388 10.2661 20.2128 10.2661 20.86H10.4661H10.6661C10.6661 20.2672 10.7854 19.7612 11.0168 19.3355L10.8411 19.24ZM10.4661 20.86H10.2661C10.2661 21.5168 10.3965 22.1001 10.6645 22.6039L10.8411 22.51L11.0176 22.4161C10.7856 21.9799 10.6661 21.4632 10.6661 20.86H10.4661ZM10.8411 22.51L10.6653 22.6055C10.9312 23.0948 11.2907 23.4772 11.7438 23.7469L11.8461 23.575L11.9484 23.4031C11.5615 23.1728 11.2509 22.8452 11.0168 22.4145L10.8411 22.51ZM11.8461 23.575L11.7468 23.7486C12.1987 24.0069 12.6982 24.135 13.2411 24.135V23.935V23.735C12.7639 23.735 12.3334 23.6231 11.9453 23.4014L11.8461 23.575ZM13.2411 23.935V24.135C13.7839 24.135 14.2834 24.0069 14.7353 23.7486L14.6361 23.575L14.5368 23.4014C14.1487 23.6231 13.7182 23.735 13.2411 23.735V23.935ZM14.6361 23.575L14.7366 23.7479C15.2 23.4785 15.5652 23.0959 15.8318 22.6055L15.6561 22.51L15.4803 22.4145C15.2469 22.8441 14.9322 23.1715 14.5355 23.4021L14.6361 23.575ZM15.6561 22.51L15.8326 22.6039C16.1004 22.1006 16.2311 21.5223 16.2311 20.875H16.0311H15.8311C15.8311 21.4677 15.7117 21.9794 15.4795 22.4161L15.6561 22.51ZM20.6328 17.905V17.705H20.4328V17.905H20.6328ZM20.8878 23.605L20.7463 23.7465L20.7507 23.7506L20.8878 23.605ZM22.7778 23.845H22.9778V23.645H22.7778V23.845ZM22.7778 25V25.2H22.9778V25H22.7778ZM19.2678 17.905H19.4678V17.705H19.2678V17.905ZM18.2028 17.905H18.0028V18.105H18.2028V17.905ZM18.2028 16.78V16.58H18.0028V16.78H18.2028ZM19.2678 16.78V16.98H19.4678V16.78H19.2678ZM19.2678 14.71V14.51H19.0678V14.71H19.2678ZM20.6328 14.71H20.8328V14.51H20.6328V14.71ZM20.6328 16.78H20.4328V16.98H20.6328V16.78ZM22.7778 16.78H22.9778V16.58H22.7778V16.78ZM22.7778 17.905V18.105H22.9778V17.905H22.7778ZM20.6328 17.905H20.4328V22.75H20.6328H20.8328V17.905H20.6328ZM20.6328 22.75H20.4328C20.4328 23.1697 20.5205 23.5206 20.7464 23.7464L20.8878 23.605L21.0292 23.4636C20.9151 23.3494 20.8328 23.1303 20.8328 22.75H20.6328ZM20.8878 23.605L20.7507 23.7506C20.978 23.9645 21.3387 24.045 21.7728 24.045V23.845V23.645C21.3669 23.645 21.1376 23.5655 21.0248 23.4594L20.8878 23.605ZM21.7728 23.845V24.045H22.7778V23.845V23.645H21.7728V23.845ZM22.7778 23.845H22.5778V25H22.7778H22.9778V23.845H22.7778ZM22.7778 25V24.8H21.5478V25V25.2H22.7778V25ZM21.5478 25V24.8C20.8147 24.8 20.3022 24.6309 19.9733 24.3279L19.8378 24.475L19.7023 24.6221C20.1333 25.0191 20.7608 25.2 21.5478 25.2V25ZM19.8378 24.475L19.9733 24.3279C19.6523 24.0323 19.4678 23.5244 19.4678 22.75H19.2678H19.0678C19.0678 23.5756 19.2632 24.2177 19.7023 24.6221L19.8378 24.475ZM19.2678 22.75H19.4678V17.905H19.2678H19.0678V22.75H19.2678ZM19.2678 17.905V17.705H18.2028V17.905V18.105H19.2678V17.905ZM18.2028 17.905H18.4028V16.78H18.2028H18.0028V17.905H18.2028ZM18.2028 16.78V16.98H19.2678V16.78V16.58H18.2028V16.78ZM19.2678 16.78H19.4678V14.71H19.2678H19.0678V16.78H19.2678ZM19.2678 14.71V14.91H20.6328V14.71V14.51H19.2678V14.71ZM20.6328 14.71H20.4328V16.78H20.6328H20.8328V14.71H20.6328ZM20.6328 16.78V16.98H22.7778V16.78V16.58H20.6328V16.78ZM22.7778 16.78H22.5778V17.905H22.7778H22.9778V16.78H22.7778ZM22.7778 17.905V17.705H20.6328V17.905V18.105H22.7778V17.905ZM31.1366 21.4V21.6H31.317L31.3356 21.4206L31.1366 21.4ZM24.5666 21.4V21.2H24.3539L24.367 21.4123L24.5666 21.4ZM25.3916 23.305L25.2562 23.4522L25.2593 23.455L25.3916 23.305ZM28.7066 23.575L28.8205 23.7394L28.8213 23.7388L28.7066 23.575ZM29.5466 22.465V22.265H29.4045L29.3577 22.3993L29.5466 22.465ZM31.0166 22.465L31.2093 22.5187L31.2799 22.265H31.0166V22.465ZM29.6966 24.4L29.8159 24.5606L29.8174 24.5594L29.6966 24.4ZM25.1366 24.61L25.0371 24.7835L25.0383 24.7842L25.1366 24.61ZM23.6966 23.125L23.5205 23.2198L23.5212 23.221L23.6966 23.125ZM23.6816 18.64L23.8583 18.7338L23.8583 18.7338L23.6816 18.64ZM25.1066 17.17L25.204 17.3447L25.205 17.3442L25.1066 17.17ZM29.3066 17.155L29.208 17.329L29.208 17.329L29.3066 17.155ZM30.6866 18.565L30.5101 18.6591L30.5121 18.6626L30.6866 18.565ZM29.7716 20.29V20.49H29.9716V20.29H29.7716ZM29.4266 18.955L29.2555 19.0586L29.2568 19.0606L29.4266 18.955ZM28.4816 18.1L28.3903 18.278L28.3958 18.2807L28.4816 18.1ZM25.4066 18.46L25.273 18.3112L25.2715 18.3126L25.4066 18.46ZM24.5816 20.29L24.3824 20.2721L24.3629 20.49H24.5816V20.29ZM31.1816 20.575H30.9816C30.9816 20.8274 30.9671 21.0955 30.9377 21.3794L31.1366 21.4L31.3356 21.4206C31.3662 21.1245 31.3816 20.8426 31.3816 20.575H31.1816ZM31.1366 21.4V21.2H24.5666V21.4V21.6H31.1366V21.4ZM24.5666 21.4L24.367 21.4123C24.4195 22.2632 24.711 22.9506 25.2562 23.4522L25.3916 23.305L25.5271 23.1578C25.0723 22.7394 24.8137 22.1568 24.7663 21.3877L24.5666 21.4ZM25.3916 23.305L25.2593 23.455C25.8081 23.9392 26.471 24.18 27.2366 24.18V23.98V23.78C26.5623 23.78 25.9952 23.5708 25.524 23.155L25.3916 23.305ZM27.2366 23.98V24.18C27.8573 24.18 28.3897 24.0377 28.8205 23.7394L28.7066 23.575L28.5928 23.4106C28.2436 23.6523 27.796 23.78 27.2366 23.78V23.98ZM28.7066 23.575L28.8213 23.7388C29.2557 23.4348 29.5617 23.0305 29.7355 22.5307L29.5466 22.465L29.3577 22.3993C29.2116 22.8195 28.9576 23.1552 28.5919 23.4112L28.7066 23.575ZM29.5466 22.465V22.665H31.0166V22.465V22.265H29.5466V22.465ZM31.0166 22.465L30.824 22.4113C30.6158 23.1587 30.2013 23.7667 29.5759 24.2406L29.6966 24.4L29.8174 24.5594C30.5119 24.0333 30.9774 23.3513 31.2093 22.5187L31.0166 22.465ZM29.6966 24.4L29.5774 24.2394C28.9581 24.6992 28.1822 24.935 27.2366 24.935V25.135V25.335C28.2511 25.335 29.1151 25.0808 29.8159 24.5606L29.6966 24.4ZM27.2366 25.135V24.935C26.4877 24.935 25.8221 24.7673 25.235 24.4358L25.1366 24.61L25.0383 24.7842C25.6911 25.1527 26.4256 25.335 27.2366 25.335V25.135ZM25.1366 24.61L25.2362 24.4365C24.6594 24.1056 24.2051 23.638 23.8721 23.029L23.6966 23.125L23.5212 23.221C23.8882 23.892 24.3939 24.4144 25.0371 24.7835L25.1366 24.61ZM23.6966 23.125L23.8727 23.0302C23.5407 22.4135 23.3716 21.697 23.3716 20.875H23.1716H22.9716C22.9716 21.753 23.1526 22.5365 23.5205 23.2198L23.6966 23.125ZM23.1716 20.875H23.3716C23.3716 20.0521 23.5361 19.3403 23.8583 18.7338L23.6816 18.64L23.505 18.5462C23.1472 19.2197 22.9716 19.9979 22.9716 20.875H23.1716ZM23.6816 18.64L23.8583 18.7338C24.1809 18.1265 24.629 17.6652 25.204 17.3447L25.1066 17.17L25.0093 16.9953C24.3643 17.3548 23.8624 17.8735 23.505 18.5462L23.6816 18.64ZM25.1066 17.17L25.205 17.3442C25.7914 17.0131 26.4668 16.845 27.2366 16.845V16.645V16.445C26.4065 16.445 25.6619 16.6269 25.0083 16.9958L25.1066 17.17ZM27.2366 16.645V16.845C27.9867 16.845 28.6419 17.0082 29.208 17.329L29.3066 17.155L29.4052 16.981C28.7714 16.6218 28.0466 16.445 27.2366 16.445V16.645ZM29.3066 17.155L29.208 17.329C29.7755 17.6506 30.2083 18.0931 30.5102 18.6591L30.6866 18.565L30.8631 18.4709C30.525 17.8369 30.0378 17.3394 29.4052 16.981L29.3066 17.155ZM30.6866 18.565L30.5121 18.6626C30.8236 19.2196 30.9816 19.8554 30.9816 20.575H31.1816H31.3816C31.3816 19.7946 31.2097 19.0904 30.8612 18.4674L30.6866 18.565ZM29.7716 20.29H29.9716C29.9716 19.74 29.8497 19.2568 29.5965 18.8494L29.4266 18.955L29.2568 19.0606C29.4636 19.3932 29.5716 19.8 29.5716 20.29H29.7716ZM29.4266 18.955L29.5977 18.8514C29.3475 18.4381 29.0029 18.1262 28.5675 17.9193L28.4816 18.1L28.3958 18.2807C28.7604 18.4538 29.0457 18.7119 29.2555 19.0586L29.4266 18.955ZM28.4816 18.1L28.5729 17.922C28.152 17.7062 27.6853 17.6 27.1766 17.6V17.8V18C27.628 18 28.0312 18.0938 28.3904 18.278L28.4816 18.1ZM27.1766 17.8V17.6C26.4399 17.6 25.8016 17.8365 25.273 18.3112L25.4066 18.46L25.5403 18.6088C25.9917 18.2035 26.5334 18 27.1766 18V17.8ZM25.4066 18.46L25.2715 18.3126C24.7476 18.7928 24.4559 19.4531 24.3824 20.2721L24.5816 20.29L24.7808 20.3079C24.8473 19.5669 25.1057 19.0072 25.5418 18.6074L25.4066 18.46ZM24.5816 20.29V20.49H29.7716V20.29V20.09H24.5816V20.29ZM32.2334 18.655L32.4094 18.75L32.41 18.7488L32.2334 18.655ZM33.6284 17.17L33.5276 16.9972L33.5264 16.998L33.6284 17.17ZM37.4234 17.095L37.3276 17.2706L37.3301 17.2719L37.4234 17.095ZM38.6834 18.25L38.5122 18.3534L38.8834 18.9678V18.25H38.6834ZM38.6834 13.9V13.7H38.4834V13.9H38.6834ZM40.0634 13.9H40.2634V13.7H40.0634V13.9ZM40.0634 25V25.2H40.2634V25H40.0634ZM38.6834 25H38.4834V25.2H38.6834V25ZM38.6834 23.455H38.8834L38.5082 23.3585L38.6834 23.455ZM37.4834 24.67L37.5844 24.8427L37.5868 24.8412L37.4834 24.67ZM33.6284 24.595L33.5242 24.7657L33.5255 24.7665L33.6284 24.595ZM32.2334 23.08L32.4106 22.9873L32.4106 22.9873L32.2334 23.08ZM37.2884 18.205L37.1861 18.3769L37.1909 18.3796L37.2884 18.205ZM34.4984 18.19L34.3992 18.0164L34.3992 18.0164L34.4984 18.19ZM33.4934 19.24L33.6691 19.3355L33.6691 19.3355L33.4934 19.24ZM33.4934 22.51L33.3168 22.6039L33.3177 22.6055L33.4934 22.51ZM34.4984 23.575L34.3961 23.7469L34.3992 23.7486L34.4984 23.575ZM37.2884 23.575L37.3876 23.7487L37.3889 23.7479L37.2884 23.575ZM38.3084 22.51L38.4841 22.6055L38.485 22.6039L38.3084 22.51ZM31.7234 20.86H31.9234C31.9234 20.0474 32.0877 19.3461 32.4094 18.75L32.2334 18.655L32.0574 18.56C31.6991 19.2239 31.5234 19.9926 31.5234 20.86H31.7234ZM32.2334 18.655L32.41 18.7488C32.7338 18.1393 33.1738 17.6722 33.7304 17.342L33.6284 17.17L33.5264 16.998C32.903 17.3678 32.413 17.8907 32.0568 18.5612L32.2334 18.655ZM33.6284 17.17L33.7292 17.3428C34.2966 17.0118 34.9314 16.845 35.6384 16.845V16.645V16.445C34.8654 16.445 34.1602 16.6282 33.5276 16.9972L33.6284 17.17ZM35.6384 16.645V16.845C36.2457 16.845 36.8077 16.987 37.3276 17.2706L37.4234 17.095L37.5192 16.9194C36.9391 16.603 36.3111 16.445 35.6384 16.445V16.645ZM37.4234 17.095L37.3301 17.2719C37.8516 17.5469 38.243 17.9079 38.5122 18.3534L38.6834 18.25L38.8546 18.1466C38.5438 17.6321 38.0952 17.2231 37.5167 16.9181L37.4234 17.095ZM38.6834 18.25H38.8834V13.9H38.6834H38.4834V18.25H38.6834ZM38.6834 13.9V14.1H40.0634V13.9V13.7H38.6834V13.9ZM40.0634 13.9H39.8634V25H40.0634H40.2634V13.9H40.0634ZM40.0634 25V24.8H38.6834V25V25.2H40.0634V25ZM38.6834 25H38.8834V23.455H38.6834H38.4834V25H38.6834ZM38.6834 23.455L38.5082 23.3585C38.257 23.8145 37.8832 24.195 37.38 24.4988L37.4834 24.67L37.5868 24.8412C38.1436 24.505 38.5698 24.0755 38.8586 23.5515L38.6834 23.455ZM37.4834 24.67L37.3824 24.4974C36.8876 24.7868 36.3035 24.935 35.6234 24.935V25.135V25.335C36.3633 25.335 37.0192 25.1732 37.5844 24.8426L37.4834 24.67ZM35.6234 25.135V24.935C34.928 24.935 34.2988 24.764 33.7313 24.4235L33.6284 24.595L33.5255 24.7665C34.158 25.146 34.8588 25.335 35.6234 25.335V25.135ZM33.6284 24.595L33.7326 24.4243C33.1755 24.0843 32.7349 23.6072 32.4106 22.9873L32.2334 23.08L32.0562 23.1727C32.4119 23.8528 32.9013 24.3857 33.5242 24.7657L33.6284 24.595ZM32.2334 23.08L32.4106 22.9873C32.0875 22.3695 31.9234 21.662 31.9234 20.86H31.7234H31.5234C31.5234 21.718 31.6993 22.4905 32.0562 23.1727L32.2334 23.08ZM38.6834 20.875H38.8834C38.8834 20.2278 38.7528 19.6538 38.4841 19.1595L38.3084 19.255L38.1327 19.3505C38.364 19.7762 38.4834 20.2822 38.4834 20.875H38.6834ZM38.3084 19.255L38.4841 19.1595C38.2172 18.6684 37.851 18.29 37.3859 18.0304L37.2884 18.205L37.1909 18.3796C37.5858 18.6 37.8996 18.9216 38.1327 19.3505L38.3084 19.255ZM37.2884 18.205L37.3907 18.0331C36.9384 17.7639 36.4378 17.63 35.8934 17.63V17.83V18.03C36.369 18.03 36.7984 18.1461 37.1861 18.3769L37.2884 18.205ZM35.8934 17.83V17.63C35.3506 17.63 34.8511 17.7581 34.3992 18.0164L34.4984 18.19L34.5976 18.3636C34.9857 18.1419 35.4162 18.03 35.8934 18.03V17.83ZM34.4984 18.19L34.3992 18.0164C33.9443 18.2763 33.5839 18.6546 33.3177 19.1445L33.4934 19.24L33.6691 19.3355C33.9029 18.9054 34.2125 18.5837 34.5976 18.3636L34.4984 18.19ZM33.4934 19.24L33.3177 19.1445C33.049 19.6388 32.9184 20.2128 32.9184 20.86H33.1184H33.3184C33.3184 20.2672 33.4378 19.7612 33.6691 19.3355L33.4934 19.24ZM33.1184 20.86H32.9184C32.9184 21.5168 33.0489 22.1001 33.3168 22.6039L33.4934 22.51L33.67 22.4161C33.4379 21.9799 33.3184 21.4632 33.3184 20.86H33.1184ZM33.4934 22.51L33.3177 22.6055C33.5836 23.0948 33.943 23.4772 34.3961 23.7469L34.4984 23.575L34.6007 23.4031C34.2138 23.1728 33.9032 22.8452 33.6691 22.4145L33.4934 22.51ZM34.4984 23.575L34.3992 23.7486C34.8511 24.0069 35.3506 24.135 35.8934 24.135V23.935V23.735C35.4162 23.735 34.9857 23.6231 34.5976 23.4014L34.4984 23.575ZM35.8934 23.935V24.135C36.4362 24.135 36.9357 24.0069 37.3876 23.7486L37.2884 23.575L37.1892 23.4014C36.8011 23.6231 36.3706 23.735 35.8934 23.735V23.935ZM37.2884 23.575L37.3889 23.7479C37.8523 23.4785 38.2176 23.0959 38.4841 22.6055L38.3084 22.51L38.1327 22.4145C37.8992 22.8441 37.5845 23.1715 37.1879 23.4021L37.2884 23.575ZM38.3084 22.51L38.485 22.6039C38.7527 22.1006 38.8834 21.5223 38.8834 20.875H38.6834H38.4834C38.4834 21.4677 38.3641 21.9794 38.1318 22.4161L38.3084 22.51Z" fill="black" mask="url(#path-2-outside-1_37_30)"/>
<path d="M33.3985 6.42869L31.3219 0.139402L29.3392 6.48956L22.6962 6.48664L28.0357 10.3505L25.9956 16.659L31.3499 12.7487L36.6895 16.6126L34.6098 10.3034L40.0217 6.43479L33.3985 6.42869ZM32.3659 7.85564L35.5908 7.85733L32.9354 9.75811L33.9664 12.8887L31.3541 10.9984L28.6936 12.9305L29.7085 9.8076L27.0848 7.90899L30.3807 7.90947L31.356 4.79291L32.3659 7.85564Z" fill="#FFCC00"/>
<path d="M33.3985 6.42869L33.3984 6.52869L33.3035 6.46004L33.3985 6.42869ZM31.3219 0.139402L31.2264 0.109598L31.4169 0.108049L31.3219 0.139402ZM29.3392 6.48956L29.4347 6.51937L29.3392 6.58956L29.3392 6.48956ZM22.6962 6.48664L22.6376 6.56766L22.6962 6.38664L22.6962 6.48664ZM28.0357 10.3505L28.0944 10.2695L28.1309 10.3812L28.0357 10.3505ZM25.9956 16.659L26.0545 16.7398L25.9004 16.6282L25.9956 16.659ZM31.3499 12.7487L31.291 12.668L31.4086 12.6677L31.3499 12.7487ZM36.6895 16.6126L36.7845 16.5812L36.6309 16.6936L36.6895 16.6126ZM34.6098 10.3034L34.5148 10.3347L34.5516 10.2221L34.6098 10.3034ZM40.0217 6.43479L40.0218 6.33479L40.0798 6.51614L40.0217 6.43479ZM32.3659 7.85564L32.3658 7.95564L32.2709 7.88695L32.3659 7.85564ZM35.5908 7.85733L35.5909 7.75733L35.649 7.93864L35.5908 7.85733ZM32.9354 9.75811L32.8404 9.78939L32.8772 9.6768L32.9354 9.75811ZM33.9664 12.8887L34.0613 12.8574L33.9077 12.9697L33.9664 12.8887ZM31.3541 10.9984L31.2954 10.9175L31.4127 10.9174L31.3541 10.9984ZM28.6936 12.9305L28.7523 13.0114L28.5985 12.8996L28.6936 12.9305ZM29.7085 9.8076L29.7671 9.72658L29.8036 9.83851L29.7085 9.8076ZM27.0848 7.90899L27.0261 7.99L27.0848 7.80899L27.0848 7.90899ZM30.3807 7.90947L30.4762 7.93933L30.3807 8.00947L30.3807 7.90947ZM31.356 4.79291L31.2606 4.76304L31.451 4.76159L31.356 4.79291ZM33.3985 6.42869L33.3035 6.46004L31.2269 0.170754L31.3219 0.139402L31.4169 0.108049L33.4934 6.39733L33.3985 6.42869ZM31.3219 0.139402L31.4173 0.169205L29.4347 6.51937L29.3392 6.48956L29.2438 6.45976L31.2264 0.109598L31.3219 0.139402ZM29.3392 6.48956L29.3392 6.58956L22.6961 6.58664L22.6962 6.48664L22.6962 6.38664L29.3393 6.38956L29.3392 6.48956ZM22.6962 6.48664L22.7548 6.40563L28.0944 10.2695L28.0357 10.3505L27.9771 10.4315L22.6376 6.56766L22.6962 6.48664ZM28.0357 10.3505L28.1309 10.3812L26.0907 16.6898L25.9956 16.659L25.9004 16.6282L27.9406 10.3197L28.0357 10.3505ZM25.9956 16.659L25.9366 16.5782L31.291 12.668L31.3499 12.7487L31.4089 12.8295L26.0545 16.7398L25.9956 16.659ZM31.3499 12.7487L31.4086 12.6677L36.7481 16.5315L36.6895 16.6126L36.6309 16.6936L31.2913 12.8297L31.3499 12.7487ZM36.6895 16.6126L36.5945 16.6439L34.5148 10.3347L34.6098 10.3034L34.7047 10.2721L36.7845 16.5812L36.6895 16.6126ZM34.6098 10.3034L34.5516 10.2221L39.9635 6.35343L40.0217 6.43479L40.0798 6.51614L34.6679 10.3848L34.6098 10.3034ZM40.0217 6.43479L40.0216 6.53479L33.3984 6.52869L33.3985 6.42869L33.3986 6.32869L40.0218 6.33479L40.0217 6.43479ZM32.3659 7.85564L32.3659 7.75564L35.5909 7.75733L35.5908 7.85733L35.5908 7.95733L32.3658 7.95564L32.3659 7.85564ZM35.5908 7.85733L35.649 7.93864L32.9936 9.83943L32.9354 9.75811L32.8772 9.6768L35.5326 7.77601L35.5908 7.85733ZM32.9354 9.75811L33.0304 9.72683L34.0613 12.8574L33.9664 12.8887L33.8714 12.92L32.8404 9.78939L32.9354 9.75811ZM33.9664 12.8887L33.9077 12.9697L31.2955 11.0794L31.3541 10.9984L31.4127 10.9174L34.025 12.8077L33.9664 12.8887ZM31.3541 10.9984L31.4129 11.0793L28.7523 13.0114L28.6936 12.9305L28.6348 12.8496L31.2954 10.9175L31.3541 10.9984ZM28.6936 12.9305L28.5985 12.8996L29.6134 9.77669L29.7085 9.8076L29.8036 9.83851L28.7887 12.9614L28.6936 12.9305ZM29.7085 9.8076L29.6499 9.88861L27.0261 7.99L27.0848 7.90899L27.1434 7.82798L29.7671 9.72658L29.7085 9.8076ZM27.0848 7.90899L27.0848 7.80899L30.3807 7.80947L30.3807 7.90947L30.3807 8.00947L27.0848 8.00899L27.0848 7.90899ZM30.3807 7.90947L30.2853 7.8796L31.2606 4.76304L31.356 4.79291L31.4514 4.82277L30.4762 7.93933L30.3807 7.90947ZM31.356 4.79291L31.451 4.76159L32.4609 7.82432L32.3659 7.85564L32.2709 7.88695L31.261 4.82422L31.356 4.79291Z" fill="#FFCC00"/>
</svg>
