<svg width="55" height="14" viewBox="0 0 55 14" fill="none" xmlns="http://www.w3.org/2000/svg">
<mask id="path-1-outside-1_1_2" maskUnits="userSpaceOnUse" x="0" y="0" width="55" height="14" fill="black">
<rect fill="white" width="55" height="14"/>
<path d="M0.778 12.998C0.686 12.998 0.64 12.948 0.64 12.848V11.912C0.64 11.84 0.67 11.796 0.73 11.78L1.21 11.612L1.54 11.24C1.576 11.204 1.598 11.172 1.606 11.144C1.614 11.116 1.618 11.082 1.618 11.042V4.55C1.618 4.45 1.668 4.4 1.768 4.4H3.37C3.47 4.4 3.52 4.45 3.52 4.55V11.45C3.52 11.55 3.486 11.636 3.418 11.708L2.71 12.482L1.948 12.908C1.848 12.968 1.748 12.998 1.648 12.998H0.778ZM1.738 3.902C1.658 3.902 1.618 3.862 1.618 3.782V3.02C1.618 2.94 1.658 2.9 1.738 2.9H3.406C3.478 2.9 3.514 2.94 3.514 3.02V3.782C3.514 3.862 3.478 3.902 3.406 3.902H1.738ZM6.46122 11C6.36522 11 6.28522 10.966 6.22122 10.898L5.02122 9.698C4.95322 9.634 4.91922 9.554 4.91922 9.458V4.55C4.91922 4.45 4.96922 4.4 5.06922 4.4H6.67122C6.77122 4.4 6.82122 4.45 6.82122 4.55V9.218C6.82122 9.406 6.91322 9.5 7.09722 9.5H7.91922V4.55C7.91922 4.45 7.96922 4.4 8.06922 4.4H9.67122C9.77122 4.4 9.82122 4.45 9.82122 4.55V10.85C9.82122 10.95 9.77122 11 9.67122 11H6.46122ZM11.1879 11C11.0879 11 11.0379 10.95 11.0379 10.85V9.878C11.0379 9.786 11.0679 9.726 11.1279 9.698L12.3519 8.972V8.348L11.1279 7.688C11.0679 7.652 11.0379 7.59 11.0379 7.502V5.588C11.0379 5.544 11.0439 5.508 11.0559 5.48C11.0719 5.452 11.0939 5.428 11.1219 5.408L12.3999 4.472C12.4439 4.44 12.4799 4.42 12.5079 4.412C12.5359 4.404 12.5639 4.4 12.5919 4.4H14.0499C14.1499 4.4 14.1999 4.45 14.1999 4.55V5.492C14.1999 5.56 14.1939 5.606 14.1819 5.63C14.1739 5.654 14.1539 5.674 14.1219 5.69L12.9879 6.302V6.998L14.1999 7.598C14.2679 7.626 14.3019 7.686 14.3019 7.778V9.62C14.3019 9.72 14.2679 9.8 14.1999 9.86L12.9219 10.922C12.8579 10.974 12.7779 11 12.6819 11H11.1879ZM16.9398 11C16.8478 11 16.7678 10.966 16.6998 10.898L15.6978 9.902C15.6338 9.834 15.6018 9.754 15.6018 9.662V5.798H15.3498C15.2498 5.798 15.1998 5.748 15.1998 5.648V4.55C15.1998 4.45 15.2498 4.4 15.3498 4.4H15.6018V3.65C15.6018 3.55 15.6518 3.5 15.7518 3.5H17.3478C17.4478 3.5 17.4978 3.55 17.4978 3.65V4.4H18.0798C18.1798 4.4 18.2298 4.45 18.2298 4.55V5.648C18.2298 5.748 18.1798 5.798 18.0798 5.798H17.4978V9.002C17.4978 9.078 17.5218 9.14 17.5698 9.188L18.1578 9.782C18.1978 9.818 18.2178 9.878 18.2178 9.962V10.85C18.2178 10.95 18.1678 11 18.0678 11H16.9398Z"/>
<path d="M19.6773 11C19.5523 11 19.4898 10.9375 19.4898 10.8125V1.19C19.4898 1.065 19.5523 1.0025 19.6773 1.0025H23.7423C23.8623 1.0025 23.9623 1.035 24.0423 1.1L25.7673 2.81C25.8223 2.86 25.8548 2.9025 25.8648 2.9375C25.8798 2.9725 25.8873 3.03 25.8873 3.11V5.165C25.8873 5.23 25.8623 5.2875 25.8123 5.3375L24.9873 6.14L24.2898 6.74L25.1148 7.835L25.9623 9.65C25.9823 9.695 25.9973 9.74 26.0073 9.785C26.0223 9.825 26.0298 9.875 26.0298 9.935V10.8125C26.0298 10.9375 25.9673 11 25.8423 11H23.8623C23.7523 11 23.6773 10.95 23.6373 10.85L22.4298 7.34H21.8673V10.8125C21.8673 10.9375 21.8048 11 21.6798 11H19.6773ZM22.6923 5.5025C23.1073 5.5025 23.3898 5.4175 23.5398 5.2475C23.6898 5.0725 23.7648 4.7475 23.7648 4.2725C23.7648 3.7925 23.6898 3.4675 23.5398 3.2975C23.3898 3.1225 23.1073 3.035 22.6923 3.035C22.2823 3.035 21.9998 3.1225 21.8448 3.2975C21.6898 3.4675 21.6123 3.7925 21.6123 4.2725C21.6123 4.7475 21.6898 5.0725 21.8448 5.2475C21.9998 5.4175 22.2823 5.5025 22.6923 5.5025ZM29.0992 11C28.9842 11 28.8842 10.9575 28.7992 10.8725L27.2992 9.3725C27.2142 9.2925 27.1717 9.1925 27.1717 9.0725V4.6775C27.1717 4.5575 27.2142 4.4575 27.2992 4.3775L28.7992 2.8775C28.8842 2.7925 28.9842 2.75 29.0992 2.75H33.1117C33.2367 2.75 33.2992 2.8125 33.2992 2.9375V10.8125C33.2992 10.9375 33.2367 11 33.1117 11H31.5517C31.4867 11 31.4367 10.9875 31.4017 10.9625C31.3717 10.9375 31.3367 10.9075 31.2967 10.8725L30.9217 10.4975L30.5467 10.8725C30.4667 10.9575 30.3667 11 30.2467 11H29.0992ZM29.9767 9.2525H30.5017C30.6617 9.2525 30.7717 9.22 30.8317 9.155C30.8917 9.09 30.9217 8.975 30.9217 8.81V4.4975H29.9767C29.8117 4.4975 29.6992 4.53 29.6392 4.595C29.5792 4.66 29.5492 4.775 29.5492 4.94V8.81C29.5492 8.975 29.5792 9.09 29.6392 9.155C29.6992 9.22 29.8117 9.2525 29.9767 9.2525ZM36.7715 11C36.6565 11 36.5565 10.9575 36.4715 10.8725L35.219 9.6275C35.139 9.5425 35.099 9.4425 35.099 9.3275V4.4975H34.784C34.659 4.4975 34.5965 4.435 34.5965 4.31V2.9375C34.5965 2.8125 34.659 2.75 34.784 2.75H35.099V1.8125C35.099 1.6875 35.1615 1.625 35.2865 1.625H37.2815C37.4065 1.625 37.469 1.6875 37.469 1.8125V2.75H38.1965C38.3215 2.75 38.384 2.8125 38.384 2.9375V4.31C38.384 4.435 38.3215 4.4975 38.1965 4.4975H37.469V8.5025C37.469 8.5975 37.499 8.675 37.559 8.735L38.294 9.4775C38.344 9.5225 38.369 9.5975 38.369 9.7025V10.8125C38.369 10.9375 38.3065 11 38.1815 11H36.7715ZM43.094 11C43.044 11 42.989 10.9925 42.929 10.9775C42.874 10.9625 42.8215 10.95 42.7715 10.94L41.4365 10.61L39.9065 10.1C39.7565 10.05 39.6815 9.905 39.6815 9.665V4.6775C39.6815 4.5575 39.724 4.4575 39.809 4.3775L41.309 2.8775C41.394 2.7925 41.494 2.75 41.609 2.75H44.009C44.124 2.75 44.224 2.7925 44.309 2.8775L45.809 4.3775C45.894 4.4575 45.9365 4.5575 45.9365 4.6775V7.7525H41.909L41.8565 8.75L42.9215 9.1025L44.834 9.2375C44.919 9.2525 44.9615 9.31 44.9615 9.41V10.8125C44.9615 10.9375 44.899 11 44.774 11H43.094ZM42.794 6.575H42.9365C43.1815 6.575 43.3765 6.4825 43.5215 6.2975C43.6715 6.1125 43.7465 5.8625 43.7465 5.5475V5.3975C43.7465 5.0875 43.6715 4.84 43.5215 4.655C43.3765 4.47 43.1815 4.3775 42.9365 4.3775H42.7865C42.5465 4.3775 42.354 4.47 42.209 4.655C42.069 4.84 41.999 5.0875 41.999 5.3975V5.5475C41.999 5.8625 42.069 6.1125 42.209 6.2975C42.354 6.4825 42.549 6.575 42.794 6.575ZM49.3727 11C49.2577 11 49.1577 10.9575 49.0727 10.8725L47.5727 9.3725C47.4877 9.2925 47.4452 9.1925 47.4452 9.0725V4.6775C47.4452 4.5575 47.4877 4.4575 47.5727 4.3775L49.0727 2.8775C49.1577 2.7925 49.2577 2.75 49.3727 2.75H50.5202C50.6402 2.75 50.7402 2.7925 50.8202 2.8775L51.1952 3.2525V1.19C51.1952 1.065 51.2577 1.0025 51.3827 1.0025H53.3852C53.5102 1.0025 53.5727 1.065 53.5727 1.19V10.8125C53.5727 10.9375 53.5102 11 53.3852 11H51.8252C51.7602 11 51.7102 10.9875 51.6752 10.9625C51.6452 10.9375 51.6102 10.9075 51.5702 10.8725L51.1952 10.4975L50.8202 10.8725C50.7402 10.9575 50.6402 11 50.5202 11H49.3727ZM50.2502 9.2525H50.7752C50.9352 9.2525 51.0452 9.22 51.1052 9.155C51.1652 9.09 51.1952 8.975 51.1952 8.81V4.4975H50.2502C50.0852 4.4975 49.9727 4.53 49.9127 4.595C49.8527 4.66 49.8227 4.775 49.8227 4.94V8.81C49.8227 8.975 49.8527 9.09 49.9127 9.155C49.9727 9.22 50.0852 9.2525 50.2502 9.2525Z"/>
</mask>
<path d="M0.778 12.998C0.686 12.998 0.64 12.948 0.64 12.848V11.912C0.64 11.84 0.67 11.796 0.73 11.78L1.21 11.612L1.54 11.24C1.576 11.204 1.598 11.172 1.606 11.144C1.614 11.116 1.618 11.082 1.618 11.042V4.55C1.618 4.45 1.668 4.4 1.768 4.4H3.37C3.47 4.4 3.52 4.45 3.52 4.55V11.45C3.52 11.55 3.486 11.636 3.418 11.708L2.71 12.482L1.948 12.908C1.848 12.968 1.748 12.998 1.648 12.998H0.778ZM1.738 3.902C1.658 3.902 1.618 3.862 1.618 3.782V3.02C1.618 2.94 1.658 2.9 1.738 2.9H3.406C3.478 2.9 3.514 2.94 3.514 3.02V3.782C3.514 3.862 3.478 3.902 3.406 3.902H1.738ZM6.46122 11C6.36522 11 6.28522 10.966 6.22122 10.898L5.02122 9.698C4.95322 9.634 4.91922 9.554 4.91922 9.458V4.55C4.91922 4.45 4.96922 4.4 5.06922 4.4H6.67122C6.77122 4.4 6.82122 4.45 6.82122 4.55V9.218C6.82122 9.406 6.91322 9.5 7.09722 9.5H7.91922V4.55C7.91922 4.45 7.96922 4.4 8.06922 4.4H9.67122C9.77122 4.4 9.82122 4.45 9.82122 4.55V10.85C9.82122 10.95 9.77122 11 9.67122 11H6.46122ZM11.1879 11C11.0879 11 11.0379 10.95 11.0379 10.85V9.878C11.0379 9.786 11.0679 9.726 11.1279 9.698L12.3519 8.972V8.348L11.1279 7.688C11.0679 7.652 11.0379 7.59 11.0379 7.502V5.588C11.0379 5.544 11.0439 5.508 11.0559 5.48C11.0719 5.452 11.0939 5.428 11.1219 5.408L12.3999 4.472C12.4439 4.44 12.4799 4.42 12.5079 4.412C12.5359 4.404 12.5639 4.4 12.5919 4.4H14.0499C14.1499 4.4 14.1999 4.45 14.1999 4.55V5.492C14.1999 5.56 14.1939 5.606 14.1819 5.63C14.1739 5.654 14.1539 5.674 14.1219 5.69L12.9879 6.302V6.998L14.1999 7.598C14.2679 7.626 14.3019 7.686 14.3019 7.778V9.62C14.3019 9.72 14.2679 9.8 14.1999 9.86L12.9219 10.922C12.8579 10.974 12.7779 11 12.6819 11H11.1879ZM16.9398 11C16.8478 11 16.7678 10.966 16.6998 10.898L15.6978 9.902C15.6338 9.834 15.6018 9.754 15.6018 9.662V5.798H15.3498C15.2498 5.798 15.1998 5.748 15.1998 5.648V4.55C15.1998 4.45 15.2498 4.4 15.3498 4.4H15.6018V3.65C15.6018 3.55 15.6518 3.5 15.7518 3.5H17.3478C17.4478 3.5 17.4978 3.55 17.4978 3.65V4.4H18.0798C18.1798 4.4 18.2298 4.45 18.2298 4.55V5.648C18.2298 5.748 18.1798 5.798 18.0798 5.798H17.4978V9.002C17.4978 9.078 17.5218 9.14 17.5698 9.188L18.1578 9.782C18.1978 9.818 18.2178 9.878 18.2178 9.962V10.85C18.2178 10.95 18.1678 11 18.0678 11H16.9398Z" fill="#E8E8E8"/>
<path d="M19.6773 11C19.5523 11 19.4898 10.9375 19.4898 10.8125V1.19C19.4898 1.065 19.5523 1.0025 19.6773 1.0025H23.7423C23.8623 1.0025 23.9623 1.035 24.0423 1.1L25.7673 2.81C25.8223 2.86 25.8548 2.9025 25.8648 2.9375C25.8798 2.9725 25.8873 3.03 25.8873 3.11V5.165C25.8873 5.23 25.8623 5.2875 25.8123 5.3375L24.9873 6.14L24.2898 6.74L25.1148 7.835L25.9623 9.65C25.9823 9.695 25.9973 9.74 26.0073 9.785C26.0223 9.825 26.0298 9.875 26.0298 9.935V10.8125C26.0298 10.9375 25.9673 11 25.8423 11H23.8623C23.7523 11 23.6773 10.95 23.6373 10.85L22.4298 7.34H21.8673V10.8125C21.8673 10.9375 21.8048 11 21.6798 11H19.6773ZM22.6923 5.5025C23.1073 5.5025 23.3898 5.4175 23.5398 5.2475C23.6898 5.0725 23.7648 4.7475 23.7648 4.2725C23.7648 3.7925 23.6898 3.4675 23.5398 3.2975C23.3898 3.1225 23.1073 3.035 22.6923 3.035C22.2823 3.035 21.9998 3.1225 21.8448 3.2975C21.6898 3.4675 21.6123 3.7925 21.6123 4.2725C21.6123 4.7475 21.6898 5.0725 21.8448 5.2475C21.9998 5.4175 22.2823 5.5025 22.6923 5.5025ZM29.0992 11C28.9842 11 28.8842 10.9575 28.7992 10.8725L27.2992 9.3725C27.2142 9.2925 27.1717 9.1925 27.1717 9.0725V4.6775C27.1717 4.5575 27.2142 4.4575 27.2992 4.3775L28.7992 2.8775C28.8842 2.7925 28.9842 2.75 29.0992 2.75H33.1117C33.2367 2.75 33.2992 2.8125 33.2992 2.9375V10.8125C33.2992 10.9375 33.2367 11 33.1117 11H31.5517C31.4867 11 31.4367 10.9875 31.4017 10.9625C31.3717 10.9375 31.3367 10.9075 31.2967 10.8725L30.9217 10.4975L30.5467 10.8725C30.4667 10.9575 30.3667 11 30.2467 11H29.0992ZM29.9767 9.2525H30.5017C30.6617 9.2525 30.7717 9.22 30.8317 9.155C30.8917 9.09 30.9217 8.975 30.9217 8.81V4.4975H29.9767C29.8117 4.4975 29.6992 4.53 29.6392 4.595C29.5792 4.66 29.5492 4.775 29.5492 4.94V8.81C29.5492 8.975 29.5792 9.09 29.6392 9.155C29.6992 9.22 29.8117 9.2525 29.9767 9.2525ZM36.7715 11C36.6565 11 36.5565 10.9575 36.4715 10.8725L35.219 9.6275C35.139 9.5425 35.099 9.4425 35.099 9.3275V4.4975H34.784C34.659 4.4975 34.5965 4.435 34.5965 4.31V2.9375C34.5965 2.8125 34.659 2.75 34.784 2.75H35.099V1.8125C35.099 1.6875 35.1615 1.625 35.2865 1.625H37.2815C37.4065 1.625 37.469 1.6875 37.469 1.8125V2.75H38.1965C38.3215 2.75 38.384 2.8125 38.384 2.9375V4.31C38.384 4.435 38.3215 4.4975 38.1965 4.4975H37.469V8.5025C37.469 8.5975 37.499 8.675 37.559 8.735L38.294 9.4775C38.344 9.5225 38.369 9.5975 38.369 9.7025V10.8125C38.369 10.9375 38.3065 11 38.1815 11H36.7715ZM43.094 11C43.044 11 42.989 10.9925 42.929 10.9775C42.874 10.9625 42.8215 10.95 42.7715 10.94L41.4365 10.61L39.9065 10.1C39.7565 10.05 39.6815 9.905 39.6815 9.665V4.6775C39.6815 4.5575 39.724 4.4575 39.809 4.3775L41.309 2.8775C41.394 2.7925 41.494 2.75 41.609 2.75H44.009C44.124 2.75 44.224 2.7925 44.309 2.8775L45.809 4.3775C45.894 4.4575 45.9365 4.5575 45.9365 4.6775V7.7525H41.909L41.8565 8.75L42.9215 9.1025L44.834 9.2375C44.919 9.2525 44.9615 9.31 44.9615 9.41V10.8125C44.9615 10.9375 44.899 11 44.774 11H43.094ZM42.794 6.575H42.9365C43.1815 6.575 43.3765 6.4825 43.5215 6.2975C43.6715 6.1125 43.7465 5.8625 43.7465 5.5475V5.3975C43.7465 5.0875 43.6715 4.84 43.5215 4.655C43.3765 4.47 43.1815 4.3775 42.9365 4.3775H42.7865C42.5465 4.3775 42.354 4.47 42.209 4.655C42.069 4.84 41.999 5.0875 41.999 5.3975V5.5475C41.999 5.8625 42.069 6.1125 42.209 6.2975C42.354 6.4825 42.549 6.575 42.794 6.575ZM49.3727 11C49.2577 11 49.1577 10.9575 49.0727 10.8725L47.5727 9.3725C47.4877 9.2925 47.4452 9.1925 47.4452 9.0725V4.6775C47.4452 4.5575 47.4877 4.4575 47.5727 4.3775L49.0727 2.8775C49.1577 2.7925 49.2577 2.75 49.3727 2.75H50.5202C50.6402 2.75 50.7402 2.7925 50.8202 2.8775L51.1952 3.2525V1.19C51.1952 1.065 51.2577 1.0025 51.3827 1.0025H53.3852C53.5102 1.0025 53.5727 1.065 53.5727 1.19V10.8125C53.5727 10.9375 53.5102 11 53.3852 11H51.8252C51.7602 11 51.7102 10.9875 51.6752 10.9625C51.6452 10.9375 51.6102 10.9075 51.5702 10.8725L51.1952 10.4975L50.8202 10.8725C50.7402 10.9575 50.6402 11 50.5202 11H49.3727ZM50.2502 9.2525H50.7752C50.9352 9.2525 51.0452 9.22 51.1052 9.155C51.1652 9.09 51.1952 8.975 51.1952 8.81V4.4975H50.2502C50.0852 4.4975 49.9727 4.53 49.9127 4.595C49.8527 4.66 49.8227 4.775 49.8227 4.94V8.81C49.8227 8.975 49.8527 9.09 49.9127 9.155C49.9727 9.22 50.0852 9.2525 50.2502 9.2525Z" fill="#FFAA00"/>
<path d="M0.778 12.998C0.693136 12.9972 0.648221 12.9206 0.661567 12.848C0.687064 12.5685 0.711541 12.289 0.735 12.0095C0.737729 11.977 0.740445 11.9445 0.743146 11.912C0.753839 11.8694 0.747782 11.8974 0.760271 11.8935C0.933379 11.8479 1.09782 11.8046 1.26214 11.761L1.28993 11.7536L1.32808 11.7167C1.44764 11.6012 1.56694 11.4855 1.68597 11.3695L1.67798 11.378C1.71652 11.3397 1.76294 11.3072 1.8018 11.1999C1.8214 11.1386 1.82623 11.0885 1.82899 11.042C1.98243 8.878 2.07477 6.714 2.10602 4.55C2.10473 4.56823 2.11208 4.66664 2.00178 4.78378C1.88544 4.89491 1.78666 4.88894 1.768 4.89127C2.2402 4.89709 2.7124 4.9 3.18461 4.9C3.2464 4.9 3.3082 4.89995 3.37 4.89985C3.35033 4.8979 3.24883 4.90439 3.12924 4.79076C3.01577 4.67101 3.02254 4.56958 3.0208 4.55C3.02938 6.85 3.10697 9.15 3.25359 11.45C3.25807 11.488 3.25994 11.5028 3.23776 11.5378C3.01615 11.8143 2.79841 12.089 2.58185 12.3648L2.62525 12.3304C2.38195 12.4915 2.13919 12.6536 1.89697 12.8167C1.8673 12.8382 1.83938 12.8558 1.81039 12.8707C1.75936 12.897 1.70495 12.9144 1.648 12.9202C1.358 12.945 1.068 12.971 0.778 12.998C1.068 13.025 1.358 13.051 1.648 13.0758C1.72599 13.0818 1.80586 13.0708 1.88011 13.0475C1.92237 13.0342 1.96299 13.0173 2.00181 12.9977C2.26481 12.8784 2.53005 12.7565 2.79475 12.6336L2.83815 12.5992C3.09359 12.359 3.34785 12.1177 3.60093 11.8753C3.70851 11.7767 3.78447 11.602 3.78641 11.45C3.93303 9.15 4.01062 6.85 4.0192 4.55C4.01755 4.4502 4.00783 4.2623 3.83576 4.08424C3.65786 3.91201 3.46988 3.902 3.37 3.90015C3.3082 3.90005 3.2464 3.9 3.18461 3.9C2.7124 3.9 2.2402 3.90291 1.768 3.90873C1.66913 3.91096 1.48387 3.92149 1.30922 4.09122C1.14032 4.26667 1.13118 4.45155 1.12998 4.55C1.16123 6.714 1.25357 8.878 1.40701 11.042C1.40963 11.0641 1.40929 11.0832 1.4102 11.0881C1.42575 11.0564 1.41801 11.0847 1.40202 11.102L1.39403 11.1105C1.29306 11.2425 1.19236 11.3748 1.09192 11.5073L1.15786 11.463C1.00218 11.5314 0.846621 11.6001 0.691189 11.6691C0.592959 11.6859 0.519674 11.8397 0.536854 11.912C0.539555 11.9445 0.542271 11.977 0.545 12.0095C0.568459 12.289 0.592936 12.5685 0.618433 12.848C0.6154 12.9328 0.697439 13.0176 0.778 12.998ZM1.738 4.402C1.738 4.06867 1.738 3.73533 1.738 3.402C1.76571 3.40388 1.87592 3.39892 2.00155 3.51845C2.12108 3.64407 2.11612 3.75429 2.118 3.782C2.118 3.75326 2.118 3.72452 2.118 3.69578C2.118 3.47052 2.118 3.24526 2.118 3.02C2.11612 3.04771 2.12108 3.15793 2.00155 3.28355C1.87592 3.40308 1.76571 3.39812 1.738 3.4C2.294 3.4 2.85 3.4 3.406 3.4C3.36921 3.40205 3.21423 3.38604 3.10364 3.25089C3.00364 3.11957 3.01757 3.04333 3.014 3.02C3.014 3.274 3.014 3.528 3.014 3.782C3.01757 3.75867 3.00364 3.68243 3.10364 3.55111C3.21423 3.41596 3.36921 3.39994 3.406 3.402C2.94366 3.402 2.48133 3.402 2.01899 3.402C1.92533 3.402 1.83166 3.402 1.738 3.402C1.738 3.73533 1.738 4.06867 1.738 4.402C1.83166 4.402 1.92533 4.402 2.01899 4.402C2.48133 4.402 2.94366 4.402 3.406 4.402C3.50375 4.40455 3.72482 4.37188 3.87495 4.18757C4.01459 4.00774 4.01024 3.86644 4.014 3.782C4.014 3.528 4.014 3.274 4.014 3.02C4.01024 2.93556 4.01459 2.79426 3.87495 2.61443C3.72482 2.43012 3.50375 2.39745 3.406 2.4C2.85 2.4 2.294 2.4 1.738 2.4C1.64612 2.4018 1.46672 2.41004 1.29445 2.57645C1.12804 2.74872 1.1198 2.92812 1.118 3.02C1.118 3.24526 1.118 3.47052 1.118 3.69578C1.118 3.72452 1.118 3.75326 1.118 3.782C1.1198 3.87388 1.12804 4.05328 1.29445 4.22555C1.46672 4.39196 1.64612 4.40019 1.738 4.402ZM1.738 3.402V4.402V3.402ZM6.46122 11C6.3712 10.9957 6.28693 10.9537 6.23336 10.8866C5.93888 10.5535 5.64394 10.2217 5.34818 9.89061C5.26646 9.79914 5.18468 9.70773 5.10284 9.61638C5.05843 9.56729 5.04476 9.51931 5.04924 9.458C5.13729 7.822 5.20962 6.186 5.26624 4.55C5.26625 4.55135 5.27513 4.60935 5.20506 4.68584C5.13061 4.75801 5.07164 4.75268 5.06922 4.75533C5.60322 4.7733 6.13722 4.7896 6.67122 4.80422C6.66302 4.80374 6.58861 4.81206 6.49555 4.72566C6.4075 4.63422 6.41302 4.55905 6.41045 4.55C6.36932 6.106 6.34241 7.662 6.32972 9.218C6.33147 9.35012 6.34386 9.56513 6.53343 9.7701C6.73026 9.9713 6.96211 9.99332 7.09722 9.99479C7.37122 9.99654 7.64522 9.99785 7.91922 9.99872L8.41635 10.0003L8.41794 9.5C8.41879 9.2303 8.41922 8.96059 8.41922 8.69089C8.41922 7.31059 8.40803 5.9303 8.38566 4.55C8.38327 4.56569 8.38914 4.6572 8.28513 4.76591C8.17542 4.86889 8.08438 4.86129 8.06922 4.86238C8.60322 4.85321 9.13722 4.84237 9.67122 4.82986C9.65989 4.82733 9.57913 4.83294 9.4818 4.73942C9.38975 4.64066 9.39785 4.56057 9.39718 4.55C9.44839 6.65 9.5255 8.75 9.62849 10.85C9.60492 10.8885 9.71538 10.7872 9.67122 10.8193C9.13399 10.8462 8.59677 10.8747 8.05955 10.905C7.52677 10.935 6.99399 10.9667 6.46122 11C6.99399 11.0333 7.52677 11.065 8.05955 11.095C8.59677 11.1253 9.13399 11.1538 9.67122 11.1807C9.73287 11.182 9.82949 11.1757 9.91575 11.0945C9.99997 11.0112 10.0114 10.9132 10.0139 10.85C10.1169 8.75 10.194 6.65 10.2453 4.55C10.2447 4.45921 10.2363 4.29265 10.0856 4.13558C9.93 3.98346 9.76276 3.97258 9.67122 3.97014C9.13722 3.95763 8.60322 3.94679 8.06922 3.93762C7.97384 3.93862 7.79632 3.94751 7.62831 4.10909C7.4657 4.2761 7.45507 4.45409 7.45278 4.55C7.43041 5.9303 7.41922 7.31059 7.41922 8.69089C7.41922 8.96059 7.41965 9.2303 7.4205 9.5L7.91922 9.00128C7.64522 9.00215 7.37122 9.00346 7.09722 9.00521C7.08316 9.00703 7.1539 8.99657 7.24456 9.08638C7.32756 9.18066 7.31096 9.23513 7.31272 9.218C7.30003 7.662 7.27312 6.106 7.23199 4.55C7.22951 4.46074 7.21854 4.29909 7.07188 4.14934C6.92052 4.00434 6.75963 3.99617 6.67122 3.99578C6.13722 4.0104 5.60322 4.0267 5.06922 4.04467C4.98658 4.04722 4.84114 4.05839 4.70838 4.18916C4.57971 4.32396 4.5721 4.46844 4.5722 4.55C4.62881 6.186 4.70115 7.822 4.78919 9.458C4.79073 9.576 4.85094 9.70769 4.94211 9.78205C5.03095 9.86146 5.12236 9.94324 5.21383 10.025C5.54488 10.3207 5.87675 10.6157 6.20943 10.9098C6.27653 10.9754 6.37193 11.0072 6.46122 11ZM11.1879 11C11.1011 10.9988 11.0458 10.926 11.0609 10.85C11.0859 10.5819 11.1099 10.3139 11.1329 10.0458C11.1377 9.98988 11.1425 9.93394 11.1472 9.878C11.1535 9.81969 11.174 9.8084 11.1817 9.81317L11.1927 9.80731C11.6207 9.59895 12.0471 9.38793 12.4719 9.17428L12.5767 9.12156L12.5871 8.972C12.6015 8.764 12.6154 8.556 12.6287 8.348L12.638 8.20106L12.4833 8.1044C12.0893 7.85838 11.6939 7.61494 11.2972 7.37409L11.3114 7.38218C11.3809 7.41235 11.4085 7.51837 11.4054 7.502C11.4368 6.864 11.4626 6.226 11.4828 5.588C11.4826 5.58553 11.4907 5.59542 11.468 5.6566L11.4451 5.70242C11.4288 5.73385 11.4026 5.76137 11.3842 5.77522C11.8239 5.47277 12.2569 5.17039 12.6877 4.86493C12.696 4.85605 12.7294 4.85086 12.6422 4.88208C12.6294 4.88624 12.6109 4.88975 12.5919 4.89006C13.0779 4.8966 13.5639 4.89991 14.0499 4.9C14.0457 4.9 14.0405 4.89987 14.0341 4.89943C14.0042 4.89822 13.8821 4.88049 13.7854 4.76537C13.6948 4.65079 13.7022 4.57037 13.7001 4.55C13.7008 4.864 13.7028 5.178 13.7061 5.492C13.7156 5.50194 13.6743 5.59238 13.7417 5.40987L13.7149 5.47434C13.7743 5.31102 13.8761 5.26544 13.9023 5.2507L13.8886 5.25778C13.5132 5.46658 13.139 5.6776 12.766 5.89084L12.5278 6.01199L12.5207 6.302C12.5264 6.534 12.5328 6.766 12.5399 6.998L12.5318 7.26207L12.7891 7.3995C13.1993 7.58706 13.6107 7.77214 14.0233 7.95472L14.0484 7.96606C13.9477 7.93611 13.896 7.75848 13.9136 7.778C13.9413 8.392 13.9742 9.006 14.0122 9.62C14.0148 9.6537 14.0241 9.63984 14.0195 9.6555C13.6224 10.0317 13.2218 10.4163 12.824 10.8042C12.7942 10.8375 12.7473 10.8606 12.6819 10.8676C12.5331 10.8797 12.3843 10.8922 12.2356 10.905C11.8863 10.935 11.5371 10.9667 11.1879 11C11.5371 11.0333 11.8863 11.065 12.2356 11.095C12.3843 11.1078 12.5331 11.1203 12.6819 11.1324C12.7875 11.1406 12.9164 11.1167 13.0185 11.0409C13.474 10.7197 13.9254 10.3963 14.3742 10.0698C14.5139 9.96286 14.5919 9.76537 14.5916 9.62C14.6296 9.006 14.6625 8.392 14.6902 7.778C14.6911 7.70366 14.6857 7.60779 14.6308 7.49313C14.5785 7.37768 14.4559 7.27071 14.3515 7.22994L14.3765 7.24128C13.9811 7.02386 13.5845 6.80894 13.1867 6.5965L13.4359 6.998C13.4431 6.766 13.4495 6.534 13.4551 6.302L13.2098 6.71316C13.5928 6.5184 13.9746 6.32142 14.3552 6.12222L14.3416 6.1293C14.419 6.089 14.571 6.00516 14.6489 5.78566L14.6222 5.85013C14.726 5.5809 14.6825 5.57481 14.6937 5.492C14.697 5.178 14.699 4.864 14.6997 4.55C14.6976 4.45547 14.6914 4.2963 14.5521 4.12351C14.4071 3.94957 14.2072 3.90775 14.1033 3.90183C14.0845 3.90053 14.0668 3.9 14.0499 3.9C13.5639 3.90008 13.0779 3.9034 12.5919 3.90994C12.5161 3.91021 12.441 3.92214 12.3736 3.94192C12.207 3.99759 12.171 4.04002 12.1134 4.07811C11.6909 4.39761 11.272 4.71923 10.8553 5.04392C10.7878 5.09264 10.7155 5.16902 10.6667 5.25758L10.6438 5.3034C10.5924 5.43256 10.5935 5.51727 10.593 5.588C10.6133 6.226 10.639 6.864 10.6704 7.502C10.6643 7.62814 10.7451 7.89081 10.9444 7.99381L10.9586 8.00191C11.3779 8.20106 11.7985 8.39762 12.2206 8.5916L12.0752 8.348C12.0884 8.556 12.1023 8.764 12.1167 8.972L12.2319 8.76972C11.8407 9.04007 11.4511 9.31305 11.0631 9.58869L11.0742 9.58283C10.9447 9.64673 10.9198 9.79773 10.9286 9.878C10.9333 9.93394 10.9381 9.98988 10.9429 10.0458C10.9659 10.3139 10.9899 10.5819 11.0149 10.85C11.0113 10.942 11.1066 11.0199 11.1879 11ZM16.9398 11C16.8497 10.9926 16.7702 10.946 16.7177 10.8801C16.5507 10.68 16.383 10.4806 16.2147 10.2818C16.0776 10.1199 15.94 9.95833 15.802 9.79724C15.7714 9.75345 15.7641 9.71271 15.7705 9.662C15.8707 8.374 15.9482 7.086 16.0029 5.798L16.0192 5.41468L15.6018 5.39694C15.5178 5.39337 15.4338 5.38989 15.3498 5.38651C15.3589 5.38653 15.4357 5.37759 15.5317 5.46612C15.6227 5.55982 15.6178 5.63772 15.6208 5.648C15.6347 5.282 15.6468 4.916 15.657 4.55C15.6564 4.56453 15.6645 4.6543 15.563 4.76315C15.4558 4.86636 15.3652 4.861 15.3498 4.86374C15.4338 4.8659 15.5178 4.86796 15.6018 4.86993L16.0605 4.88068L16.0718 4.4C16.0776 4.15 16.0826 3.9 16.0868 3.65C16.0856 3.66786 16.0931 3.76543 15.9836 3.88178C15.8682 3.99218 15.7702 3.98631 15.7518 3.98871C16.2761 3.99624 16.8004 4 17.3247 4C17.3324 4 17.3401 4 17.3478 4C17.3282 3.9981 17.2266 4.00466 17.1069 3.89099C16.9933 3.77118 17 3.66964 16.9982 3.65C16.9988 3.9 17.0002 4.15 17.0026 4.4L16.998 4.89064L17.4978 4.89528C17.6918 4.89348 17.8858 4.89116 18.0798 4.88833C18.0615 4.88593 17.9636 4.89178 17.8483 4.7815C17.739 4.66525 17.7465 4.56781 17.7453 4.55C17.7515 4.916 17.7595 5.282 17.7693 5.648C17.7721 5.633 17.7668 5.54342 17.8691 5.43721C17.9769 5.33665 18.0657 5.34487 18.0798 5.34427C17.8858 5.34991 17.6918 5.35606 17.4978 5.36273L17.078 5.3483L17.0626 5.798C17.0993 6.866 17.1516 7.934 17.2196 9.002C17.2202 9.12012 17.2762 9.28131 17.3825 9.37538C17.5905 9.55959 17.8002 9.744 18.0107 9.92767L18.0193 9.93591C17.9973 9.90269 18.0229 9.91843 18.0252 9.962C18.0474 10.258 18.0708 10.554 18.0954 10.85C18.0895 10.9036 18.131 10.8777 18.0678 10.898C18.0407 10.9003 18.0135 10.9027 17.9864 10.905C17.6375 10.935 17.2887 10.9667 16.9398 11C17.2887 11.0333 17.6375 11.065 17.9864 11.095C18.0135 11.0973 18.0407 11.0997 18.0678 11.102C18.12 11.1049 18.1946 11.1007 18.2597 11.0419C18.3237 10.9818 18.3367 10.9049 18.3403 10.85C18.3649 10.554 18.3883 10.258 18.4104 9.962C18.4122 9.87771 18.4171 9.75132 18.2964 9.62809L18.305 9.63633C18.1235 9.424 17.9412 9.21241 17.7582 9.00157C17.7646 8.99872 17.7738 9.0201 17.7761 9.002C17.844 7.934 17.8964 6.866 17.9331 5.798L17.4978 6.23327C17.6918 6.23994 17.8858 6.24609 18.0798 6.25173C18.1742 6.25122 18.3494 6.24295 18.5156 6.08379C18.6765 5.91927 18.6877 5.74321 18.6904 5.648C18.7002 5.282 18.7082 4.916 18.7144 4.55C18.7133 4.45197 18.7043 4.26805 18.5363 4.0935C18.3627 3.92462 18.1784 3.91398 18.0798 3.91167C17.8858 3.90884 17.6918 3.90652 17.4978 3.90472L17.9931 4.4C17.9954 4.15 17.9969 3.9 17.9975 3.65C17.9958 3.55014 17.986 3.36213 17.8138 3.18401C17.6358 3.01174 17.4477 3.0018 17.3478 3C17.3401 3 17.3324 3 17.3247 3C16.8004 3 16.2761 3.00376 15.7518 3.01129C15.6533 3.0136 15.4688 3.02422 15.2951 3.19322C15.127 3.36788 15.118 3.55192 15.1169 3.65C15.1211 3.9 15.1261 4.15 15.1319 4.4L15.6018 3.93007C15.5178 3.93204 15.4338 3.9341 15.3498 3.93626C15.2542 3.93891 15.0772 3.95004 14.9117 4.11185C14.7515 4.279 14.7432 4.45525 14.7426 4.55C14.7529 4.916 14.7649 5.282 14.7788 5.648C14.7818 5.7385 14.7934 5.90287 14.943 6.05488C15.0973 6.20201 15.2606 6.20956 15.3498 6.20948C15.4338 6.20611 15.5178 6.20263 15.6018 6.19906L15.2008 5.798C15.2555 7.086 15.333 8.374 15.4332 9.662C15.4372 9.78849 15.5013 9.92329 15.5903 10.0032C15.7556 10.1438 15.918 10.2804 16.0808 10.4166C16.2805 10.5837 16.4809 10.7501 16.682 10.9159C16.754 10.9782 16.8505 11.0102 16.9398 11ZM19.6773 11C19.5705 11.0046 19.4898 10.9121 19.5054 10.8125C19.5331 10.266 19.5595 9.71945 19.5848 9.17292C19.708 6.51195 19.8031 3.85097 19.8701 1.19C19.8699 1.1853 19.8805 1.24206 19.8083 1.32096C19.7313 1.3951 19.6736 1.38766 19.6773 1.39031C21.0323 1.42333 22.3873 1.44906 23.7423 1.4675C23.7779 1.47035 23.7588 1.47406 23.7464 1.46419L23.712 1.43325C24.2797 2.01059 24.8493 2.58608 25.4207 3.15972L25.4361 3.17437C25.4523 3.17746 25.4584 3.24147 25.3904 3.07305L25.4113 3.13187C25.3737 3.01916 25.3982 3.08322 25.3929 3.11C25.3892 3.79493 25.3873 4.47986 25.3873 5.1648C25.3873 5.16486 25.3873 5.16493 25.3873 5.165C25.3824 5.09942 25.434 5.00179 25.4588 4.98398C25.1889 5.24677 24.9144 5.51483 24.6404 5.78331L24.6628 5.76276C24.431 5.96359 24.1995 6.1647 23.9682 6.36609L23.6182 6.66354L23.8959 7.03679C24.1731 7.40014 24.451 7.763 24.7295 8.12535L24.6776 8.03915C24.966 8.64143 25.2559 9.24296 25.5474 9.84375C25.5527 9.85417 25.5586 9.87005 25.5624 9.88387L25.5806 9.94504C25.5693 9.90901 25.5765 9.91665 25.5764 9.935C25.581 10.2275 25.586 10.52 25.5912 10.8125C25.5938 10.8102 25.5861 10.7376 25.6748 10.6449C25.7689 10.5577 25.8407 10.5677 25.8423 10.567C25.1823 10.5794 24.5223 10.5936 23.8623 10.6095C23.8621 10.5909 24.0122 10.6913 23.9934 10.7076L23.9999 10.7253C23.5684 9.56526 23.1311 8.40723 22.688 7.25118L22.6339 7.07405L22.4298 7.06697C22.2423 7.07347 22.0548 7.08011 21.8673 7.08689L21.6237 7.07808L21.6142 7.34C21.6561 8.4975 21.7032 9.655 21.7557 10.8125C21.7514 10.8903 21.7642 10.8882 21.6798 10.9023C21.6603 10.9032 21.6408 10.9041 21.6212 10.905C20.9733 10.935 20.3253 10.9667 19.6773 11C20.3253 11.0333 20.9733 11.065 21.6212 11.095C21.6408 11.0959 21.6603 11.0968 21.6798 11.0977C21.7416 11.0996 21.8252 11.092 21.8945 11.0272C21.9628 10.9612 21.9764 10.8761 21.979 10.8125C22.0315 9.655 22.0786 8.4975 22.1205 7.34L21.8673 7.59311C22.0548 7.59989 22.2423 7.60653 22.4298 7.61302L22.1717 7.42882C22.5336 8.61277 22.9013 9.79474 23.2748 10.9747L23.2813 10.9924C23.3259 11.1945 23.6677 11.419 23.8623 11.3905C24.5223 11.4064 25.1823 11.4206 25.8423 11.433C25.9442 11.4324 26.1242 11.4218 26.2912 11.2613C26.4531 11.0957 26.466 10.9151 26.4685 10.8125C26.4737 10.52 26.4787 10.2275 26.4833 9.935C26.4829 9.85197 26.4808 9.75661 26.4341 9.62496L26.4523 9.68613C26.4355 9.60717 26.4105 9.53265 26.3808 9.46402C26.1038 8.84704 25.8287 8.23857 25.552 7.63085L25.5002 7.54465C25.2287 7.177 24.9566 6.80986 24.6838 6.44321L24.6115 7.11391C24.8452 6.9153 25.0786 6.71641 25.3119 6.51724L25.3343 6.49669C25.6103 6.23017 25.8858 5.96323 26.1609 5.69587C26.2828 5.58345 26.3943 5.36031 26.3873 5.165C26.3873 5.16493 26.3873 5.16486 26.3873 5.1648C26.3873 4.47986 26.3855 3.79493 26.3818 3.11C26.375 3.02076 26.3985 2.96519 26.3184 2.74313L26.3393 2.80195C26.2369 2.52962 26.1605 2.51582 26.0986 2.44563L26.114 2.46028C25.5354 1.89392 24.955 1.32941 24.3727 0.766746L24.3382 0.73581C24.1593 0.588241 23.9205 0.533184 23.7423 0.537497C22.3873 0.555938 21.0323 0.581668 19.6773 0.614686C19.5808 0.617225 19.4151 0.630395 19.2651 0.777792C19.1196 0.929579 19.1097 1.09443 19.1096 1.19C19.1766 3.85097 19.2716 6.51195 19.3948 9.17292C19.4201 9.71945 19.4466 10.266 19.4743 10.8125C19.4665 10.9229 19.5742 11.0188 19.6773 11ZM22.6923 5.0025C22.6923 5.33583 22.6923 5.66917 22.6923 6.0025C22.8427 6.00222 22.9982 5.99405 23.1671 5.96352C23.3901 5.91927 23.6713 5.84529 23.9148 5.57831C24.3044 5.04189 24.2424 4.65202 24.2648 4.2725C24.2404 3.89261 24.3125 3.50827 23.9148 2.96669C23.4765 2.51737 23.0375 2.55368 22.6923 2.535C22.3463 2.55129 21.9048 2.52735 21.4706 2.96598C21.0659 3.49797 21.1369 3.89171 21.1123 4.2725C21.1348 4.65302 21.0742 5.05197 21.4705 5.57902C21.7145 5.83992 21.9927 5.91832 22.2161 5.96262C22.3852 5.99375 22.5415 6.00223 22.6923 6.0025C22.6923 5.66917 22.6923 5.33583 22.6923 5.0025C22.5853 5.00255 22.4837 4.99531 22.3992 4.97952C22.283 4.96 22.2135 4.9153 22.2143 4.91062C22.1803 4.9 22.1028 4.56102 22.1123 4.2725C22.1017 3.98464 22.1834 3.63715 22.2143 3.63438C22.2117 3.60848 22.443 3.52585 22.6923 3.535C22.9421 3.52454 23.1804 3.61227 23.1602 3.6229C23.1959 3.63272 23.2752 3.98509 23.2648 4.2725C23.2742 4.56065 23.1989 4.90437 23.1602 4.9221C23.1733 4.91429 23.1042 4.96104 22.9871 4.97986C22.9021 4.99545 22.7999 5.00255 22.6923 5.0025ZM22.6923 6.0025V5.0025V6.0025ZM29.0992 11C28.9866 10.9931 28.885 10.9369 28.8166 10.8551C28.5961 10.6001 28.375 10.3457 28.1531 10.0921C27.9085 9.81226 27.663 9.53325 27.4167 9.25505C27.3652 9.19605 27.3521 9.144 27.3579 9.0725C27.4443 7.6075 27.5128 6.1425 27.5635 4.6775C27.5714 4.64963 27.5646 4.6818 27.5755 4.67106L27.5843 4.66256C28.1007 4.17894 28.6141 3.69238 29.1246 3.20288C29.1419 3.19479 29.1001 3.21889 29.0992 3.21689C30.2519 3.23896 31.4046 3.25 32.5573 3.25C32.7421 3.25 32.9269 3.24972 33.1117 3.24915C33.1022 3.24711 33.0117 3.25555 32.8998 3.14945C32.794 3.03721 32.8029 2.94691 32.8013 2.9375C32.8137 5.5625 32.8835 8.1875 33.0104 10.8125C33.0139 10.828 33.0077 10.7997 33.0534 10.7542C33.1026 10.7123 33.1292 10.7249 33.1117 10.7262C32.5917 10.7522 32.0717 10.7805 31.5517 10.811C31.5186 10.8152 31.4963 10.8078 31.5062 10.8163L31.5168 10.8245C31.4813 10.7985 31.4454 10.7712 31.4096 10.7435L31.4179 10.7513C31.2854 10.6338 31.1527 10.5166 31.0197 10.3995L30.9341 10.3022L30.8237 10.3995C30.7066 10.5324 30.5897 10.6655 30.473 10.7988C30.4482 10.8295 30.4224 10.8535 30.3929 10.8721C30.3515 10.8984 30.3018 10.9139 30.2467 10.9183C29.8642 10.9443 29.4817 10.9715 29.0992 11C29.4817 11.0285 29.8642 11.0557 30.2467 11.0817C30.3224 11.0864 30.4045 11.0751 30.4795 11.0412C30.5329 11.0174 30.5815 10.9833 30.6227 10.944C30.7537 10.8295 30.8868 10.7126 31.0197 10.5955L30.8237 10.5955C30.9408 10.7284 31.0581 10.8612 31.1755 10.9937L31.1839 11.0015C31.2174 11.0345 31.2513 11.0675 31.2867 11.1005L31.2973 11.1087C31.3938 11.1781 31.4811 11.1843 31.5517 11.189C32.0717 11.2195 32.5917 11.2478 33.1117 11.2738C33.1945 11.2753 33.3292 11.2672 33.4513 11.1521C33.5703 11.0337 33.5847 10.8972 33.588 10.8125C33.715 8.1875 33.7847 5.5625 33.7972 2.9375C33.7956 2.82782 33.784 2.62943 33.6049 2.4443C33.4201 2.26496 33.2215 2.25278 33.1117 2.25085C32.9269 2.25028 32.7421 2.25 32.5573 2.25C31.4046 2.25 30.2519 2.26104 29.0992 2.28311C28.874 2.27768 28.6122 2.39999 28.4738 2.55212C27.9843 3.06262 27.4978 3.57606 27.0142 4.09244L27.0229 4.08394C26.8675 4.22448 26.7683 4.48123 26.7799 4.6775C26.8306 6.1425 26.8991 7.6075 26.9855 9.0725C26.9877 9.22514 27.0669 9.39767 27.1854 9.49345C27.46 9.73624 27.739 9.98174 28.0188 10.2264C28.2725 10.4482 28.5268 10.6694 28.7818 10.8899C28.8691 10.9683 28.9875 11.0103 29.0992 11ZM29.9767 8.7525C29.9767 9.08583 29.9767 9.41917 29.9767 9.7525C30.1517 9.7525 30.3267 9.7525 30.5017 9.7525C30.5331 9.7525 30.5656 9.75164 30.5998 9.74945C30.7429 9.73115 30.9489 9.73916 31.1991 9.49414C31.4557 9.16884 31.4066 8.97592 31.4217 8.81C31.4217 7.3725 31.4217 5.935 31.4217 4.4975V3.9975H30.9217C30.6067 3.9975 30.2917 3.9975 29.9767 3.9975C29.8118 4.01495 29.6004 3.95597 29.2718 4.25586C29.0152 4.58116 29.0643 4.77408 29.0492 4.94C29.0492 6.23 29.0492 7.52 29.0492 8.81C29.0493 8.87117 29.0519 8.93576 29.0614 9.00874C29.0824 9.13146 29.0985 9.29387 29.2718 9.49414C29.6004 9.79403 29.8118 9.73505 29.9767 9.7525C29.9767 9.41917 29.9767 9.08583 29.9767 8.7525C29.9065 8.76619 29.8522 8.69173 30.0066 8.81586C30.0757 8.90098 30.0525 8.90628 30.0529 8.87842C30.0508 8.86274 30.0492 8.83819 30.0492 8.81C30.0492 7.52 30.0492 6.23 30.0492 4.94C30.0378 4.8674 30.1012 4.79704 30.0066 4.93414C29.8522 5.05827 29.9065 4.98381 29.9767 4.9975C30.2917 4.9975 30.6067 4.9975 30.9217 4.9975L30.4217 4.4975C30.4217 5.935 30.4217 7.3725 30.4217 8.81C30.4331 8.8826 30.3698 8.95296 30.4643 8.81586C30.5795 8.71265 30.5804 8.75618 30.5356 8.75151C30.5259 8.75214 30.5144 8.7525 30.5017 8.7525C30.3267 8.7525 30.1517 8.7525 29.9767 8.7525ZM29.9767 9.7525V8.7525V9.7525ZM36.7715 11C36.6589 10.9929 36.5575 10.9365 36.4894 10.8546C36.2763 10.6088 36.0626 10.3636 35.8483 10.1191C35.6737 9.91988 35.4986 9.72109 35.3231 9.52274C35.2772 9.46304 35.261 9.40036 35.2676 9.3275C35.3678 7.7175 35.4453 6.1075 35.5 4.4975L35.5132 4.11052L35.099 4.09644C34.994 4.09287 34.889 4.08939 34.784 4.08601C34.783 4.08604 34.849 4.07504 34.9377 4.15625C35.0214 4.24266 35.0144 4.30974 35.0175 4.31C35.0314 3.8525 35.0435 3.395 35.0537 2.9375C35.053 2.94201 35.0632 3.02097 34.969 3.12252C34.8691 3.21841 34.7893 3.21098 34.784 3.21374C34.889 3.2159 34.994 3.21796 35.099 3.21993L35.5599 3.22857L35.5689 2.75C35.5748 2.4375 35.5798 2.125 35.5839 1.8125C35.5827 1.82034 35.5923 1.90709 35.4901 2.01616C35.382 2.11923 35.2948 2.1113 35.2865 2.11371C35.9418 2.12124 36.5972 2.125 37.2525 2.125C37.2622 2.125 37.2718 2.125 37.2815 2.125C37.2718 2.12309 37.1811 2.13171 37.0686 2.02536C36.9624 1.91284 36.9711 1.82212 36.9693 1.8125C36.9699 2.125 36.9714 2.4375 36.9737 2.75L36.9701 3.24158L37.469 3.24528C37.7115 3.24348 37.954 3.24116 38.1965 3.23833C38.1882 3.23592 38.1011 3.24383 37.9931 3.14087C37.8911 3.03192 37.9007 2.94528 37.8995 2.9375C37.9056 3.395 37.9136 3.8525 37.9234 4.31C37.9262 4.30503 37.9189 4.22626 38.0138 4.12733C38.1144 4.0341 38.1924 4.04438 38.1965 4.04377C37.954 4.04941 37.7115 4.05556 37.469 4.06223L37.046 4.0506L37.0337 4.4975C37.0704 5.8325 37.1228 7.1675 37.1907 8.5025C37.1911 8.63764 37.253 8.81631 37.3716 8.92238C37.6286 9.15609 37.8873 9.39 38.1468 9.62317L38.1555 9.63141C38.1458 9.60944 38.174 9.64295 38.1764 9.7025C38.1986 10.0725 38.2219 10.4425 38.2465 10.8125C38.243 10.8871 38.2656 10.88 38.1815 10.898C38.1475 10.9003 38.1136 10.9027 38.0796 10.905C37.6436 10.935 37.2075 10.9667 36.7715 11C37.2075 11.0333 37.6436 11.065 38.0796 11.095C38.1136 11.0973 38.1475 11.0997 38.1815 11.102C38.2437 11.1049 38.3291 11.0987 38.4015 11.0325C38.4728 10.9651 38.4879 10.8774 38.4914 10.8125C38.516 10.4425 38.5394 10.0725 38.5616 9.7025C38.5633 9.60222 38.5656 9.45807 38.4325 9.32359L38.4411 9.33183C38.2106 9.07 37.9793 8.80891 37.7473 8.54857C37.7414 8.53372 37.7448 8.53762 37.7472 8.5025C37.8152 7.1675 37.8675 5.8325 37.9043 4.4975L37.469 4.93277C37.7115 4.93944 37.954 4.94559 38.1965 4.95123C38.3008 4.95074 38.4869 4.9404 38.6604 4.77391C38.8286 4.60211 38.8419 4.41524 38.8445 4.31C38.8543 3.8525 38.8623 3.395 38.8685 2.9375C38.8674 2.82945 38.8563 2.63472 38.6811 2.45288C38.5002 2.27667 38.305 2.26397 38.1965 2.26167C37.954 2.25884 37.7115 2.25652 37.469 2.25472L37.9643 2.75C37.9666 2.4375 37.9681 2.125 37.9687 1.8125C37.967 1.70262 37.9551 1.5038 37.7756 1.31839C37.5903 1.13879 37.3914 1.12679 37.2815 1.125C37.2718 1.125 37.2622 1.125 37.2525 1.125C36.5972 1.125 35.9418 1.12876 35.2865 1.13629C35.1779 1.13859 34.9826 1.15127 34.8016 1.32759C34.6262 1.50954 34.6151 1.7044 34.614 1.8125C34.6182 2.125 34.6232 2.4375 34.6291 2.75L35.099 2.28007C34.994 2.28204 34.889 2.2841 34.784 2.28626C34.6784 2.2889 34.4905 2.30209 34.3177 2.47122C34.1502 2.64567 34.1398 2.83273 34.1393 2.9375C34.1495 3.395 34.1616 3.8525 34.1755 4.31C34.1784 4.41053 34.1921 4.58571 34.349 4.745C34.5106 4.89945 34.6847 4.90907 34.784 4.90898C34.889 4.90561 34.994 4.90213 35.099 4.89856L34.6979 4.4975C34.7527 6.1075 34.8301 7.7175 34.9303 9.3275C34.934 9.47614 35.0071 9.63288 35.1114 9.72874C35.3143 9.90656 35.5141 10.0804 35.7144 10.2539C35.9601 10.4667 36.2066 10.6789 36.4537 10.8904C36.5412 10.9687 36.6597 11.0105 36.7715 11ZM43.094 11C43.0383 10.9964 42.9841 10.984 42.9315 10.9673C42.8804 10.9498 42.8283 10.9338 42.7755 10.9198C42.3781 10.7949 41.9795 10.6708 41.5807 10.5478C41.5408 10.5355 41.5009 10.5232 41.461 10.5109C40.9684 10.3143 40.4674 10.1172 39.9659 9.92165C39.9133 9.90077 39.8872 9.81662 39.8953 9.665C39.9749 8.0025 40.038 6.34 40.0844 4.6775C40.0917 4.65206 40.0825 4.68745 40.0914 4.67753L40.1003 4.66884C40.6136 4.18213 41.1248 3.69328 41.6338 3.20231C41.6509 3.19387 41.6094 3.21744 41.609 3.21518C42.409 3.22855 43.209 3.23807 44.009 3.24374C44.0018 3.2491 43.9482 3.2235 43.9583 3.22815C44.2939 3.5676 44.6305 3.90609 44.968 4.24361C45.1305 4.40609 45.2932 4.56835 45.4561 4.73038L45.467 4.74091C45.4579 4.73955 45.4326 4.67272 45.4386 4.6775C45.4428 5.7025 45.4533 6.7275 45.4702 7.7525L45.9365 7.28622C44.594 7.30829 43.2515 7.34122 41.909 7.38498L41.5726 7.37402L41.542 7.73318C41.5353 8.06625 41.5293 8.39936 41.524 8.7325L41.5025 8.97329L41.7519 9.06609C42.1112 9.17059 42.4707 9.2743 42.8306 9.37721L42.9011 9.39115C43.5405 9.40994 44.18 9.42628 44.8197 9.44018L44.7987 9.43759C44.7972 9.44924 44.75 9.35751 44.77 9.41C44.7933 9.8775 44.8178 10.345 44.8437 10.8125C44.8396 10.8886 44.858 10.8831 44.774 10.8993C44.7403 10.9012 44.7066 10.9031 44.673 10.905C44.1466 10.935 43.6203 10.9667 43.094 11C43.6203 11.0333 44.1466 11.065 44.673 11.095C44.7066 11.0969 44.7403 11.0988 44.774 11.1007C44.8361 11.1031 44.9208 11.0961 44.9919 11.0304C45.0619 10.9635 45.0762 10.8768 45.0793 10.8125C45.1051 10.345 45.1297 9.8775 45.153 9.41C45.1541 9.35016 45.1503 9.27209 45.0967 9.18649C45.0431 9.09893 44.94 9.04963 44.8693 9.03741L44.8483 9.03482C44.213 8.95872 43.5775 8.88506 42.9419 8.81385L43.0124 8.82779C42.6622 8.6957 42.3118 8.56441 41.9611 8.43391L42.189 8.7675C42.2186 8.43564 42.2477 8.10375 42.276 7.77182L41.909 8.12002C43.2515 8.16378 44.594 8.19671 45.9365 8.21878L46.4103 8.21099L46.4028 7.7525C46.4196 6.7275 46.4302 5.7025 46.4344 4.6775C46.444 4.45815 46.3264 4.16673 46.151 4.01409L46.1619 4.02462C45.9998 3.86169 45.8376 3.69898 45.6751 3.5365C45.3376 3.19898 44.9991 2.86243 44.6596 2.52685C44.5141 2.37128 44.2405 2.24747 44.009 2.25626C43.209 2.26193 42.409 2.27145 41.609 2.28482C41.3842 2.27913 41.1227 2.40091 40.9842 2.55269C40.4932 3.06172 40.0044 3.57287 39.5176 4.08616L39.5266 4.07747C39.3691 4.21883 39.2676 4.4788 39.2786 4.6775C39.325 6.34 39.3881 8.0025 39.4677 9.665C39.471 9.84967 39.539 10.1895 39.847 10.2784C40.3655 10.4228 40.8846 10.5657 41.4042 10.7069C41.453 10.7168 41.4941 10.7245 41.5351 10.7322C41.9453 10.8092 42.3558 10.8851 42.7665 10.96C42.8205 10.9674 42.8734 10.9768 42.9262 10.9876C42.9818 10.9979 43.0383 11.0035 43.094 11ZM42.794 6.075C42.794 6.40833 42.794 6.74167 42.794 7.075C42.8415 7.075 42.889 7.075 42.9365 7.075C43.027 7.075 43.1227 7.06664 43.2204 7.04554C43.4908 6.99283 43.7602 6.81217 43.915 6.60594C44.1819 6.27629 44.2466 5.87373 44.2465 5.5475C44.2465 5.4975 44.2465 5.4475 44.2465 5.3975C44.2472 5.07199 44.1783 4.67044 43.9099 4.3401C43.7077 4.05512 43.2715 3.86146 42.9365 3.8775C42.8865 3.8775 42.8365 3.8775 42.7865 3.8775C42.4486 3.8612 42.0178 4.06158 41.8155 4.34656C41.5561 4.6914 41.4996 5.07813 41.499 5.3975C41.499 5.4475 41.499 5.4975 41.499 5.5475C41.5002 5.86782 41.5528 6.25532 41.8103 6.59922C41.9278 6.75108 42.0902 6.88864 42.2782 6.97041C42.4506 7.04698 42.6322 7.07533 42.794 7.075C42.794 6.74167 42.794 6.40833 42.794 6.075C42.7412 6.07494 42.7066 6.06643 42.6824 6.05574C42.6562 6.04376 42.6334 6.02784 42.6025 5.98906C42.5426 5.914 42.4976 5.7514 42.499 5.5475C42.499 5.4975 42.499 5.4475 42.499 5.3975C42.4978 5.19725 42.5419 5.03987 42.6077 4.95672C42.6671 4.89112 42.6798 4.88375 42.7865 4.8775C42.8365 4.8775 42.8865 4.8775 42.9365 4.8775C43.0501 4.88362 43.0653 4.89324 43.128 4.96344C43.2023 5.0523 43.2473 5.19945 43.2465 5.3975C43.2465 5.4475 43.2465 5.4975 43.2465 5.5475C43.2475 5.74936 43.2016 5.90166 43.1331 5.9826C43.0828 6.0432 43.0616 6.05464 43.0093 6.06807C42.9899 6.07227 42.9656 6.07501 42.9365 6.075C42.889 6.075 42.8415 6.075 42.794 6.075ZM42.794 7.075V6.075V7.075ZM49.3727 11C49.2601 10.9943 49.1574 10.939 49.0878 10.8574C48.8196 10.553 48.5506 10.2494 48.281 9.94648C48.0797 9.72035 47.878 9.49462 47.6759 9.2693C47.6206 9.2082 47.6036 9.14884 47.6091 9.0725C47.6866 7.6075 47.7507 6.1425 47.8014 4.6775C47.8088 4.64196 47.8071 4.66136 47.8246 4.64521L47.8326 4.63745C48.3492 4.15405 48.8636 3.66845 49.3758 3.18063C49.3976 3.16797 49.3662 3.1878 49.3727 3.18662C49.7552 3.19541 50.1377 3.20329 50.5202 3.21025C50.5332 3.21728 50.4783 3.19887 50.4807 3.19696L50.4906 3.2071C50.6135 3.3342 50.7365 3.46116 50.8597 3.58798L51.6588 4.40228L51.6696 3.2525C51.6796 2.565 51.6867 1.8775 51.6908 1.19C51.6892 1.19913 51.6983 1.2888 51.5931 1.40048C51.4819 1.50604 51.392 1.49769 51.3827 1.49981C51.7615 1.5016 52.1404 1.5025 52.5192 1.5025C52.8079 1.5025 53.0965 1.50198 53.3852 1.50094C53.3757 1.49887 53.2855 1.50729 53.1738 1.4014C53.0682 1.28938 53.0772 1.19931 53.0755 1.19C53.0911 4.3975 53.171 7.605 53.3152 10.8125C53.3184 10.8318 53.3118 10.8124 53.3486 10.7759C53.3885 10.7427 53.4062 10.7551 53.3852 10.7564C52.8652 10.7804 52.3452 10.8062 51.8252 10.8336C51.7898 10.8373 51.7636 10.83 51.7671 10.8338L51.7764 10.841C51.7409 10.8147 51.7051 10.7871 51.6694 10.7591L51.6767 10.7659C51.545 10.6477 51.4131 10.5296 51.2811 10.4116L51.2048 10.3262L51.1092 10.4116C51.006 10.5271 50.9029 10.6427 50.7999 10.7584C50.7851 10.775 50.7704 10.7915 50.7557 10.8081C50.6973 10.8807 50.6173 10.9226 50.5202 10.9287C50.1377 10.9515 49.7552 10.9753 49.3727 11C49.7552 11.0247 50.1377 11.0485 50.5202 11.0713C50.6472 11.081 50.7917 11.0307 50.8865 10.935C50.9011 10.9222 50.9177 10.9075 50.9342 10.8928C51.0499 10.7898 51.1656 10.6866 51.2811 10.5834L51.1092 10.5834C51.2272 10.7154 51.3453 10.8473 51.4636 10.9791L51.4709 10.9859C51.5046 11.0187 51.5386 11.0513 51.5739 11.084L51.5833 11.0912C51.6734 11.1559 51.7568 11.1623 51.8252 11.1664C52.3452 11.1938 52.8652 11.2196 53.3852 11.2436C53.4643 11.245 53.5902 11.2368 53.703 11.1303C53.813 11.0209 53.8271 10.8935 53.8301 10.8125C53.9743 7.605 54.0542 4.3975 54.0698 1.19C54.0683 1.08042 54.0566 0.882257 53.8778 0.697346C53.6932 0.518213 53.4949 0.50601 53.3852 0.504061C53.0965 0.50302 52.8079 0.5025 52.5192 0.5025C52.1404 0.5025 51.7615 0.503396 51.3827 0.505189C51.273 0.507188 51.0751 0.51946 50.8909 0.698266C50.7125 0.882832 50.701 1.0806 50.6995 1.19C50.7036 1.8775 50.7107 2.565 50.7207 3.2525L51.5306 2.91702C51.4038 2.79384 51.2769 2.6708 51.1498 2.5479L51.1596 2.55804C51.0108 2.38979 50.7313 2.27905 50.5202 2.28975C50.1377 2.29671 49.7552 2.30459 49.3727 2.31337C49.1547 2.30876 48.9034 2.42681 48.7695 2.57437C48.2817 3.08655 47.7961 3.60095 47.3127 4.11755L47.3207 4.10979C47.1719 4.24492 47.0779 4.4889 47.0889 4.6775C47.1396 6.1425 47.2037 7.6075 47.2812 9.0725C47.283 9.2203 47.3584 9.38552 47.4726 9.47878C47.6948 9.67781 47.9205 9.87952 48.1466 10.0808C48.4495 10.3505 48.7532 10.6194 49.0575 10.8876C49.1436 10.9662 49.2609 11.0091 49.3727 11ZM50.2502 8.7525C50.2502 9.08583 50.2502 9.41917 50.2502 9.7525C50.4252 9.7525 50.6002 9.7525 50.7752 9.7525C50.8065 9.7525 50.839 9.75164 50.8732 9.74945C51.0163 9.73115 51.2224 9.73916 51.4726 9.49414C51.7292 9.16884 51.6801 8.97592 51.6952 8.81C51.6952 7.3725 51.6952 5.935 51.6952 4.4975V3.9975H51.1952C50.8802 3.9975 50.5652 3.9975 50.2502 3.9975C50.0852 4.01495 49.8739 3.95597 49.5453 4.25586C49.2886 4.58116 49.3377 4.77408 49.3227 4.94C49.3227 6.23 49.3227 7.52 49.3227 8.81C49.3227 8.87117 49.3253 8.93576 49.3348 9.00874C49.3558 9.13146 49.3719 9.29387 49.5453 9.49414C49.8739 9.79403 50.0852 9.73505 50.2502 9.7525C50.2502 9.41917 50.2502 9.08583 50.2502 8.7525C50.1799 8.76619 50.1256 8.69173 50.2801 8.81586C50.3491 8.90098 50.3259 8.90628 50.3263 8.87842C50.3242 8.86274 50.3226 8.83819 50.3227 8.81C50.3227 7.52 50.3227 6.23 50.3227 4.94C50.3112 4.8674 50.3746 4.79704 50.2801 4.93414C50.1256 5.05827 50.1799 4.98381 50.2502 4.9975C50.5652 4.9975 50.8802 4.9975 51.1952 4.9975L50.6952 4.4975C50.6952 5.935 50.6952 7.3725 50.6952 8.81C50.7066 8.8826 50.6432 8.95296 50.7378 8.81586C50.853 8.71265 50.8538 8.75618 50.8091 8.75151C50.7994 8.75214 50.7879 8.7525 50.7752 8.7525C50.6002 8.7525 50.4252 8.7525 50.2502 8.7525ZM50.2502 9.7525V8.7525V9.7525Z" fill="black" mask="url(#path-1-outside-1_1_2)"/>
</svg>
