<svg xmlns="http://www.w3.org/2000/svg" version="1.1" xmlns:xlink="http://www.w3.org/1999/xlink" xmlns:svgjs="http://svgjs.dev/svgjs" viewBox="0 0 800 800" opacity="1" width="800" height="800"><g stroke-width="1.25" stroke="hsl(261, 60%, 38%)" fill="none"><circle r="3.6842105263157894" cx="0" cy="0" fill="none"></circle><circle r="3.6842105263157894" cx="26.666666666666668" cy="0" fill="none"></circle><circle r="3.6842105263157894" cx="53.333333333333336" cy="0" fill="none"></circle><circle r="3.6842105263157894" cx="80" cy="0" fill="none"></circle><circle r="3.6842105263157894" cx="106.66666666666667" cy="0" fill="none"></circle><circle r="3.6842105263157894" cx="133.33333333333334" cy="0" fill="none"></circle><circle r="3.6842105263157894" cx="160" cy="0" fill="none"></circle><circle r="3.6842105263157894" cx="186.66666666666666" cy="0" fill="none"></circle><circle r="3.6842105263157894" cx="213.33333333333331" cy="0" fill="none"></circle><circle r="3.6842105263157894" cx="239.99999999999997" cy="0" fill="none"></circle><circle r="3.6842105263157894" cx="266.66666666666663" cy="0" fill="none"></circle><circle r="3.6842105263157894" cx="293.3333333333333" cy="0" fill="none"></circle><circle r="3.6842105263157894" cx="320" cy="0" fill="none"></circle><circle r="3.6842105263157894" cx="346.6666666666667" cy="0" fill="none"></circle><circle r="3.6842105263157894" cx="373.33333333333337" cy="0" fill="none"></circle><circle r="3.6842105263157894" cx="400.00000000000006" cy="0" fill="none"></circle><circle r="3.6842105263157894" cx="426.66666666666674" cy="0" fill="none"></circle><circle r="3.6842105263157894" cx="453.3333333333334" cy="0" fill="none"></circle><circle r="3.6842105263157894" cx="480.0000000000001" cy="0" fill="none"></circle><circle r="3.6842105263157894" cx="506.6666666666668" cy="0" fill="none"></circle><circle r="3.6842105263157894" cx="533.3333333333335" cy="0" fill="none"></circle><circle r="3.6842105263157894" cx="560.0000000000001" cy="0" fill="none"></circle><circle r="3.6842105263157894" cx="586.6666666666667" cy="0" fill="none"></circle><circle r="3.6842105263157894" cx="613.3333333333334" cy="0" fill="none"></circle><circle r="3.6842105263157894" cx="640" cy="0" fill="none"></circle><circle r="3.6842105263157894" cx="666.6666666666666" cy="0" fill="none"></circle><circle r="3.6842105263157894" cx="693.3333333333333" cy="0" fill="none"></circle><circle r="3.6842105263157894" cx="719.9999999999999" cy="0" fill="none"></circle><circle r="3.6842105263157894" cx="746.6666666666665" cy="0" fill="none"></circle><circle r="3.6842105263157894" cx="773.3333333333331" cy="0" fill="none"></circle><circle r="3.6842105263157894" cx="799.9999999999998" cy="0" fill="none"></circle><circle r="3.6842105263157894" cx="0" cy="26.666666666666668" fill="none"></circle><circle r="3.6842105263157894" cx="26.666666666666668" cy="26.666666666666668" fill="none"></circle><circle r="3.6842105263157894" cx="53.333333333333336" cy="26.666666666666668" fill="none"></circle><circle r="3.6842105263157894" cx="80" cy="26.666666666666668" fill="none"></circle><circle r="3.6842105263157894" cx="106.66666666666667" cy="26.666666666666668" fill="none"></circle><circle r="3.6842105263157894" cx="133.33333333333334" cy="26.666666666666668" fill="none"></circle><circle r="3.6842105263157894" cx="160" cy="26.666666666666668" fill="none"></circle><circle r="3.6842105263157894" cx="186.66666666666666" cy="26.666666666666668" fill="none"></circle><circle r="3.6842105263157894" cx="213.33333333333331" cy="26.666666666666668" fill="none"></circle><circle r="3.6842105263157894" cx="239.99999999999997" cy="26.666666666666668" fill="none"></circle><circle r="3.6842105263157894" cx="266.66666666666663" cy="26.666666666666668" fill="none"></circle><circle r="3.6842105263157894" cx="293.3333333333333" cy="26.666666666666668" fill="none"></circle><circle r="3.6842105263157894" cx="320" cy="26.666666666666668" fill="none"></circle><circle r="3.6842105263157894" cx="346.6666666666667" cy="26.666666666666668" fill="none"></circle><circle r="3.6842105263157894" cx="373.33333333333337" cy="26.666666666666668" fill="none"></circle><circle r="3.6842105263157894" cx="400.00000000000006" cy="26.666666666666668" fill="none"></circle><circle r="3.6842105263157894" cx="426.66666666666674" cy="26.666666666666668" fill="none"></circle><circle r="3.6842105263157894" cx="453.3333333333334" cy="26.666666666666668" fill="none"></circle><circle r="3.6842105263157894" cx="480.0000000000001" cy="26.666666666666668" fill="none"></circle><circle r="3.6842105263157894" cx="506.6666666666668" cy="26.666666666666668" fill="none"></circle><circle r="3.6842105263157894" cx="533.3333333333335" cy="26.666666666666668" fill="none"></circle><circle r="3.6842105263157894" cx="560.0000000000001" cy="26.666666666666668" fill="none"></circle><circle r="3.6842105263157894" cx="586.6666666666667" cy="26.666666666666668" fill="none"></circle><circle r="3.6842105263157894" cx="613.3333333333334" cy="26.666666666666668" fill="none"></circle><circle r="3.6842105263157894" cx="640" cy="26.666666666666668" fill="none"></circle><circle r="3.6842105263157894" cx="666.6666666666666" cy="26.666666666666668" fill="none"></circle><circle r="3.6842105263157894" cx="693.3333333333333" cy="26.666666666666668" fill="none"></circle><circle r="3.6842105263157894" cx="719.9999999999999" cy="26.666666666666668" fill="none"></circle><circle r="3.6842105263157894" cx="746.6666666666665" cy="26.666666666666668" fill="none"></circle><circle r="3.6842105263157894" cx="773.3333333333331" cy="26.666666666666668" fill="none"></circle><circle r="3.6842105263157894" cx="799.9999999999998" cy="26.666666666666668" fill="none"></circle><circle r="3.6842105263157894" cx="0" cy="53.333333333333336" fill="none"></circle><circle r="3.6842105263157894" cx="26.666666666666668" cy="53.333333333333336" fill="none"></circle><circle r="3.6842105263157894" cx="53.333333333333336" cy="53.333333333333336" fill="none"></circle><circle r="3.6842105263157894" cx="80" cy="53.333333333333336" fill="none"></circle><circle r="3.6842105263157894" cx="106.66666666666667" cy="53.333333333333336" fill="none"></circle><circle r="3.6842105263157894" cx="133.33333333333334" cy="53.333333333333336" fill="none"></circle><circle r="3.6842105263157894" cx="160" cy="53.333333333333336" fill="none"></circle><circle r="3.6842105263157894" cx="186.66666666666666" cy="53.333333333333336" fill="none"></circle><circle r="3.6842105263157894" cx="213.33333333333331" cy="53.333333333333336" fill="none"></circle><circle r="3.6842105263157894" cx="239.99999999999997" cy="53.333333333333336" fill="none"></circle><circle r="3.6842105263157894" cx="266.66666666666663" cy="53.333333333333336" fill="none"></circle><circle r="3.6842105263157894" cx="293.3333333333333" cy="53.333333333333336" fill="none"></circle><circle r="3.6842105263157894" cx="320" cy="53.333333333333336" fill="none"></circle><circle r="3.6842105263157894" cx="346.6666666666667" cy="53.333333333333336" fill="none"></circle><circle r="3.6842105263157894" cx="373.33333333333337" cy="53.333333333333336" fill="none"></circle><circle r="3.6842105263157894" cx="400.00000000000006" cy="53.333333333333336" fill="none"></circle><circle r="3.6842105263157894" cx="426.66666666666674" cy="53.333333333333336" fill="none"></circle><circle r="3.6842105263157894" cx="453.3333333333334" cy="53.333333333333336" fill="none"></circle><circle r="3.6842105263157894" cx="480.0000000000001" cy="53.333333333333336" fill="none"></circle><circle r="3.6842105263157894" cx="506.6666666666668" cy="53.333333333333336" fill="none"></circle><circle r="3.6842105263157894" cx="533.3333333333335" cy="53.333333333333336" fill="none"></circle><circle r="3.6842105263157894" cx="560.0000000000001" cy="53.333333333333336" fill="none"></circle><circle r="3.6842105263157894" cx="586.6666666666667" cy="53.333333333333336" fill="none"></circle><circle r="3.6842105263157894" cx="613.3333333333334" cy="53.333333333333336" fill="none"></circle><circle r="3.6842105263157894" cx="640" cy="53.333333333333336" fill="none"></circle><circle r="3.6842105263157894" cx="666.6666666666666" cy="53.333333333333336" fill="none"></circle><circle r="3.6842105263157894" cx="693.3333333333333" cy="53.333333333333336" fill="none"></circle><circle r="3.6842105263157894" cx="719.9999999999999" cy="53.333333333333336" fill="none"></circle><circle r="3.6842105263157894" cx="746.6666666666665" cy="53.333333333333336" fill="none"></circle><circle r="3.6842105263157894" cx="773.3333333333331" cy="53.333333333333336" fill="none"></circle><circle r="3.6842105263157894" cx="799.9999999999998" cy="53.333333333333336" fill="none"></circle><circle r="3.6842105263157894" cx="0" cy="80" fill="none"></circle><circle r="3.6842105263157894" cx="26.666666666666668" cy="80" fill="none"></circle><circle r="3.6842105263157894" cx="53.333333333333336" cy="80" fill="none"></circle><circle r="3.6842105263157894" cx="80" cy="80" fill="none"></circle><circle r="3.6842105263157894" cx="106.66666666666667" cy="80" fill="none"></circle><circle r="3.6842105263157894" cx="133.33333333333334" cy="80" fill="none"></circle><circle r="3.6842105263157894" cx="160" cy="80" fill="none"></circle><circle r="3.6842105263157894" cx="186.66666666666666" cy="80" fill="none"></circle><circle r="3.6842105263157894" cx="213.33333333333331" cy="80" fill="none"></circle><circle r="3.6842105263157894" cx="239.99999999999997" cy="80" fill="none"></circle><circle r="3.6842105263157894" cx="266.66666666666663" cy="80" fill="none"></circle><circle r="3.6842105263157894" cx="293.3333333333333" cy="80" fill="none"></circle><circle r="3.6842105263157894" cx="320" cy="80" fill="none"></circle><circle r="3.6842105263157894" cx="346.6666666666667" cy="80" fill="none"></circle><circle r="3.6842105263157894" cx="373.33333333333337" cy="80" fill="none"></circle><circle r="3.6842105263157894" cx="400.00000000000006" cy="80" fill="none"></circle><circle r="3.6842105263157894" cx="426.66666666666674" cy="80" fill="none"></circle><circle r="3.6842105263157894" cx="453.3333333333334" cy="80" fill="none"></circle><circle r="3.6842105263157894" cx="480.0000000000001" cy="80" fill="none"></circle><circle r="3.6842105263157894" cx="506.6666666666668" cy="80" fill="none"></circle><circle r="3.6842105263157894" cx="533.3333333333335" cy="80" fill="none"></circle><circle r="3.6842105263157894" cx="560.0000000000001" cy="80" fill="none"></circle><circle r="3.6842105263157894" cx="586.6666666666667" cy="80" fill="none"></circle><circle r="3.6842105263157894" cx="613.3333333333334" cy="80" fill="none"></circle><circle r="3.6842105263157894" cx="640" cy="80" fill="none"></circle><circle r="3.6842105263157894" cx="666.6666666666666" cy="80" fill="none"></circle><circle r="3.6842105263157894" cx="693.3333333333333" cy="80" fill="none"></circle><circle r="3.6842105263157894" cx="719.9999999999999" cy="80" fill="none"></circle><circle r="3.6842105263157894" cx="746.6666666666665" cy="80" fill="none"></circle><circle r="3.6842105263157894" cx="773.3333333333331" cy="80" fill="none"></circle><circle r="3.6842105263157894" cx="799.9999999999998" cy="80" fill="none"></circle><circle r="3.6842105263157894" cx="0" cy="106.66666666666667" fill="none"></circle><circle r="3.6842105263157894" cx="26.666666666666668" cy="106.66666666666667" fill="none"></circle><circle r="3.6842105263157894" cx="53.333333333333336" cy="106.66666666666667" fill="none"></circle><circle r="3.6842105263157894" cx="80" cy="106.66666666666667" fill="none"></circle><circle r="3.6842105263157894" cx="106.66666666666667" cy="106.66666666666667" fill="none"></circle><circle r="3.6842105263157894" cx="133.33333333333334" cy="106.66666666666667" fill="none"></circle><circle r="3.6842105263157894" cx="160" cy="106.66666666666667" fill="none"></circle><circle r="3.6842105263157894" cx="186.66666666666666" cy="106.66666666666667" fill="none"></circle><circle r="3.6842105263157894" cx="213.33333333333331" cy="106.66666666666667" fill="none"></circle><circle r="3.6842105263157894" cx="239.99999999999997" cy="106.66666666666667" fill="none"></circle><circle r="3.6842105263157894" cx="266.66666666666663" cy="106.66666666666667" fill="none"></circle><circle r="3.6842105263157894" cx="293.3333333333333" cy="106.66666666666667" fill="none"></circle><circle r="3.6842105263157894" cx="320" cy="106.66666666666667" fill="none"></circle><circle r="3.6842105263157894" cx="346.6666666666667" cy="106.66666666666667" fill="none"></circle><circle r="3.6842105263157894" cx="373.33333333333337" cy="106.66666666666667" fill="none"></circle><circle r="3.6842105263157894" cx="400.00000000000006" cy="106.66666666666667" fill="none"></circle><circle r="3.6842105263157894" cx="426.66666666666674" cy="106.66666666666667" fill="none"></circle><circle r="3.6842105263157894" cx="453.3333333333334" cy="106.66666666666667" fill="none"></circle><circle r="3.6842105263157894" cx="480.0000000000001" cy="106.66666666666667" fill="none"></circle><circle r="3.6842105263157894" cx="506.6666666666668" cy="106.66666666666667" fill="none"></circle><circle r="3.6842105263157894" cx="533.3333333333335" cy="106.66666666666667" fill="none"></circle><circle r="3.6842105263157894" cx="560.0000000000001" cy="106.66666666666667" fill="none"></circle><circle r="3.6842105263157894" cx="586.6666666666667" cy="106.66666666666667" fill="none"></circle><circle r="3.6842105263157894" cx="613.3333333333334" cy="106.66666666666667" fill="none"></circle><circle r="3.6842105263157894" cx="640" cy="106.66666666666667" fill="none"></circle><circle r="3.6842105263157894" cx="666.6666666666666" cy="106.66666666666667" fill="none"></circle><circle r="3.6842105263157894" cx="693.3333333333333" cy="106.66666666666667" fill="none"></circle><circle r="3.6842105263157894" cx="719.9999999999999" cy="106.66666666666667" fill="none"></circle><circle r="3.6842105263157894" cx="746.6666666666665" cy="106.66666666666667" fill="none"></circle><circle r="3.6842105263157894" cx="773.3333333333331" cy="106.66666666666667" fill="none"></circle><circle r="3.6842105263157894" cx="799.9999999999998" cy="106.66666666666667" fill="none"></circle><circle r="3.6842105263157894" cx="0" cy="133.33333333333334" fill="none"></circle><circle r="3.6842105263157894" cx="26.666666666666668" cy="133.33333333333334" fill="none"></circle><circle r="3.6842105263157894" cx="53.333333333333336" cy="133.33333333333334" fill="none"></circle><circle r="3.6842105263157894" cx="80" cy="133.33333333333334" fill="none"></circle><circle r="3.6842105263157894" cx="106.66666666666667" cy="133.33333333333334" fill="none"></circle><circle r="3.6842105263157894" cx="133.33333333333334" cy="133.33333333333334" fill="none"></circle><circle r="3.6842105263157894" cx="160" cy="133.33333333333334" fill="none"></circle><circle r="3.6842105263157894" cx="186.66666666666666" cy="133.33333333333334" fill="none"></circle><circle r="3.6842105263157894" cx="213.33333333333331" cy="133.33333333333334" fill="none"></circle><circle r="3.6842105263157894" cx="239.99999999999997" cy="133.33333333333334" fill="none"></circle><circle r="3.6842105263157894" cx="266.66666666666663" cy="133.33333333333334" fill="none"></circle><circle r="3.6842105263157894" cx="293.3333333333333" cy="133.33333333333334" fill="none"></circle><circle r="3.6842105263157894" cx="320" cy="133.33333333333334" fill="none"></circle><circle r="3.6842105263157894" cx="346.6666666666667" cy="133.33333333333334" fill="none"></circle><circle r="3.6842105263157894" cx="373.33333333333337" cy="133.33333333333334" fill="none"></circle><circle r="3.6842105263157894" cx="400.00000000000006" cy="133.33333333333334" fill="none"></circle><circle r="3.6842105263157894" cx="426.66666666666674" cy="133.33333333333334" fill="none"></circle><circle r="3.6842105263157894" cx="453.3333333333334" cy="133.33333333333334" fill="none"></circle><circle r="3.6842105263157894" cx="480.0000000000001" cy="133.33333333333334" fill="none"></circle><circle r="3.6842105263157894" cx="506.6666666666668" cy="133.33333333333334" fill="none"></circle><circle r="3.6842105263157894" cx="533.3333333333335" cy="133.33333333333334" fill="none"></circle><circle r="3.6842105263157894" cx="560.0000000000001" cy="133.33333333333334" fill="none"></circle><circle r="3.6842105263157894" cx="586.6666666666667" cy="133.33333333333334" fill="none"></circle><circle r="3.6842105263157894" cx="613.3333333333334" cy="133.33333333333334" fill="none"></circle><circle r="3.6842105263157894" cx="640" cy="133.33333333333334" fill="none"></circle><circle r="3.6842105263157894" cx="666.6666666666666" cy="133.33333333333334" fill="none"></circle><circle r="3.6842105263157894" cx="693.3333333333333" cy="133.33333333333334" fill="none"></circle><circle r="3.6842105263157894" cx="719.9999999999999" cy="133.33333333333334" fill="none"></circle><circle r="3.6842105263157894" cx="746.6666666666665" cy="133.33333333333334" fill="none"></circle><circle r="3.6842105263157894" cx="773.3333333333331" cy="133.33333333333334" fill="none"></circle><circle r="3.6842105263157894" cx="799.9999999999998" cy="133.33333333333334" fill="none"></circle><circle r="3.6842105263157894" cx="0" cy="160" fill="none"></circle><circle r="3.6842105263157894" cx="26.666666666666668" cy="160" fill="none"></circle><circle r="3.6842105263157894" cx="53.333333333333336" cy="160" fill="none"></circle><circle r="3.6842105263157894" cx="80" cy="160" fill="none"></circle><circle r="3.6842105263157894" cx="106.66666666666667" cy="160" fill="none"></circle><circle r="3.6842105263157894" cx="133.33333333333334" cy="160" fill="none"></circle><circle r="3.6842105263157894" cx="160" cy="160" fill="none"></circle><circle r="3.6842105263157894" cx="186.66666666666666" cy="160" fill="none"></circle><circle r="3.6842105263157894" cx="213.33333333333331" cy="160" fill="none"></circle><circle r="3.6842105263157894" cx="239.99999999999997" cy="160" fill="none"></circle><circle r="3.6842105263157894" cx="266.66666666666663" cy="160" fill="none"></circle><circle r="3.6842105263157894" cx="293.3333333333333" cy="160" fill="none"></circle><circle r="3.6842105263157894" cx="320" cy="160" fill="none"></circle><circle r="3.6842105263157894" cx="346.6666666666667" cy="160" fill="none"></circle><circle r="3.6842105263157894" cx="373.33333333333337" cy="160" fill="none"></circle><circle r="3.6842105263157894" cx="400.00000000000006" cy="160" fill="none"></circle><circle r="3.6842105263157894" cx="426.66666666666674" cy="160" fill="none"></circle><circle r="3.6842105263157894" cx="453.3333333333334" cy="160" fill="none"></circle><circle r="3.6842105263157894" cx="480.0000000000001" cy="160" fill="none"></circle><circle r="3.6842105263157894" cx="506.6666666666668" cy="160" fill="none"></circle><circle r="3.6842105263157894" cx="533.3333333333335" cy="160" fill="none"></circle><circle r="3.6842105263157894" cx="560.0000000000001" cy="160" fill="none"></circle><circle r="3.6842105263157894" cx="586.6666666666667" cy="160" fill="none"></circle><circle r="3.6842105263157894" cx="613.3333333333334" cy="160" fill="none"></circle><circle r="3.6842105263157894" cx="640" cy="160" fill="none"></circle><circle r="3.6842105263157894" cx="666.6666666666666" cy="160" fill="none"></circle><circle r="3.6842105263157894" cx="693.3333333333333" cy="160" fill="none"></circle><circle r="3.6842105263157894" cx="719.9999999999999" cy="160" fill="none"></circle><circle r="3.6842105263157894" cx="746.6666666666665" cy="160" fill="none"></circle><circle r="3.6842105263157894" cx="773.3333333333331" cy="160" fill="none"></circle><circle r="3.6842105263157894" cx="799.9999999999998" cy="160" fill="none"></circle><circle r="3.6842105263157894" cx="0" cy="186.66666666666666" fill="none"></circle><circle r="3.6842105263157894" cx="26.666666666666668" cy="186.66666666666666" fill="none"></circle><circle r="3.6842105263157894" cx="53.333333333333336" cy="186.66666666666666" fill="none"></circle><circle r="3.6842105263157894" cx="80" cy="186.66666666666666" fill="none"></circle><circle r="3.6842105263157894" cx="106.66666666666667" cy="186.66666666666666" fill="none"></circle><circle r="3.6842105263157894" cx="133.33333333333334" cy="186.66666666666666" fill="none"></circle><circle r="3.6842105263157894" cx="160" cy="186.66666666666666" fill="none"></circle><circle r="3.6842105263157894" cx="186.66666666666666" cy="186.66666666666666" fill="none"></circle><circle r="3.6842105263157894" cx="213.33333333333331" cy="186.66666666666666" fill="none"></circle><circle r="3.6842105263157894" cx="239.99999999999997" cy="186.66666666666666" fill="none"></circle><circle r="3.6842105263157894" cx="266.66666666666663" cy="186.66666666666666" fill="none"></circle><circle r="3.6842105263157894" cx="293.3333333333333" cy="186.66666666666666" fill="none"></circle><circle r="3.6842105263157894" cx="320" cy="186.66666666666666" fill="none"></circle><circle r="3.6842105263157894" cx="346.6666666666667" cy="186.66666666666666" fill="none"></circle><circle r="3.6842105263157894" cx="373.33333333333337" cy="186.66666666666666" fill="none"></circle><circle r="3.6842105263157894" cx="400.00000000000006" cy="186.66666666666666" fill="none"></circle><circle r="3.6842105263157894" cx="426.66666666666674" cy="186.66666666666666" fill="none"></circle><circle r="3.6842105263157894" cx="453.3333333333334" cy="186.66666666666666" fill="none"></circle><circle r="3.6842105263157894" cx="480.0000000000001" cy="186.66666666666666" fill="none"></circle><circle r="3.6842105263157894" cx="506.6666666666668" cy="186.66666666666666" fill="none"></circle><circle r="3.6842105263157894" cx="533.3333333333335" cy="186.66666666666666" fill="none"></circle><circle r="3.6842105263157894" cx="560.0000000000001" cy="186.66666666666666" fill="none"></circle><circle r="3.6842105263157894" cx="586.6666666666667" cy="186.66666666666666" fill="none"></circle><circle r="3.6842105263157894" cx="613.3333333333334" cy="186.66666666666666" fill="none"></circle><circle r="3.6842105263157894" cx="640" cy="186.66666666666666" fill="none"></circle><circle r="3.6842105263157894" cx="666.6666666666666" cy="186.66666666666666" fill="none"></circle><circle r="3.6842105263157894" cx="693.3333333333333" cy="186.66666666666666" fill="none"></circle><circle r="3.6842105263157894" cx="719.9999999999999" cy="186.66666666666666" fill="none"></circle><circle r="3.6842105263157894" cx="746.6666666666665" cy="186.66666666666666" fill="none"></circle><circle r="3.6842105263157894" cx="773.3333333333331" cy="186.66666666666666" fill="none"></circle><circle r="3.6842105263157894" cx="799.9999999999998" cy="186.66666666666666" fill="none"></circle><circle r="3.6842105263157894" cx="0" cy="213.33333333333331" fill="none"></circle><circle r="3.6842105263157894" cx="26.666666666666668" cy="213.33333333333331" fill="none"></circle><circle r="3.6842105263157894" cx="53.333333333333336" cy="213.33333333333331" fill="none"></circle><circle r="3.6842105263157894" cx="80" cy="213.33333333333331" fill="none"></circle><circle r="3.6842105263157894" cx="106.66666666666667" cy="213.33333333333331" fill="none"></circle><circle r="3.6842105263157894" cx="133.33333333333334" cy="213.33333333333331" fill="none"></circle><circle r="3.6842105263157894" cx="160" cy="213.33333333333331" fill="none"></circle><circle r="3.6842105263157894" cx="186.66666666666666" cy="213.33333333333331" fill="none"></circle><circle r="3.6842105263157894" cx="213.33333333333331" cy="213.33333333333331" fill="none"></circle><circle r="3.6842105263157894" cx="239.99999999999997" cy="213.33333333333331" fill="none"></circle><circle r="3.6842105263157894" cx="266.66666666666663" cy="213.33333333333331" fill="none"></circle><circle r="3.6842105263157894" cx="293.3333333333333" cy="213.33333333333331" fill="none"></circle><circle r="3.6842105263157894" cx="320" cy="213.33333333333331" fill="none"></circle><circle r="3.6842105263157894" cx="346.6666666666667" cy="213.33333333333331" fill="none"></circle><circle r="3.6842105263157894" cx="373.33333333333337" cy="213.33333333333331" fill="none"></circle><circle r="3.6842105263157894" cx="400.00000000000006" cy="213.33333333333331" fill="none"></circle><circle r="3.6842105263157894" cx="426.66666666666674" cy="213.33333333333331" fill="none"></circle><circle r="3.6842105263157894" cx="453.3333333333334" cy="213.33333333333331" fill="none"></circle><circle r="3.6842105263157894" cx="480.0000000000001" cy="213.33333333333331" fill="none"></circle><circle r="3.6842105263157894" cx="506.6666666666668" cy="213.33333333333331" fill="none"></circle><circle r="3.6842105263157894" cx="533.3333333333335" cy="213.33333333333331" fill="none"></circle><circle r="3.6842105263157894" cx="560.0000000000001" cy="213.33333333333331" fill="none"></circle><circle r="3.6842105263157894" cx="586.6666666666667" cy="213.33333333333331" fill="none"></circle><circle r="3.6842105263157894" cx="613.3333333333334" cy="213.33333333333331" fill="none"></circle><circle r="3.6842105263157894" cx="640" cy="213.33333333333331" fill="none"></circle><circle r="3.6842105263157894" cx="666.6666666666666" cy="213.33333333333331" fill="none"></circle><circle r="3.6842105263157894" cx="693.3333333333333" cy="213.33333333333331" fill="none"></circle><circle r="3.6842105263157894" cx="719.9999999999999" cy="213.33333333333331" fill="none"></circle><circle r="3.6842105263157894" cx="746.6666666666665" cy="213.33333333333331" fill="none"></circle><circle r="3.6842105263157894" cx="773.3333333333331" cy="213.33333333333331" fill="none"></circle><circle r="3.6842105263157894" cx="799.9999999999998" cy="213.33333333333331" fill="none"></circle><circle r="3.6842105263157894" cx="0" cy="239.99999999999997" fill="none"></circle><circle r="3.6842105263157894" cx="26.666666666666668" cy="239.99999999999997" fill="none"></circle><circle r="3.6842105263157894" cx="53.333333333333336" cy="239.99999999999997" fill="none"></circle><circle r="3.6842105263157894" cx="80" cy="239.99999999999997" fill="none"></circle><circle r="3.6842105263157894" cx="106.66666666666667" cy="239.99999999999997" fill="none"></circle><circle r="3.6842105263157894" cx="133.33333333333334" cy="239.99999999999997" fill="none"></circle><circle r="3.6842105263157894" cx="160" cy="239.99999999999997" fill="none"></circle><circle r="3.6842105263157894" cx="186.66666666666666" cy="239.99999999999997" fill="none"></circle><circle r="3.6842105263157894" cx="213.33333333333331" cy="239.99999999999997" fill="none"></circle><circle r="3.6842105263157894" cx="239.99999999999997" cy="239.99999999999997" fill="none"></circle><circle r="3.6842105263157894" cx="266.66666666666663" cy="239.99999999999997" fill="none"></circle><circle r="3.6842105263157894" cx="293.3333333333333" cy="239.99999999999997" fill="none"></circle><circle r="3.6842105263157894" cx="320" cy="239.99999999999997" fill="none"></circle><circle r="3.6842105263157894" cx="346.6666666666667" cy="239.99999999999997" fill="none"></circle><circle r="3.6842105263157894" cx="373.33333333333337" cy="239.99999999999997" fill="none"></circle><circle r="3.6842105263157894" cx="400.00000000000006" cy="239.99999999999997" fill="none"></circle><circle r="3.6842105263157894" cx="426.66666666666674" cy="239.99999999999997" fill="none"></circle><circle r="3.6842105263157894" cx="453.3333333333334" cy="239.99999999999997" fill="none"></circle><circle r="3.6842105263157894" cx="480.0000000000001" cy="239.99999999999997" fill="none"></circle><circle r="3.6842105263157894" cx="506.6666666666668" cy="239.99999999999997" fill="none"></circle><circle r="3.6842105263157894" cx="533.3333333333335" cy="239.99999999999997" fill="none"></circle><circle r="3.6842105263157894" cx="560.0000000000001" cy="239.99999999999997" fill="none"></circle><circle r="3.6842105263157894" cx="586.6666666666667" cy="239.99999999999997" fill="none"></circle><circle r="3.6842105263157894" cx="613.3333333333334" cy="239.99999999999997" fill="none"></circle><circle r="3.6842105263157894" cx="640" cy="239.99999999999997" fill="none"></circle><circle r="3.6842105263157894" cx="666.6666666666666" cy="239.99999999999997" fill="none"></circle><circle r="3.6842105263157894" cx="693.3333333333333" cy="239.99999999999997" fill="none"></circle><circle r="3.6842105263157894" cx="719.9999999999999" cy="239.99999999999997" fill="none"></circle><circle r="3.6842105263157894" cx="746.6666666666665" cy="239.99999999999997" fill="none"></circle><circle r="3.6842105263157894" cx="773.3333333333331" cy="239.99999999999997" fill="none"></circle><circle r="3.6842105263157894" cx="799.9999999999998" cy="239.99999999999997" fill="none"></circle><circle r="3.6842105263157894" cx="0" cy="266.66666666666663" fill="none"></circle><circle r="3.6842105263157894" cx="26.666666666666668" cy="266.66666666666663" fill="none"></circle><circle r="3.6842105263157894" cx="53.333333333333336" cy="266.66666666666663" fill="none"></circle><circle r="3.6842105263157894" cx="80" cy="266.66666666666663" fill="none"></circle><circle r="3.6842105263157894" cx="106.66666666666667" cy="266.66666666666663" fill="none"></circle><circle r="3.6842105263157894" cx="133.33333333333334" cy="266.66666666666663" fill="none"></circle><circle r="3.6842105263157894" cx="160" cy="266.66666666666663" fill="none"></circle><circle r="3.6842105263157894" cx="186.66666666666666" cy="266.66666666666663" fill="none"></circle><circle r="3.6842105263157894" cx="213.33333333333331" cy="266.66666666666663" fill="none"></circle><circle r="3.6842105263157894" cx="239.99999999999997" cy="266.66666666666663" fill="none"></circle><circle r="3.6842105263157894" cx="266.66666666666663" cy="266.66666666666663" fill="none"></circle><circle r="3.6842105263157894" cx="293.3333333333333" cy="266.66666666666663" fill="none"></circle><circle r="3.6842105263157894" cx="320" cy="266.66666666666663" fill="none"></circle><circle r="3.6842105263157894" cx="346.6666666666667" cy="266.66666666666663" fill="none"></circle><circle r="3.6842105263157894" cx="373.33333333333337" cy="266.66666666666663" fill="none"></circle><circle r="3.6842105263157894" cx="400.00000000000006" cy="266.66666666666663" fill="none"></circle><circle r="3.6842105263157894" cx="426.66666666666674" cy="266.66666666666663" fill="none"></circle><circle r="3.6842105263157894" cx="453.3333333333334" cy="266.66666666666663" fill="none"></circle><circle r="3.6842105263157894" cx="480.0000000000001" cy="266.66666666666663" fill="none"></circle><circle r="3.6842105263157894" cx="506.6666666666668" cy="266.66666666666663" fill="none"></circle><circle r="3.6842105263157894" cx="533.3333333333335" cy="266.66666666666663" fill="none"></circle><circle r="3.6842105263157894" cx="560.0000000000001" cy="266.66666666666663" fill="none"></circle><circle r="3.6842105263157894" cx="586.6666666666667" cy="266.66666666666663" fill="none"></circle><circle r="3.6842105263157894" cx="613.3333333333334" cy="266.66666666666663" fill="none"></circle><circle r="3.6842105263157894" cx="640" cy="266.66666666666663" fill="none"></circle><circle r="3.6842105263157894" cx="666.6666666666666" cy="266.66666666666663" fill="none"></circle><circle r="3.6842105263157894" cx="693.3333333333333" cy="266.66666666666663" fill="none"></circle><circle r="3.6842105263157894" cx="719.9999999999999" cy="266.66666666666663" fill="none"></circle><circle r="3.6842105263157894" cx="746.6666666666665" cy="266.66666666666663" fill="none"></circle><circle r="3.6842105263157894" cx="773.3333333333331" cy="266.66666666666663" fill="none"></circle><circle r="3.6842105263157894" cx="799.9999999999998" cy="266.66666666666663" fill="none"></circle><circle r="3.6842105263157894" cx="0" cy="293.3333333333333" fill="none"></circle><circle r="3.6842105263157894" cx="26.666666666666668" cy="293.3333333333333" fill="none"></circle><circle r="3.6842105263157894" cx="53.333333333333336" cy="293.3333333333333" fill="none"></circle><circle r="3.6842105263157894" cx="80" cy="293.3333333333333" fill="none"></circle><circle r="3.6842105263157894" cx="106.66666666666667" cy="293.3333333333333" fill="none"></circle><circle r="3.6842105263157894" cx="133.33333333333334" cy="293.3333333333333" fill="none"></circle><circle r="3.6842105263157894" cx="160" cy="293.3333333333333" fill="none"></circle><circle r="3.6842105263157894" cx="186.66666666666666" cy="293.3333333333333" fill="none"></circle><circle r="3.6842105263157894" cx="213.33333333333331" cy="293.3333333333333" fill="none"></circle><circle r="3.6842105263157894" cx="239.99999999999997" cy="293.3333333333333" fill="none"></circle><circle r="3.6842105263157894" cx="266.66666666666663" cy="293.3333333333333" fill="none"></circle><circle r="3.6842105263157894" cx="293.3333333333333" cy="293.3333333333333" fill="none"></circle><circle r="3.6842105263157894" cx="320" cy="293.3333333333333" fill="none"></circle><circle r="3.6842105263157894" cx="346.6666666666667" cy="293.3333333333333" fill="none"></circle><circle r="3.6842105263157894" cx="373.33333333333337" cy="293.3333333333333" fill="none"></circle><circle r="3.6842105263157894" cx="400.00000000000006" cy="293.3333333333333" fill="none"></circle><circle r="3.6842105263157894" cx="426.66666666666674" cy="293.3333333333333" fill="none"></circle><circle r="3.6842105263157894" cx="453.3333333333334" cy="293.3333333333333" fill="none"></circle><circle r="3.6842105263157894" cx="480.0000000000001" cy="293.3333333333333" fill="none"></circle><circle r="3.6842105263157894" cx="506.6666666666668" cy="293.3333333333333" fill="none"></circle><circle r="3.6842105263157894" cx="533.3333333333335" cy="293.3333333333333" fill="none"></circle><circle r="3.6842105263157894" cx="560.0000000000001" cy="293.3333333333333" fill="none"></circle><circle r="3.6842105263157894" cx="586.6666666666667" cy="293.3333333333333" fill="none"></circle><circle r="3.6842105263157894" cx="613.3333333333334" cy="293.3333333333333" fill="none"></circle><circle r="3.6842105263157894" cx="640" cy="293.3333333333333" fill="none"></circle><circle r="3.6842105263157894" cx="666.6666666666666" cy="293.3333333333333" fill="none"></circle><circle r="3.6842105263157894" cx="693.3333333333333" cy="293.3333333333333" fill="none"></circle><circle r="3.6842105263157894" cx="719.9999999999999" cy="293.3333333333333" fill="none"></circle><circle r="3.6842105263157894" cx="746.6666666666665" cy="293.3333333333333" fill="none"></circle><circle r="3.6842105263157894" cx="773.3333333333331" cy="293.3333333333333" fill="none"></circle><circle r="3.6842105263157894" cx="799.9999999999998" cy="293.3333333333333" fill="none"></circle><circle r="3.6842105263157894" cx="0" cy="320" fill="none"></circle><circle r="3.6842105263157894" cx="26.666666666666668" cy="320" fill="none"></circle><circle r="3.6842105263157894" cx="53.333333333333336" cy="320" fill="none"></circle><circle r="3.6842105263157894" cx="80" cy="320" fill="none"></circle><circle r="3.6842105263157894" cx="106.66666666666667" cy="320" fill="none"></circle><circle r="3.6842105263157894" cx="133.33333333333334" cy="320" fill="none"></circle><circle r="3.6842105263157894" cx="160" cy="320" fill="none"></circle><circle r="3.6842105263157894" cx="186.66666666666666" cy="320" fill="none"></circle><circle r="3.6842105263157894" cx="213.33333333333331" cy="320" fill="none"></circle><circle r="3.6842105263157894" cx="239.99999999999997" cy="320" fill="none"></circle><circle r="3.6842105263157894" cx="266.66666666666663" cy="320" fill="none"></circle><circle r="3.6842105263157894" cx="293.3333333333333" cy="320" fill="none"></circle><circle r="3.6842105263157894" cx="320" cy="320" fill="none"></circle><circle r="3.6842105263157894" cx="346.6666666666667" cy="320" fill="none"></circle><circle r="3.6842105263157894" cx="373.33333333333337" cy="320" fill="none"></circle><circle r="3.6842105263157894" cx="400.00000000000006" cy="320" fill="none"></circle><circle r="3.6842105263157894" cx="426.66666666666674" cy="320" fill="none"></circle><circle r="3.6842105263157894" cx="453.3333333333334" cy="320" fill="none"></circle><circle r="3.6842105263157894" cx="480.0000000000001" cy="320" fill="none"></circle><circle r="3.6842105263157894" cx="506.6666666666668" cy="320" fill="none"></circle><circle r="3.6842105263157894" cx="533.3333333333335" cy="320" fill="none"></circle><circle r="3.6842105263157894" cx="560.0000000000001" cy="320" fill="none"></circle><circle r="3.6842105263157894" cx="586.6666666666667" cy="320" fill="none"></circle><circle r="3.6842105263157894" cx="613.3333333333334" cy="320" fill="none"></circle><circle r="3.6842105263157894" cx="640" cy="320" fill="none"></circle><circle r="3.6842105263157894" cx="666.6666666666666" cy="320" fill="none"></circle><circle r="3.6842105263157894" cx="693.3333333333333" cy="320" fill="none"></circle><circle r="3.6842105263157894" cx="719.9999999999999" cy="320" fill="none"></circle><circle r="3.6842105263157894" cx="746.6666666666665" cy="320" fill="none"></circle><circle r="3.6842105263157894" cx="773.3333333333331" cy="320" fill="none"></circle><circle r="3.6842105263157894" cx="799.9999999999998" cy="320" fill="none"></circle><circle r="3.6842105263157894" cx="0" cy="346.6666666666667" fill="none"></circle><circle r="3.6842105263157894" cx="26.666666666666668" cy="346.6666666666667" fill="none"></circle><circle r="3.6842105263157894" cx="53.333333333333336" cy="346.6666666666667" fill="none"></circle><circle r="3.6842105263157894" cx="80" cy="346.6666666666667" fill="none"></circle><circle r="3.6842105263157894" cx="106.66666666666667" cy="346.6666666666667" fill="none"></circle><circle r="3.6842105263157894" cx="133.33333333333334" cy="346.6666666666667" fill="none"></circle><circle r="3.6842105263157894" cx="160" cy="346.6666666666667" fill="none"></circle><circle r="3.6842105263157894" cx="186.66666666666666" cy="346.6666666666667" fill="none"></circle><circle r="3.6842105263157894" cx="213.33333333333331" cy="346.6666666666667" fill="none"></circle><circle r="3.6842105263157894" cx="239.99999999999997" cy="346.6666666666667" fill="none"></circle><circle r="3.6842105263157894" cx="266.66666666666663" cy="346.6666666666667" fill="none"></circle><circle r="3.6842105263157894" cx="293.3333333333333" cy="346.6666666666667" fill="none"></circle><circle r="3.6842105263157894" cx="320" cy="346.6666666666667" fill="none"></circle><circle r="3.6842105263157894" cx="346.6666666666667" cy="346.6666666666667" fill="none"></circle><circle r="3.6842105263157894" cx="373.33333333333337" cy="346.6666666666667" fill="none"></circle><circle r="3.6842105263157894" cx="400.00000000000006" cy="346.6666666666667" fill="none"></circle><circle r="3.6842105263157894" cx="426.66666666666674" cy="346.6666666666667" fill="none"></circle><circle r="3.6842105263157894" cx="453.3333333333334" cy="346.6666666666667" fill="none"></circle><circle r="3.6842105263157894" cx="480.0000000000001" cy="346.6666666666667" fill="none"></circle><circle r="3.6842105263157894" cx="506.6666666666668" cy="346.6666666666667" fill="none"></circle><circle r="3.6842105263157894" cx="533.3333333333335" cy="346.6666666666667" fill="none"></circle><circle r="3.6842105263157894" cx="560.0000000000001" cy="346.6666666666667" fill="none"></circle><circle r="3.6842105263157894" cx="586.6666666666667" cy="346.6666666666667" fill="none"></circle><circle r="3.6842105263157894" cx="613.3333333333334" cy="346.6666666666667" fill="none"></circle><circle r="3.6842105263157894" cx="640" cy="346.6666666666667" fill="none"></circle><circle r="3.6842105263157894" cx="666.6666666666666" cy="346.6666666666667" fill="none"></circle><circle r="3.6842105263157894" cx="693.3333333333333" cy="346.6666666666667" fill="none"></circle><circle r="3.6842105263157894" cx="719.9999999999999" cy="346.6666666666667" fill="none"></circle><circle r="3.6842105263157894" cx="746.6666666666665" cy="346.6666666666667" fill="none"></circle><circle r="3.6842105263157894" cx="773.3333333333331" cy="346.6666666666667" fill="none"></circle><circle r="3.6842105263157894" cx="799.9999999999998" cy="346.6666666666667" fill="none"></circle><circle r="3.6842105263157894" cx="0" cy="373.33333333333337" fill="none"></circle><circle r="3.6842105263157894" cx="26.666666666666668" cy="373.33333333333337" fill="none"></circle><circle r="3.6842105263157894" cx="53.333333333333336" cy="373.33333333333337" fill="none"></circle><circle r="3.6842105263157894" cx="80" cy="373.33333333333337" fill="none"></circle><circle r="3.6842105263157894" cx="106.66666666666667" cy="373.33333333333337" fill="none"></circle><circle r="3.6842105263157894" cx="133.33333333333334" cy="373.33333333333337" fill="none"></circle><circle r="3.6842105263157894" cx="160" cy="373.33333333333337" fill="none"></circle><circle r="3.6842105263157894" cx="186.66666666666666" cy="373.33333333333337" fill="none"></circle><circle r="3.6842105263157894" cx="213.33333333333331" cy="373.33333333333337" fill="none"></circle><circle r="3.6842105263157894" cx="239.99999999999997" cy="373.33333333333337" fill="none"></circle><circle r="3.6842105263157894" cx="266.66666666666663" cy="373.33333333333337" fill="none"></circle><circle r="3.6842105263157894" cx="293.3333333333333" cy="373.33333333333337" fill="none"></circle><circle r="3.6842105263157894" cx="320" cy="373.33333333333337" fill="none"></circle><circle r="3.6842105263157894" cx="346.6666666666667" cy="373.33333333333337" fill="none"></circle><circle r="3.6842105263157894" cx="373.33333333333337" cy="373.33333333333337" fill="none"></circle><circle r="3.6842105263157894" cx="400.00000000000006" cy="373.33333333333337" fill="none"></circle><circle r="3.6842105263157894" cx="426.66666666666674" cy="373.33333333333337" fill="none"></circle><circle r="3.6842105263157894" cx="453.3333333333334" cy="373.33333333333337" fill="none"></circle><circle r="3.6842105263157894" cx="480.0000000000001" cy="373.33333333333337" fill="none"></circle><circle r="3.6842105263157894" cx="506.6666666666668" cy="373.33333333333337" fill="none"></circle><circle r="3.6842105263157894" cx="533.3333333333335" cy="373.33333333333337" fill="none"></circle><circle r="3.6842105263157894" cx="560.0000000000001" cy="373.33333333333337" fill="none"></circle><circle r="3.6842105263157894" cx="586.6666666666667" cy="373.33333333333337" fill="none"></circle><circle r="3.6842105263157894" cx="613.3333333333334" cy="373.33333333333337" fill="none"></circle><circle r="3.6842105263157894" cx="640" cy="373.33333333333337" fill="none"></circle><circle r="3.6842105263157894" cx="666.6666666666666" cy="373.33333333333337" fill="none"></circle><circle r="3.6842105263157894" cx="693.3333333333333" cy="373.33333333333337" fill="none"></circle><circle r="3.6842105263157894" cx="719.9999999999999" cy="373.33333333333337" fill="none"></circle><circle r="3.6842105263157894" cx="746.6666666666665" cy="373.33333333333337" fill="none"></circle><circle r="3.6842105263157894" cx="773.3333333333331" cy="373.33333333333337" fill="none"></circle><circle r="3.6842105263157894" cx="799.9999999999998" cy="373.33333333333337" fill="none"></circle><circle r="3.6842105263157894" cx="0" cy="400.00000000000006" fill="none"></circle><circle r="3.6842105263157894" cx="26.666666666666668" cy="400.00000000000006" fill="none"></circle><circle r="3.6842105263157894" cx="53.333333333333336" cy="400.00000000000006" fill="none"></circle><circle r="3.6842105263157894" cx="80" cy="400.00000000000006" fill="none"></circle><circle r="3.6842105263157894" cx="106.66666666666667" cy="400.00000000000006" fill="none"></circle><circle r="3.6842105263157894" cx="133.33333333333334" cy="400.00000000000006" fill="none"></circle><circle r="3.6842105263157894" cx="160" cy="400.00000000000006" fill="none"></circle><circle r="3.6842105263157894" cx="186.66666666666666" cy="400.00000000000006" fill="none"></circle><circle r="3.6842105263157894" cx="213.33333333333331" cy="400.00000000000006" fill="none"></circle><circle r="3.6842105263157894" cx="239.99999999999997" cy="400.00000000000006" fill="none"></circle><circle r="3.6842105263157894" cx="266.66666666666663" cy="400.00000000000006" fill="none"></circle><circle r="3.6842105263157894" cx="293.3333333333333" cy="400.00000000000006" fill="none"></circle><circle r="3.6842105263157894" cx="320" cy="400.00000000000006" fill="none"></circle><circle r="3.6842105263157894" cx="346.6666666666667" cy="400.00000000000006" fill="none"></circle><circle r="3.6842105263157894" cx="373.33333333333337" cy="400.00000000000006" fill="none"></circle><circle r="3.6842105263157894" cx="400.00000000000006" cy="400.00000000000006" fill="none"></circle><circle r="3.6842105263157894" cx="426.66666666666674" cy="400.00000000000006" fill="none"></circle><circle r="3.6842105263157894" cx="453.3333333333334" cy="400.00000000000006" fill="none"></circle><circle r="3.6842105263157894" cx="480.0000000000001" cy="400.00000000000006" fill="none"></circle><circle r="3.6842105263157894" cx="506.6666666666668" cy="400.00000000000006" fill="none"></circle><circle r="3.6842105263157894" cx="533.3333333333335" cy="400.00000000000006" fill="none"></circle><circle r="3.6842105263157894" cx="560.0000000000001" cy="400.00000000000006" fill="none"></circle><circle r="3.6842105263157894" cx="586.6666666666667" cy="400.00000000000006" fill="none"></circle><circle r="3.6842105263157894" cx="613.3333333333334" cy="400.00000000000006" fill="none"></circle><circle r="3.6842105263157894" cx="640" cy="400.00000000000006" fill="none"></circle><circle r="3.6842105263157894" cx="666.6666666666666" cy="400.00000000000006" fill="none"></circle><circle r="3.6842105263157894" cx="693.3333333333333" cy="400.00000000000006" fill="none"></circle><circle r="3.6842105263157894" cx="719.9999999999999" cy="400.00000000000006" fill="none"></circle><circle r="3.6842105263157894" cx="746.6666666666665" cy="400.00000000000006" fill="none"></circle><circle r="3.6842105263157894" cx="773.3333333333331" cy="400.00000000000006" fill="none"></circle><circle r="3.6842105263157894" cx="799.9999999999998" cy="400.00000000000006" fill="none"></circle><circle r="3.6842105263157894" cx="0" cy="426.66666666666674" fill="none"></circle><circle r="3.6842105263157894" cx="26.666666666666668" cy="426.66666666666674" fill="none"></circle><circle r="3.6842105263157894" cx="53.333333333333336" cy="426.66666666666674" fill="none"></circle><circle r="3.6842105263157894" cx="80" cy="426.66666666666674" fill="none"></circle><circle r="3.6842105263157894" cx="106.66666666666667" cy="426.66666666666674" fill="none"></circle><circle r="3.6842105263157894" cx="133.33333333333334" cy="426.66666666666674" fill="none"></circle><circle r="3.6842105263157894" cx="160" cy="426.66666666666674" fill="none"></circle><circle r="3.6842105263157894" cx="186.66666666666666" cy="426.66666666666674" fill="none"></circle><circle r="3.6842105263157894" cx="213.33333333333331" cy="426.66666666666674" fill="none"></circle><circle r="3.6842105263157894" cx="239.99999999999997" cy="426.66666666666674" fill="none"></circle><circle r="3.6842105263157894" cx="266.66666666666663" cy="426.66666666666674" fill="none"></circle><circle r="3.6842105263157894" cx="293.3333333333333" cy="426.66666666666674" fill="none"></circle><circle r="3.6842105263157894" cx="320" cy="426.66666666666674" fill="none"></circle><circle r="3.6842105263157894" cx="346.6666666666667" cy="426.66666666666674" fill="none"></circle><circle r="3.6842105263157894" cx="373.33333333333337" cy="426.66666666666674" fill="none"></circle><circle r="3.6842105263157894" cx="400.00000000000006" cy="426.66666666666674" fill="none"></circle><circle r="3.6842105263157894" cx="426.66666666666674" cy="426.66666666666674" fill="none"></circle><circle r="3.6842105263157894" cx="453.3333333333334" cy="426.66666666666674" fill="none"></circle><circle r="3.6842105263157894" cx="480.0000000000001" cy="426.66666666666674" fill="none"></circle><circle r="3.6842105263157894" cx="506.6666666666668" cy="426.66666666666674" fill="none"></circle><circle r="3.6842105263157894" cx="533.3333333333335" cy="426.66666666666674" fill="none"></circle><circle r="3.6842105263157894" cx="560.0000000000001" cy="426.66666666666674" fill="none"></circle><circle r="3.6842105263157894" cx="586.6666666666667" cy="426.66666666666674" fill="none"></circle><circle r="3.6842105263157894" cx="613.3333333333334" cy="426.66666666666674" fill="none"></circle><circle r="3.6842105263157894" cx="640" cy="426.66666666666674" fill="none"></circle><circle r="3.6842105263157894" cx="666.6666666666666" cy="426.66666666666674" fill="none"></circle><circle r="3.6842105263157894" cx="693.3333333333333" cy="426.66666666666674" fill="none"></circle><circle r="3.6842105263157894" cx="719.9999999999999" cy="426.66666666666674" fill="none"></circle><circle r="3.6842105263157894" cx="746.6666666666665" cy="426.66666666666674" fill="none"></circle><circle r="3.6842105263157894" cx="773.3333333333331" cy="426.66666666666674" fill="none"></circle><circle r="3.6842105263157894" cx="799.9999999999998" cy="426.66666666666674" fill="none"></circle><circle r="3.6842105263157894" cx="0" cy="453.3333333333334" fill="none"></circle><circle r="3.6842105263157894" cx="26.666666666666668" cy="453.3333333333334" fill="none"></circle><circle r="3.6842105263157894" cx="53.333333333333336" cy="453.3333333333334" fill="none"></circle><circle r="3.6842105263157894" cx="80" cy="453.3333333333334" fill="none"></circle><circle r="3.6842105263157894" cx="106.66666666666667" cy="453.3333333333334" fill="none"></circle><circle r="3.6842105263157894" cx="133.33333333333334" cy="453.3333333333334" fill="none"></circle><circle r="3.6842105263157894" cx="160" cy="453.3333333333334" fill="none"></circle><circle r="3.6842105263157894" cx="186.66666666666666" cy="453.3333333333334" fill="none"></circle><circle r="3.6842105263157894" cx="213.33333333333331" cy="453.3333333333334" fill="none"></circle><circle r="3.6842105263157894" cx="239.99999999999997" cy="453.3333333333334" fill="none"></circle><circle r="3.6842105263157894" cx="266.66666666666663" cy="453.3333333333334" fill="none"></circle><circle r="3.6842105263157894" cx="293.3333333333333" cy="453.3333333333334" fill="none"></circle><circle r="3.6842105263157894" cx="320" cy="453.3333333333334" fill="none"></circle><circle r="3.6842105263157894" cx="346.6666666666667" cy="453.3333333333334" fill="none"></circle><circle r="3.6842105263157894" cx="373.33333333333337" cy="453.3333333333334" fill="none"></circle><circle r="3.6842105263157894" cx="400.00000000000006" cy="453.3333333333334" fill="none"></circle><circle r="3.6842105263157894" cx="426.66666666666674" cy="453.3333333333334" fill="none"></circle><circle r="3.6842105263157894" cx="453.3333333333334" cy="453.3333333333334" fill="none"></circle><circle r="3.6842105263157894" cx="480.0000000000001" cy="453.3333333333334" fill="none"></circle><circle r="3.6842105263157894" cx="506.6666666666668" cy="453.3333333333334" fill="none"></circle><circle r="3.6842105263157894" cx="533.3333333333335" cy="453.3333333333334" fill="none"></circle><circle r="3.6842105263157894" cx="560.0000000000001" cy="453.3333333333334" fill="none"></circle><circle r="3.6842105263157894" cx="586.6666666666667" cy="453.3333333333334" fill="none"></circle><circle r="3.6842105263157894" cx="613.3333333333334" cy="453.3333333333334" fill="none"></circle><circle r="3.6842105263157894" cx="640" cy="453.3333333333334" fill="none"></circle><circle r="3.6842105263157894" cx="666.6666666666666" cy="453.3333333333334" fill="none"></circle><circle r="3.6842105263157894" cx="693.3333333333333" cy="453.3333333333334" fill="none"></circle><circle r="3.6842105263157894" cx="719.9999999999999" cy="453.3333333333334" fill="none"></circle><circle r="3.6842105263157894" cx="746.6666666666665" cy="453.3333333333334" fill="none"></circle><circle r="3.6842105263157894" cx="773.3333333333331" cy="453.3333333333334" fill="none"></circle><circle r="3.6842105263157894" cx="799.9999999999998" cy="453.3333333333334" fill="none"></circle><circle r="3.6842105263157894" cx="0" cy="480.0000000000001" fill="none"></circle><circle r="3.6842105263157894" cx="26.666666666666668" cy="480.0000000000001" fill="none"></circle><circle r="3.6842105263157894" cx="53.333333333333336" cy="480.0000000000001" fill="none"></circle><circle r="3.6842105263157894" cx="80" cy="480.0000000000001" fill="none"></circle><circle r="3.6842105263157894" cx="106.66666666666667" cy="480.0000000000001" fill="none"></circle><circle r="3.6842105263157894" cx="133.33333333333334" cy="480.0000000000001" fill="none"></circle><circle r="3.6842105263157894" cx="160" cy="480.0000000000001" fill="none"></circle><circle r="3.6842105263157894" cx="186.66666666666666" cy="480.0000000000001" fill="none"></circle><circle r="3.6842105263157894" cx="213.33333333333331" cy="480.0000000000001" fill="none"></circle><circle r="3.6842105263157894" cx="239.99999999999997" cy="480.0000000000001" fill="none"></circle><circle r="3.6842105263157894" cx="266.66666666666663" cy="480.0000000000001" fill="none"></circle><circle r="3.6842105263157894" cx="293.3333333333333" cy="480.0000000000001" fill="none"></circle><circle r="3.6842105263157894" cx="320" cy="480.0000000000001" fill="none"></circle><circle r="3.6842105263157894" cx="346.6666666666667" cy="480.0000000000001" fill="none"></circle><circle r="3.6842105263157894" cx="373.33333333333337" cy="480.0000000000001" fill="none"></circle><circle r="3.6842105263157894" cx="400.00000000000006" cy="480.0000000000001" fill="none"></circle><circle r="3.6842105263157894" cx="426.66666666666674" cy="480.0000000000001" fill="none"></circle><circle r="3.6842105263157894" cx="453.3333333333334" cy="480.0000000000001" fill="none"></circle><circle r="3.6842105263157894" cx="480.0000000000001" cy="480.0000000000001" fill="none"></circle><circle r="3.6842105263157894" cx="506.6666666666668" cy="480.0000000000001" fill="none"></circle><circle r="3.6842105263157894" cx="533.3333333333335" cy="480.0000000000001" fill="none"></circle><circle r="3.6842105263157894" cx="560.0000000000001" cy="480.0000000000001" fill="none"></circle><circle r="3.6842105263157894" cx="586.6666666666667" cy="480.0000000000001" fill="none"></circle><circle r="3.6842105263157894" cx="613.3333333333334" cy="480.0000000000001" fill="none"></circle><circle r="3.6842105263157894" cx="640" cy="480.0000000000001" fill="none"></circle><circle r="3.6842105263157894" cx="666.6666666666666" cy="480.0000000000001" fill="none"></circle><circle r="3.6842105263157894" cx="693.3333333333333" cy="480.0000000000001" fill="none"></circle><circle r="3.6842105263157894" cx="719.9999999999999" cy="480.0000000000001" fill="none"></circle><circle r="3.6842105263157894" cx="746.6666666666665" cy="480.0000000000001" fill="none"></circle><circle r="3.6842105263157894" cx="773.3333333333331" cy="480.0000000000001" fill="none"></circle><circle r="3.6842105263157894" cx="799.9999999999998" cy="480.0000000000001" fill="none"></circle><circle r="3.6842105263157894" cx="0" cy="506.6666666666668" fill="none"></circle><circle r="3.6842105263157894" cx="26.666666666666668" cy="506.6666666666668" fill="none"></circle><circle r="3.6842105263157894" cx="53.333333333333336" cy="506.6666666666668" fill="none"></circle><circle r="3.6842105263157894" cx="80" cy="506.6666666666668" fill="none"></circle><circle r="3.6842105263157894" cx="106.66666666666667" cy="506.6666666666668" fill="none"></circle><circle r="3.6842105263157894" cx="133.33333333333334" cy="506.6666666666668" fill="none"></circle><circle r="3.6842105263157894" cx="160" cy="506.6666666666668" fill="none"></circle><circle r="3.6842105263157894" cx="186.66666666666666" cy="506.6666666666668" fill="none"></circle><circle r="3.6842105263157894" cx="213.33333333333331" cy="506.6666666666668" fill="none"></circle><circle r="3.6842105263157894" cx="239.99999999999997" cy="506.6666666666668" fill="none"></circle><circle r="3.6842105263157894" cx="266.66666666666663" cy="506.6666666666668" fill="none"></circle><circle r="3.6842105263157894" cx="293.3333333333333" cy="506.6666666666668" fill="none"></circle><circle r="3.6842105263157894" cx="320" cy="506.6666666666668" fill="none"></circle><circle r="3.6842105263157894" cx="346.6666666666667" cy="506.6666666666668" fill="none"></circle><circle r="3.6842105263157894" cx="373.33333333333337" cy="506.6666666666668" fill="none"></circle><circle r="3.6842105263157894" cx="400.00000000000006" cy="506.6666666666668" fill="none"></circle><circle r="3.6842105263157894" cx="426.66666666666674" cy="506.6666666666668" fill="none"></circle><circle r="3.6842105263157894" cx="453.3333333333334" cy="506.6666666666668" fill="none"></circle><circle r="3.6842105263157894" cx="480.0000000000001" cy="506.6666666666668" fill="none"></circle><circle r="3.6842105263157894" cx="506.6666666666668" cy="506.6666666666668" fill="none"></circle><circle r="3.6842105263157894" cx="533.3333333333335" cy="506.6666666666668" fill="none"></circle><circle r="3.6842105263157894" cx="560.0000000000001" cy="506.6666666666668" fill="none"></circle><circle r="3.6842105263157894" cx="586.6666666666667" cy="506.6666666666668" fill="none"></circle><circle r="3.6842105263157894" cx="613.3333333333334" cy="506.6666666666668" fill="none"></circle><circle r="3.6842105263157894" cx="640" cy="506.6666666666668" fill="none"></circle><circle r="3.6842105263157894" cx="666.6666666666666" cy="506.6666666666668" fill="none"></circle><circle r="3.6842105263157894" cx="693.3333333333333" cy="506.6666666666668" fill="none"></circle><circle r="3.6842105263157894" cx="719.9999999999999" cy="506.6666666666668" fill="none"></circle><circle r="3.6842105263157894" cx="746.6666666666665" cy="506.6666666666668" fill="none"></circle><circle r="3.6842105263157894" cx="773.3333333333331" cy="506.6666666666668" fill="none"></circle><circle r="3.6842105263157894" cx="799.9999999999998" cy="506.6666666666668" fill="none"></circle><circle r="3.6842105263157894" cx="0" cy="533.3333333333335" fill="none"></circle><circle r="3.6842105263157894" cx="26.666666666666668" cy="533.3333333333335" fill="none"></circle><circle r="3.6842105263157894" cx="53.333333333333336" cy="533.3333333333335" fill="none"></circle><circle r="3.6842105263157894" cx="80" cy="533.3333333333335" fill="none"></circle><circle r="3.6842105263157894" cx="106.66666666666667" cy="533.3333333333335" fill="none"></circle><circle r="3.6842105263157894" cx="133.33333333333334" cy="533.3333333333335" fill="none"></circle><circle r="3.6842105263157894" cx="160" cy="533.3333333333335" fill="none"></circle><circle r="3.6842105263157894" cx="186.66666666666666" cy="533.3333333333335" fill="none"></circle><circle r="3.6842105263157894" cx="213.33333333333331" cy="533.3333333333335" fill="none"></circle><circle r="3.6842105263157894" cx="239.99999999999997" cy="533.3333333333335" fill="none"></circle><circle r="3.6842105263157894" cx="266.66666666666663" cy="533.3333333333335" fill="none"></circle><circle r="3.6842105263157894" cx="293.3333333333333" cy="533.3333333333335" fill="none"></circle><circle r="3.6842105263157894" cx="320" cy="533.3333333333335" fill="none"></circle><circle r="3.6842105263157894" cx="346.6666666666667" cy="533.3333333333335" fill="none"></circle><circle r="3.6842105263157894" cx="373.33333333333337" cy="533.3333333333335" fill="none"></circle><circle r="3.6842105263157894" cx="400.00000000000006" cy="533.3333333333335" fill="none"></circle><circle r="3.6842105263157894" cx="426.66666666666674" cy="533.3333333333335" fill="none"></circle><circle r="3.6842105263157894" cx="453.3333333333334" cy="533.3333333333335" fill="none"></circle><circle r="3.6842105263157894" cx="480.0000000000001" cy="533.3333333333335" fill="none"></circle><circle r="3.6842105263157894" cx="506.6666666666668" cy="533.3333333333335" fill="none"></circle><circle r="3.6842105263157894" cx="533.3333333333335" cy="533.3333333333335" fill="none"></circle><circle r="3.6842105263157894" cx="560.0000000000001" cy="533.3333333333335" fill="none"></circle><circle r="3.6842105263157894" cx="586.6666666666667" cy="533.3333333333335" fill="none"></circle><circle r="3.6842105263157894" cx="613.3333333333334" cy="533.3333333333335" fill="none"></circle><circle r="3.6842105263157894" cx="640" cy="533.3333333333335" fill="none"></circle><circle r="3.6842105263157894" cx="666.6666666666666" cy="533.3333333333335" fill="none"></circle><circle r="3.6842105263157894" cx="693.3333333333333" cy="533.3333333333335" fill="none"></circle><circle r="3.6842105263157894" cx="719.9999999999999" cy="533.3333333333335" fill="none"></circle><circle r="3.6842105263157894" cx="746.6666666666665" cy="533.3333333333335" fill="none"></circle><circle r="3.6842105263157894" cx="773.3333333333331" cy="533.3333333333335" fill="none"></circle><circle r="3.6842105263157894" cx="799.9999999999998" cy="533.3333333333335" fill="none"></circle><circle r="3.6842105263157894" cx="0" cy="560.0000000000001" fill="none"></circle><circle r="3.6842105263157894" cx="26.666666666666668" cy="560.0000000000001" fill="none"></circle><circle r="3.6842105263157894" cx="53.333333333333336" cy="560.0000000000001" fill="none"></circle><circle r="3.6842105263157894" cx="80" cy="560.0000000000001" fill="none"></circle><circle r="3.6842105263157894" cx="106.66666666666667" cy="560.0000000000001" fill="none"></circle><circle r="3.6842105263157894" cx="133.33333333333334" cy="560.0000000000001" fill="none"></circle><circle r="3.6842105263157894" cx="160" cy="560.0000000000001" fill="none"></circle><circle r="3.6842105263157894" cx="186.66666666666666" cy="560.0000000000001" fill="none"></circle><circle r="3.6842105263157894" cx="213.33333333333331" cy="560.0000000000001" fill="none"></circle><circle r="3.6842105263157894" cx="239.99999999999997" cy="560.0000000000001" fill="none"></circle><circle r="3.6842105263157894" cx="266.66666666666663" cy="560.0000000000001" fill="none"></circle><circle r="3.6842105263157894" cx="293.3333333333333" cy="560.0000000000001" fill="none"></circle><circle r="3.6842105263157894" cx="320" cy="560.0000000000001" fill="none"></circle><circle r="3.6842105263157894" cx="346.6666666666667" cy="560.0000000000001" fill="none"></circle><circle r="3.6842105263157894" cx="373.33333333333337" cy="560.0000000000001" fill="none"></circle><circle r="3.6842105263157894" cx="400.00000000000006" cy="560.0000000000001" fill="none"></circle><circle r="3.6842105263157894" cx="426.66666666666674" cy="560.0000000000001" fill="none"></circle><circle r="3.6842105263157894" cx="453.3333333333334" cy="560.0000000000001" fill="none"></circle><circle r="3.6842105263157894" cx="480.0000000000001" cy="560.0000000000001" fill="none"></circle><circle r="3.6842105263157894" cx="506.6666666666668" cy="560.0000000000001" fill="none"></circle><circle r="3.6842105263157894" cx="533.3333333333335" cy="560.0000000000001" fill="none"></circle><circle r="3.6842105263157894" cx="560.0000000000001" cy="560.0000000000001" fill="none"></circle><circle r="3.6842105263157894" cx="586.6666666666667" cy="560.0000000000001" fill="none"></circle><circle r="3.6842105263157894" cx="613.3333333333334" cy="560.0000000000001" fill="none"></circle><circle r="3.6842105263157894" cx="640" cy="560.0000000000001" fill="none"></circle><circle r="3.6842105263157894" cx="666.6666666666666" cy="560.0000000000001" fill="none"></circle><circle r="3.6842105263157894" cx="693.3333333333333" cy="560.0000000000001" fill="none"></circle><circle r="3.6842105263157894" cx="719.9999999999999" cy="560.0000000000001" fill="none"></circle><circle r="3.6842105263157894" cx="746.6666666666665" cy="560.0000000000001" fill="none"></circle><circle r="3.6842105263157894" cx="773.3333333333331" cy="560.0000000000001" fill="none"></circle><circle r="3.6842105263157894" cx="799.9999999999998" cy="560.0000000000001" fill="none"></circle><circle r="3.6842105263157894" cx="0" cy="586.6666666666667" fill="none"></circle><circle r="3.6842105263157894" cx="26.666666666666668" cy="586.6666666666667" fill="none"></circle><circle r="3.6842105263157894" cx="53.333333333333336" cy="586.6666666666667" fill="none"></circle><circle r="3.6842105263157894" cx="80" cy="586.6666666666667" fill="none"></circle><circle r="3.6842105263157894" cx="106.66666666666667" cy="586.6666666666667" fill="none"></circle><circle r="3.6842105263157894" cx="133.33333333333334" cy="586.6666666666667" fill="none"></circle><circle r="3.6842105263157894" cx="160" cy="586.6666666666667" fill="none"></circle><circle r="3.6842105263157894" cx="186.66666666666666" cy="586.6666666666667" fill="none"></circle><circle r="3.6842105263157894" cx="213.33333333333331" cy="586.6666666666667" fill="none"></circle><circle r="3.6842105263157894" cx="239.99999999999997" cy="586.6666666666667" fill="none"></circle><circle r="3.6842105263157894" cx="266.66666666666663" cy="586.6666666666667" fill="none"></circle><circle r="3.6842105263157894" cx="293.3333333333333" cy="586.6666666666667" fill="none"></circle><circle r="3.6842105263157894" cx="320" cy="586.6666666666667" fill="none"></circle><circle r="3.6842105263157894" cx="346.6666666666667" cy="586.6666666666667" fill="none"></circle><circle r="3.6842105263157894" cx="373.33333333333337" cy="586.6666666666667" fill="none"></circle><circle r="3.6842105263157894" cx="400.00000000000006" cy="586.6666666666667" fill="none"></circle><circle r="3.6842105263157894" cx="426.66666666666674" cy="586.6666666666667" fill="none"></circle><circle r="3.6842105263157894" cx="453.3333333333334" cy="586.6666666666667" fill="none"></circle><circle r="3.6842105263157894" cx="480.0000000000001" cy="586.6666666666667" fill="none"></circle><circle r="3.6842105263157894" cx="506.6666666666668" cy="586.6666666666667" fill="none"></circle><circle r="3.6842105263157894" cx="533.3333333333335" cy="586.6666666666667" fill="none"></circle><circle r="3.6842105263157894" cx="560.0000000000001" cy="586.6666666666667" fill="none"></circle><circle r="3.6842105263157894" cx="586.6666666666667" cy="586.6666666666667" fill="none"></circle><circle r="3.6842105263157894" cx="613.3333333333334" cy="586.6666666666667" fill="none"></circle><circle r="3.6842105263157894" cx="640" cy="586.6666666666667" fill="none"></circle><circle r="3.6842105263157894" cx="666.6666666666666" cy="586.6666666666667" fill="none"></circle><circle r="3.6842105263157894" cx="693.3333333333333" cy="586.6666666666667" fill="none"></circle><circle r="3.6842105263157894" cx="719.9999999999999" cy="586.6666666666667" fill="none"></circle><circle r="3.6842105263157894" cx="746.6666666666665" cy="586.6666666666667" fill="none"></circle><circle r="3.6842105263157894" cx="773.3333333333331" cy="586.6666666666667" fill="none"></circle><circle r="3.6842105263157894" cx="799.9999999999998" cy="586.6666666666667" fill="none"></circle><circle r="3.6842105263157894" cx="0" cy="613.3333333333334" fill="none"></circle><circle r="3.6842105263157894" cx="26.666666666666668" cy="613.3333333333334" fill="none"></circle><circle r="3.6842105263157894" cx="53.333333333333336" cy="613.3333333333334" fill="none"></circle><circle r="3.6842105263157894" cx="80" cy="613.3333333333334" fill="none"></circle><circle r="3.6842105263157894" cx="106.66666666666667" cy="613.3333333333334" fill="none"></circle><circle r="3.6842105263157894" cx="133.33333333333334" cy="613.3333333333334" fill="none"></circle><circle r="3.6842105263157894" cx="160" cy="613.3333333333334" fill="none"></circle><circle r="3.6842105263157894" cx="186.66666666666666" cy="613.3333333333334" fill="none"></circle><circle r="3.6842105263157894" cx="213.33333333333331" cy="613.3333333333334" fill="none"></circle><circle r="3.6842105263157894" cx="239.99999999999997" cy="613.3333333333334" fill="none"></circle><circle r="3.6842105263157894" cx="266.66666666666663" cy="613.3333333333334" fill="none"></circle><circle r="3.6842105263157894" cx="293.3333333333333" cy="613.3333333333334" fill="none"></circle><circle r="3.6842105263157894" cx="320" cy="613.3333333333334" fill="none"></circle><circle r="3.6842105263157894" cx="346.6666666666667" cy="613.3333333333334" fill="none"></circle><circle r="3.6842105263157894" cx="373.33333333333337" cy="613.3333333333334" fill="none"></circle><circle r="3.6842105263157894" cx="400.00000000000006" cy="613.3333333333334" fill="none"></circle><circle r="3.6842105263157894" cx="426.66666666666674" cy="613.3333333333334" fill="none"></circle><circle r="3.6842105263157894" cx="453.3333333333334" cy="613.3333333333334" fill="none"></circle><circle r="3.6842105263157894" cx="480.0000000000001" cy="613.3333333333334" fill="none"></circle><circle r="3.6842105263157894" cx="506.6666666666668" cy="613.3333333333334" fill="none"></circle><circle r="3.6842105263157894" cx="533.3333333333335" cy="613.3333333333334" fill="none"></circle><circle r="3.6842105263157894" cx="560.0000000000001" cy="613.3333333333334" fill="none"></circle><circle r="3.6842105263157894" cx="586.6666666666667" cy="613.3333333333334" fill="none"></circle><circle r="3.6842105263157894" cx="613.3333333333334" cy="613.3333333333334" fill="none"></circle><circle r="3.6842105263157894" cx="640" cy="613.3333333333334" fill="none"></circle><circle r="3.6842105263157894" cx="666.6666666666666" cy="613.3333333333334" fill="none"></circle><circle r="3.6842105263157894" cx="693.3333333333333" cy="613.3333333333334" fill="none"></circle><circle r="3.6842105263157894" cx="719.9999999999999" cy="613.3333333333334" fill="none"></circle><circle r="3.6842105263157894" cx="746.6666666666665" cy="613.3333333333334" fill="none"></circle><circle r="3.6842105263157894" cx="773.3333333333331" cy="613.3333333333334" fill="none"></circle><circle r="3.6842105263157894" cx="799.9999999999998" cy="613.3333333333334" fill="none"></circle><circle r="3.6842105263157894" cx="0" cy="640" fill="none"></circle><circle r="3.6842105263157894" cx="26.666666666666668" cy="640" fill="none"></circle><circle r="3.6842105263157894" cx="53.333333333333336" cy="640" fill="none"></circle><circle r="3.6842105263157894" cx="80" cy="640" fill="none"></circle><circle r="3.6842105263157894" cx="106.66666666666667" cy="640" fill="none"></circle><circle r="3.6842105263157894" cx="133.33333333333334" cy="640" fill="none"></circle><circle r="3.6842105263157894" cx="160" cy="640" fill="none"></circle><circle r="3.6842105263157894" cx="186.66666666666666" cy="640" fill="none"></circle><circle r="3.6842105263157894" cx="213.33333333333331" cy="640" fill="none"></circle><circle r="3.6842105263157894" cx="239.99999999999997" cy="640" fill="none"></circle><circle r="3.6842105263157894" cx="266.66666666666663" cy="640" fill="none"></circle><circle r="3.6842105263157894" cx="293.3333333333333" cy="640" fill="none"></circle><circle r="3.6842105263157894" cx="320" cy="640" fill="none"></circle><circle r="3.6842105263157894" cx="346.6666666666667" cy="640" fill="none"></circle><circle r="3.6842105263157894" cx="373.33333333333337" cy="640" fill="none"></circle><circle r="3.6842105263157894" cx="400.00000000000006" cy="640" fill="none"></circle><circle r="3.6842105263157894" cx="426.66666666666674" cy="640" fill="none"></circle><circle r="3.6842105263157894" cx="453.3333333333334" cy="640" fill="none"></circle><circle r="3.6842105263157894" cx="480.0000000000001" cy="640" fill="none"></circle><circle r="3.6842105263157894" cx="506.6666666666668" cy="640" fill="none"></circle><circle r="3.6842105263157894" cx="533.3333333333335" cy="640" fill="none"></circle><circle r="3.6842105263157894" cx="560.0000000000001" cy="640" fill="none"></circle><circle r="3.6842105263157894" cx="586.6666666666667" cy="640" fill="none"></circle><circle r="3.6842105263157894" cx="613.3333333333334" cy="640" fill="none"></circle><circle r="3.6842105263157894" cx="640" cy="640" fill="none"></circle><circle r="3.6842105263157894" cx="666.6666666666666" cy="640" fill="none"></circle><circle r="3.6842105263157894" cx="693.3333333333333" cy="640" fill="none"></circle><circle r="3.6842105263157894" cx="719.9999999999999" cy="640" fill="none"></circle><circle r="3.6842105263157894" cx="746.6666666666665" cy="640" fill="none"></circle><circle r="3.6842105263157894" cx="773.3333333333331" cy="640" fill="none"></circle><circle r="3.6842105263157894" cx="799.9999999999998" cy="640" fill="none"></circle><circle r="3.6842105263157894" cx="0" cy="666.6666666666666" fill="none"></circle><circle r="3.6842105263157894" cx="26.666666666666668" cy="666.6666666666666" fill="none"></circle><circle r="3.6842105263157894" cx="53.333333333333336" cy="666.6666666666666" fill="none"></circle><circle r="3.6842105263157894" cx="80" cy="666.6666666666666" fill="none"></circle><circle r="3.6842105263157894" cx="106.66666666666667" cy="666.6666666666666" fill="none"></circle><circle r="3.6842105263157894" cx="133.33333333333334" cy="666.6666666666666" fill="none"></circle><circle r="3.6842105263157894" cx="160" cy="666.6666666666666" fill="none"></circle><circle r="3.6842105263157894" cx="186.66666666666666" cy="666.6666666666666" fill="none"></circle><circle r="3.6842105263157894" cx="213.33333333333331" cy="666.6666666666666" fill="none"></circle><circle r="3.6842105263157894" cx="239.99999999999997" cy="666.6666666666666" fill="none"></circle><circle r="3.6842105263157894" cx="266.66666666666663" cy="666.6666666666666" fill="none"></circle><circle r="3.6842105263157894" cx="293.3333333333333" cy="666.6666666666666" fill="none"></circle><circle r="3.6842105263157894" cx="320" cy="666.6666666666666" fill="none"></circle><circle r="3.6842105263157894" cx="346.6666666666667" cy="666.6666666666666" fill="none"></circle><circle r="3.6842105263157894" cx="373.33333333333337" cy="666.6666666666666" fill="none"></circle><circle r="3.6842105263157894" cx="400.00000000000006" cy="666.6666666666666" fill="none"></circle><circle r="3.6842105263157894" cx="426.66666666666674" cy="666.6666666666666" fill="none"></circle><circle r="3.6842105263157894" cx="453.3333333333334" cy="666.6666666666666" fill="none"></circle><circle r="3.6842105263157894" cx="480.0000000000001" cy="666.6666666666666" fill="none"></circle><circle r="3.6842105263157894" cx="506.6666666666668" cy="666.6666666666666" fill="none"></circle><circle r="3.6842105263157894" cx="533.3333333333335" cy="666.6666666666666" fill="none"></circle><circle r="3.6842105263157894" cx="560.0000000000001" cy="666.6666666666666" fill="none"></circle><circle r="3.6842105263157894" cx="586.6666666666667" cy="666.6666666666666" fill="none"></circle><circle r="3.6842105263157894" cx="613.3333333333334" cy="666.6666666666666" fill="none"></circle><circle r="3.6842105263157894" cx="640" cy="666.6666666666666" fill="none"></circle><circle r="3.6842105263157894" cx="666.6666666666666" cy="666.6666666666666" fill="none"></circle><circle r="3.6842105263157894" cx="693.3333333333333" cy="666.6666666666666" fill="none"></circle><circle r="3.6842105263157894" cx="719.9999999999999" cy="666.6666666666666" fill="none"></circle><circle r="3.6842105263157894" cx="746.6666666666665" cy="666.6666666666666" fill="none"></circle><circle r="3.6842105263157894" cx="773.3333333333331" cy="666.6666666666666" fill="none"></circle><circle r="3.6842105263157894" cx="799.9999999999998" cy="666.6666666666666" fill="none"></circle><circle r="3.6842105263157894" cx="0" cy="693.3333333333333" fill="none"></circle><circle r="3.6842105263157894" cx="26.666666666666668" cy="693.3333333333333" fill="none"></circle><circle r="3.6842105263157894" cx="53.333333333333336" cy="693.3333333333333" fill="none"></circle><circle r="3.6842105263157894" cx="80" cy="693.3333333333333" fill="none"></circle><circle r="3.6842105263157894" cx="106.66666666666667" cy="693.3333333333333" fill="none"></circle><circle r="3.6842105263157894" cx="133.33333333333334" cy="693.3333333333333" fill="none"></circle><circle r="3.6842105263157894" cx="160" cy="693.3333333333333" fill="none"></circle><circle r="3.6842105263157894" cx="186.66666666666666" cy="693.3333333333333" fill="none"></circle><circle r="3.6842105263157894" cx="213.33333333333331" cy="693.3333333333333" fill="none"></circle><circle r="3.6842105263157894" cx="239.99999999999997" cy="693.3333333333333" fill="none"></circle><circle r="3.6842105263157894" cx="266.66666666666663" cy="693.3333333333333" fill="none"></circle><circle r="3.6842105263157894" cx="293.3333333333333" cy="693.3333333333333" fill="none"></circle><circle r="3.6842105263157894" cx="320" cy="693.3333333333333" fill="none"></circle><circle r="3.6842105263157894" cx="346.6666666666667" cy="693.3333333333333" fill="none"></circle><circle r="3.6842105263157894" cx="373.33333333333337" cy="693.3333333333333" fill="none"></circle><circle r="3.6842105263157894" cx="400.00000000000006" cy="693.3333333333333" fill="none"></circle><circle r="3.6842105263157894" cx="426.66666666666674" cy="693.3333333333333" fill="none"></circle><circle r="3.6842105263157894" cx="453.3333333333334" cy="693.3333333333333" fill="none"></circle><circle r="3.6842105263157894" cx="480.0000000000001" cy="693.3333333333333" fill="none"></circle><circle r="3.6842105263157894" cx="506.6666666666668" cy="693.3333333333333" fill="none"></circle><circle r="3.6842105263157894" cx="533.3333333333335" cy="693.3333333333333" fill="none"></circle><circle r="3.6842105263157894" cx="560.0000000000001" cy="693.3333333333333" fill="none"></circle><circle r="3.6842105263157894" cx="586.6666666666667" cy="693.3333333333333" fill="none"></circle><circle r="3.6842105263157894" cx="613.3333333333334" cy="693.3333333333333" fill="none"></circle><circle r="3.6842105263157894" cx="640" cy="693.3333333333333" fill="none"></circle><circle r="3.6842105263157894" cx="666.6666666666666" cy="693.3333333333333" fill="none"></circle><circle r="3.6842105263157894" cx="693.3333333333333" cy="693.3333333333333" fill="none"></circle><circle r="3.6842105263157894" cx="719.9999999999999" cy="693.3333333333333" fill="none"></circle><circle r="3.6842105263157894" cx="746.6666666666665" cy="693.3333333333333" fill="none"></circle><circle r="3.6842105263157894" cx="773.3333333333331" cy="693.3333333333333" fill="none"></circle><circle r="3.6842105263157894" cx="799.9999999999998" cy="693.3333333333333" fill="none"></circle><circle r="3.6842105263157894" cx="0" cy="719.9999999999999" fill="none"></circle><circle r="3.6842105263157894" cx="26.666666666666668" cy="719.9999999999999" fill="none"></circle><circle r="3.6842105263157894" cx="53.333333333333336" cy="719.9999999999999" fill="none"></circle><circle r="3.6842105263157894" cx="80" cy="719.9999999999999" fill="none"></circle><circle r="3.6842105263157894" cx="106.66666666666667" cy="719.9999999999999" fill="none"></circle><circle r="3.6842105263157894" cx="133.33333333333334" cy="719.9999999999999" fill="none"></circle><circle r="3.6842105263157894" cx="160" cy="719.9999999999999" fill="none"></circle><circle r="3.6842105263157894" cx="186.66666666666666" cy="719.9999999999999" fill="none"></circle><circle r="3.6842105263157894" cx="213.33333333333331" cy="719.9999999999999" fill="none"></circle><circle r="3.6842105263157894" cx="239.99999999999997" cy="719.9999999999999" fill="none"></circle><circle r="3.6842105263157894" cx="266.66666666666663" cy="719.9999999999999" fill="none"></circle><circle r="3.6842105263157894" cx="293.3333333333333" cy="719.9999999999999" fill="none"></circle><circle r="3.6842105263157894" cx="320" cy="719.9999999999999" fill="none"></circle><circle r="3.6842105263157894" cx="346.6666666666667" cy="719.9999999999999" fill="none"></circle><circle r="3.6842105263157894" cx="373.33333333333337" cy="719.9999999999999" fill="none"></circle><circle r="3.6842105263157894" cx="400.00000000000006" cy="719.9999999999999" fill="none"></circle><circle r="3.6842105263157894" cx="426.66666666666674" cy="719.9999999999999" fill="none"></circle><circle r="3.6842105263157894" cx="453.3333333333334" cy="719.9999999999999" fill="none"></circle><circle r="3.6842105263157894" cx="480.0000000000001" cy="719.9999999999999" fill="none"></circle><circle r="3.6842105263157894" cx="506.6666666666668" cy="719.9999999999999" fill="none"></circle><circle r="3.6842105263157894" cx="533.3333333333335" cy="719.9999999999999" fill="none"></circle><circle r="3.6842105263157894" cx="560.0000000000001" cy="719.9999999999999" fill="none"></circle><circle r="3.6842105263157894" cx="586.6666666666667" cy="719.9999999999999" fill="none"></circle><circle r="3.6842105263157894" cx="613.3333333333334" cy="719.9999999999999" fill="none"></circle><circle r="3.6842105263157894" cx="640" cy="719.9999999999999" fill="none"></circle><circle r="3.6842105263157894" cx="666.6666666666666" cy="719.9999999999999" fill="none"></circle><circle r="3.6842105263157894" cx="693.3333333333333" cy="719.9999999999999" fill="none"></circle><circle r="3.6842105263157894" cx="719.9999999999999" cy="719.9999999999999" fill="none"></circle><circle r="3.6842105263157894" cx="746.6666666666665" cy="719.9999999999999" fill="none"></circle><circle r="3.6842105263157894" cx="773.3333333333331" cy="719.9999999999999" fill="none"></circle><circle r="3.6842105263157894" cx="799.9999999999998" cy="719.9999999999999" fill="none"></circle><circle r="3.6842105263157894" cx="0" cy="746.6666666666665" fill="none"></circle><circle r="3.6842105263157894" cx="26.666666666666668" cy="746.6666666666665" fill="none"></circle><circle r="3.6842105263157894" cx="53.333333333333336" cy="746.6666666666665" fill="none"></circle><circle r="3.6842105263157894" cx="80" cy="746.6666666666665" fill="none"></circle><circle r="3.6842105263157894" cx="106.66666666666667" cy="746.6666666666665" fill="none"></circle><circle r="3.6842105263157894" cx="133.33333333333334" cy="746.6666666666665" fill="none"></circle><circle r="3.6842105263157894" cx="160" cy="746.6666666666665" fill="none"></circle><circle r="3.6842105263157894" cx="186.66666666666666" cy="746.6666666666665" fill="none"></circle><circle r="3.6842105263157894" cx="213.33333333333331" cy="746.6666666666665" fill="none"></circle><circle r="3.6842105263157894" cx="239.99999999999997" cy="746.6666666666665" fill="none"></circle><circle r="3.6842105263157894" cx="266.66666666666663" cy="746.6666666666665" fill="none"></circle><circle r="3.6842105263157894" cx="293.3333333333333" cy="746.6666666666665" fill="none"></circle><circle r="3.6842105263157894" cx="320" cy="746.6666666666665" fill="none"></circle><circle r="3.6842105263157894" cx="346.6666666666667" cy="746.6666666666665" fill="none"></circle><circle r="3.6842105263157894" cx="373.33333333333337" cy="746.6666666666665" fill="none"></circle><circle r="3.6842105263157894" cx="400.00000000000006" cy="746.6666666666665" fill="none"></circle><circle r="3.6842105263157894" cx="426.66666666666674" cy="746.6666666666665" fill="none"></circle><circle r="3.6842105263157894" cx="453.3333333333334" cy="746.6666666666665" fill="none"></circle><circle r="3.6842105263157894" cx="480.0000000000001" cy="746.6666666666665" fill="none"></circle><circle r="3.6842105263157894" cx="506.6666666666668" cy="746.6666666666665" fill="none"></circle><circle r="3.6842105263157894" cx="533.3333333333335" cy="746.6666666666665" fill="none"></circle><circle r="3.6842105263157894" cx="560.0000000000001" cy="746.6666666666665" fill="none"></circle><circle r="3.6842105263157894" cx="586.6666666666667" cy="746.6666666666665" fill="none"></circle><circle r="3.6842105263157894" cx="613.3333333333334" cy="746.6666666666665" fill="none"></circle><circle r="3.6842105263157894" cx="640" cy="746.6666666666665" fill="none"></circle><circle r="3.6842105263157894" cx="666.6666666666666" cy="746.6666666666665" fill="none"></circle><circle r="3.6842105263157894" cx="693.3333333333333" cy="746.6666666666665" fill="none"></circle><circle r="3.6842105263157894" cx="719.9999999999999" cy="746.6666666666665" fill="none"></circle><circle r="3.6842105263157894" cx="746.6666666666665" cy="746.6666666666665" fill="none"></circle><circle r="3.6842105263157894" cx="773.3333333333331" cy="746.6666666666665" fill="none"></circle><circle r="3.6842105263157894" cx="799.9999999999998" cy="746.6666666666665" fill="none"></circle><circle r="3.6842105263157894" cx="0" cy="773.3333333333331" fill="none"></circle><circle r="3.6842105263157894" cx="26.666666666666668" cy="773.3333333333331" fill="none"></circle><circle r="3.6842105263157894" cx="53.333333333333336" cy="773.3333333333331" fill="none"></circle><circle r="3.6842105263157894" cx="80" cy="773.3333333333331" fill="none"></circle><circle r="3.6842105263157894" cx="106.66666666666667" cy="773.3333333333331" fill="none"></circle><circle r="3.6842105263157894" cx="133.33333333333334" cy="773.3333333333331" fill="none"></circle><circle r="3.6842105263157894" cx="160" cy="773.3333333333331" fill="none"></circle><circle r="3.6842105263157894" cx="186.66666666666666" cy="773.3333333333331" fill="none"></circle><circle r="3.6842105263157894" cx="213.33333333333331" cy="773.3333333333331" fill="none"></circle><circle r="3.6842105263157894" cx="239.99999999999997" cy="773.3333333333331" fill="none"></circle><circle r="3.6842105263157894" cx="266.66666666666663" cy="773.3333333333331" fill="none"></circle><circle r="3.6842105263157894" cx="293.3333333333333" cy="773.3333333333331" fill="none"></circle><circle r="3.6842105263157894" cx="320" cy="773.3333333333331" fill="none"></circle><circle r="3.6842105263157894" cx="346.6666666666667" cy="773.3333333333331" fill="none"></circle><circle r="3.6842105263157894" cx="373.33333333333337" cy="773.3333333333331" fill="none"></circle><circle r="3.6842105263157894" cx="400.00000000000006" cy="773.3333333333331" fill="none"></circle><circle r="3.6842105263157894" cx="426.66666666666674" cy="773.3333333333331" fill="none"></circle><circle r="3.6842105263157894" cx="453.3333333333334" cy="773.3333333333331" fill="none"></circle><circle r="3.6842105263157894" cx="480.0000000000001" cy="773.3333333333331" fill="none"></circle><circle r="3.6842105263157894" cx="506.6666666666668" cy="773.3333333333331" fill="none"></circle><circle r="3.6842105263157894" cx="533.3333333333335" cy="773.3333333333331" fill="none"></circle><circle r="3.6842105263157894" cx="560.0000000000001" cy="773.3333333333331" fill="none"></circle><circle r="3.6842105263157894" cx="586.6666666666667" cy="773.3333333333331" fill="none"></circle><circle r="3.6842105263157894" cx="613.3333333333334" cy="773.3333333333331" fill="none"></circle><circle r="3.6842105263157894" cx="640" cy="773.3333333333331" fill="none"></circle><circle r="3.6842105263157894" cx="666.6666666666666" cy="773.3333333333331" fill="none"></circle><circle r="3.6842105263157894" cx="693.3333333333333" cy="773.3333333333331" fill="none"></circle><circle r="3.6842105263157894" cx="719.9999999999999" cy="773.3333333333331" fill="none"></circle><circle r="3.6842105263157894" cx="746.6666666666665" cy="773.3333333333331" fill="none"></circle><circle r="3.6842105263157894" cx="773.3333333333331" cy="773.3333333333331" fill="none"></circle><circle r="3.6842105263157894" cx="799.9999999999998" cy="773.3333333333331" fill="none"></circle><circle r="3.6842105263157894" cx="0" cy="799.9999999999998" fill="none"></circle><circle r="3.6842105263157894" cx="26.666666666666668" cy="799.9999999999998" fill="none"></circle><circle r="3.6842105263157894" cx="53.333333333333336" cy="799.9999999999998" fill="none"></circle><circle r="3.6842105263157894" cx="80" cy="799.9999999999998" fill="none"></circle><circle r="3.6842105263157894" cx="106.66666666666667" cy="799.9999999999998" fill="none"></circle><circle r="3.6842105263157894" cx="133.33333333333334" cy="799.9999999999998" fill="none"></circle><circle r="3.6842105263157894" cx="160" cy="799.9999999999998" fill="none"></circle><circle r="3.6842105263157894" cx="186.66666666666666" cy="799.9999999999998" fill="none"></circle><circle r="3.6842105263157894" cx="213.33333333333331" cy="799.9999999999998" fill="none"></circle><circle r="3.6842105263157894" cx="239.99999999999997" cy="799.9999999999998" fill="none"></circle><circle r="3.6842105263157894" cx="266.66666666666663" cy="799.9999999999998" fill="none"></circle><circle r="3.6842105263157894" cx="293.3333333333333" cy="799.9999999999998" fill="none"></circle><circle r="3.6842105263157894" cx="320" cy="799.9999999999998" fill="none"></circle><circle r="3.6842105263157894" cx="346.6666666666667" cy="799.9999999999998" fill="none"></circle><circle r="3.6842105263157894" cx="373.33333333333337" cy="799.9999999999998" fill="none"></circle><circle r="3.6842105263157894" cx="400.00000000000006" cy="799.9999999999998" fill="none"></circle><circle r="3.6842105263157894" cx="426.66666666666674" cy="799.9999999999998" fill="none"></circle><circle r="3.6842105263157894" cx="453.3333333333334" cy="799.9999999999998" fill="none"></circle><circle r="3.6842105263157894" cx="480.0000000000001" cy="799.9999999999998" fill="none"></circle><circle r="3.6842105263157894" cx="506.6666666666668" cy="799.9999999999998" fill="none"></circle><circle r="3.6842105263157894" cx="533.3333333333335" cy="799.9999999999998" fill="none"></circle><circle r="3.6842105263157894" cx="560.0000000000001" cy="799.9999999999998" fill="none"></circle><circle r="3.6842105263157894" cx="586.6666666666667" cy="799.9999999999998" fill="none"></circle><circle r="3.6842105263157894" cx="613.3333333333334" cy="799.9999999999998" fill="none"></circle><circle r="3.6842105263157894" cx="640" cy="799.9999999999998" fill="none"></circle><circle r="3.6842105263157894" cx="666.6666666666666" cy="799.9999999999998" fill="none"></circle><circle r="3.6842105263157894" cx="693.3333333333333" cy="799.9999999999998" fill="none"></circle><circle r="3.6842105263157894" cx="719.9999999999999" cy="799.9999999999998" fill="none"></circle><circle r="3.6842105263157894" cx="746.6666666666665" cy="799.9999999999998" fill="none"></circle><circle r="3.6842105263157894" cx="773.3333333333331" cy="799.9999999999998" fill="none"></circle><circle r="3.6842105263157894" cx="799.9999999999998" cy="799.9999999999998" fill="none"></circle></g></svg>