<svg width="23" height="21" viewBox="0 0 23 21" fill="none" xmlns="http://www.w3.org/2000/svg">
<mask id="path-1-outside-1_2_3" maskUnits="userSpaceOnUse" x="-3.60682" y="-6.06676" width="30.7343" height="30.7343" fill="#FFAA00">
<rect fill="white" x="-3.60682" y="-6.06676" width="30.7343" height="30.7343"/>
<path d="M9.61806 13.0153L2.99488 12.9902L8.4179 9.13711L6.35628 2.82205L11.6847 6.7012L17.0503 2.80631L14.992 9.10895L20.3205 12.9881L13.6774 12.9661L11.6766 19.3105L9.61806 13.0153ZM10.6547 11.5913L11.6558 14.657L12.64 11.5432L15.936 11.5532L13.3292 9.65538L14.3416 6.52703L11.687 8.45987L9.06872 6.55373L10.0907 9.68724L7.42982 11.5804L10.6547 11.5913Z"/>
</mask>
<path d="M9.61806 13.0153L2.99488 12.9902L8.4179 9.13711L6.35628 2.82205L11.6847 6.7012L17.0503 2.80631L14.992 9.10895L20.3205 12.9881L13.6774 12.9661L11.6766 19.3105L9.61806 13.0153ZM10.6547 11.5913L11.6558 14.657L12.64 11.5432L15.936 11.5532L13.3292 9.65538L14.3416 6.52703L11.687 8.45987L9.06872 6.55373L10.0907 9.68724L7.42982 11.5804L10.6547 11.5913Z" fill="#FFAA00"/>
<path d="M9.61427 14.0153C9.6168 13.3487 9.61933 12.682 9.62186 12.0153C8.51716 12.0216 7.41247 12.0278 6.30777 12.034C5.20466 12.0402 4.10155 12.0464 2.99843 12.0527L3.5379 13.7545C5.33346 12.4531 7.12902 11.1517 8.92459 9.85025L9.44596 9.48716L9.24952 8.86562C8.54246 6.76708 7.83541 4.66854 7.12835 2.57L5.87827 3.47865C7.66661 4.75495 9.45495 6.03125 11.2433 7.30756L11.6753 7.62837L12.1253 7.30817C13.9016 5.993 15.6779 4.67784 17.4542 3.36268L16.3968 2.59288C15.7305 4.70023 15.0642 6.80758 14.3979 8.91493L14.2547 9.33986L14.6242 9.61422C16.4125 10.8905 18.2009 12.1668 19.9892 13.4431L20.3223 12.4253C18.1079 12.4388 15.8935 12.4524 13.6791 12.4659L13.3159 12.4613L13.2004 12.8157C12.5534 14.9368 11.9064 17.0579 11.2594 19.179L12.0923 19.1746C11.7396 18.1294 11.3869 17.0841 11.0342 16.0389C10.6809 14.9922 10.3277 13.9455 9.97449 12.8988C9.73687 12.9765 9.49925 13.0542 9.26164 13.1319C9.59506 14.1851 9.92849 15.2383 10.2619 16.2915C10.5949 17.3431 10.9278 18.3948 11.2608 19.4465L11.6903 20.741L12.0938 19.4421C12.7807 17.3336 13.4676 15.2251 14.1545 13.1165L13.6758 13.4663C15.8901 13.4945 18.1043 13.5227 20.3186 13.5509L22.0602 13.549L20.6517 12.5331C18.8878 11.2233 17.1238 9.91349 15.3599 8.60369L15.5861 9.30297C16.292 7.20856 16.9979 5.11415 17.7039 3.01974L18.3539 0.998915L16.6465 2.24994C14.8457 3.53137 13.0449 4.8128 11.2441 6.09424L12.1262 6.09484C10.3622 4.78504 8.59825 3.47524 6.83429 2.16544L4.79598 0.695247L5.58421 3.0741C6.25157 5.1856 6.91892 7.2971 7.58628 9.40861L7.91121 8.42398C6.09142 9.69129 4.27164 10.9586 2.45185 12.2259L0.0763214 13.9294L2.99132 13.9277C4.09435 13.9423 5.19739 13.9569 6.30042 13.9715C7.40504 13.9861 8.50965 14.0007 9.61427 14.0153ZM9.62186 12.0153L9.61427 14.0153L9.26164 13.1319L9.97449 12.8988L9.69511 12.0163L9.62186 12.0153ZM11.6053 11.2809C10.9716 11.4879 10.3379 11.6948 9.70414 11.9018C9.87284 12.4184 10.0415 12.935 10.2102 13.4516C10.3752 13.9569 10.5402 14.4621 10.7052 14.9674L11.6713 17.9259L12.6093 14.9584C12.9374 13.9204 13.2655 12.8825 13.5935 11.8446L12.637 12.5432C13.7357 12.5465 14.8343 12.5498 15.933 12.5532L19.0214 12.5625L16.5245 10.7447C15.6556 10.1121 14.7867 9.47952 13.9177 8.84693L14.2806 9.96329C14.6181 8.92051 14.9555 7.87772 15.293 6.83494L16.2404 3.90749L13.753 5.71862C12.8681 6.3629 11.9833 7.00718 11.0984 7.65146L12.2756 7.65142C11.4028 7.01604 10.53 6.38066 9.65728 5.74528L7.16039 3.92752L8.118 6.86379C8.45865 7.9083 8.7993 8.9528 9.13995 9.9973L9.51094 8.87243C8.62399 9.50348 7.73704 10.1345 6.85009 10.7656L4.31422 12.5698L7.42642 12.5804C7.95793 12.5822 8.48945 12.584 9.02096 12.5858C9.56442 12.5876 10.1079 12.5895 10.6513 12.5913C10.6536 11.9247 10.6559 11.258 10.6581 10.5914C10.1147 10.5895 9.57121 10.5877 9.02775 10.5858C8.49624 10.584 7.96473 10.5822 7.43322 10.5804L8.00955 12.3952C8.89649 11.7642 9.78344 11.1331 10.6704 10.5021L11.2693 10.076L11.0414 9.37718C10.7007 8.33268 10.3601 7.28818 10.0194 6.24367L8.48016 7.36219C9.35292 7.99756 10.2257 8.63294 11.0984 9.26832L11.687 9.69683L12.2756 9.26828C13.1605 8.624 14.0454 7.97973 14.9302 7.33545L13.3902 6.21913C13.0527 7.26191 12.7152 8.30469 12.3778 9.34748L12.1546 10.0372L12.7406 10.4638C13.6095 11.0964 14.4785 11.729 15.3474 12.3616L15.939 10.5532C14.8403 10.5499 13.7417 10.5465 12.6431 10.5432L11.9081 10.541L11.6865 11.2418C11.3585 12.2797 11.0304 13.3177 10.7023 14.3556L12.6064 14.3465C12.4414 13.8413 12.2764 13.336 12.1114 12.8308C11.9427 12.3142 11.774 11.7975 11.6053 11.2809ZM9.70414 11.9018L11.6053 11.2809L11.381 10.5938L10.6581 10.5914L10.6513 12.5913L9.70414 11.9018Z" fill="#FFAA00" mask="url(#path-1-outside-1_2_3)"/>
</svg>
