<svg width="20" height="19" viewBox="0 0 20 19" fill="none" xmlns="http://www.w3.org/2000/svg">
<path d="M8.61806 12.0153L1.99488 11.9902L7.4179 8.13711L5.35628 1.82205L10.6847 5.7012L16.0503 1.80631L13.992 8.10895L19.3205 11.9881L12.6774 11.9661L10.6766 18.3105L8.61806 12.0153ZM9.65473 10.5913L10.6558 13.657L11.64 10.5432L14.936 10.5532L12.3292 8.65538L13.3416 5.52703L10.687 7.45987L8.06872 5.55373L9.09066 8.68724L6.42982 10.5804L9.65473 10.5913Z" fill="#FFAA00"/>
<path d="M7.98517 12.4304C7.61361 12.4669 7.12666 12.4879 6.75664 12.4902C6.64068 12.4911 6.69951 12.4605 6.61947 12.4594C6.46292 12.4571 6.31698 12.4786 6.16228 12.4733C6.11101 12.4713 6.17503 12.4222 6.12127 12.4209C5.82668 12.4133 5.54787 12.4369 5.24941 12.4383C4.15947 12.4417 3.08328 12.4472 1.99313 12.4504L0.570447 12.4748L1.72834 11.6151C2.0369 11.3929 2.34716 11.1701 2.66053 10.9468C3.05964 10.6614 3.57759 10.3606 3.96916 10.0367C4.01479 9.99882 3.9487 9.96668 3.95465 9.95563C4.04889 9.78346 4.07799 9.92575 4.18108 9.87184C4.59001 9.65749 5.00554 9.36397 5.3461 9.08312C5.49089 8.9635 5.26003 8.96282 5.45676 8.91408C5.47036 8.9106 5.4743 8.99821 5.52037 8.97436C5.62479 8.92019 5.79608 8.77968 5.87256 8.73143C6.02021 8.63882 6.04311 8.62136 6.17693 8.52554C6.3602 8.39503 6.59886 8.26891 6.78479 8.11382C6.82433 8.08051 6.72408 8.05718 6.78301 7.99825C6.842 7.93927 7.02215 7.81714 7.09232 7.78926C7.1625 7.76135 7.17278 7.82977 7.19148 7.83367C7.19562 7.83458 7.19972 7.83528 7.20379 7.83577L7.06648 8.25184C7.12795 8.11476 6.90368 7.93622 6.88978 7.90761C6.63658 7.36915 6.56763 6.85902 6.39432 6.33257C6.26349 5.9363 6.09487 5.52222 5.97496 5.14283C5.97396 5.13969 5.97297 5.13655 5.97199 5.13341C5.8292 4.67828 5.74513 4.28048 5.59434 3.84227C5.57851 3.79599 5.50665 3.87974 5.48714 3.82327C5.27999 3.22338 5.09461 2.62102 4.95935 2.00053C4.94586 1.93828 5.04967 1.9903 5.04088 1.92658C5.04081 1.92608 5.04074 1.92558 5.04066 1.92508L4.72159 0.950314L5.55169 1.55363C5.82488 1.83705 6.22437 2.32814 6.62096 2.17401C6.82481 2.34008 7.07375 2.53968 7.22103 2.73645C7.31605 2.86324 7.14451 2.84895 7.31732 2.92767C7.35622 2.94551 7.35828 2.84998 7.41313 2.88154C7.64402 3.0145 7.86285 3.20567 8.0983 3.32752C8.1463 3.35216 8.17577 3.28695 8.19539 3.28566C8.35799 3.27799 8.42928 3.5391 8.45929 3.57614C8.68883 3.85685 8.91693 3.97877 9.17951 4.1733C9.24043 4.21847 9.22315 4.08991 9.28373 4.13067C9.59719 4.34312 9.9089 4.58105 10.1837 4.83313C10.2447 4.88938 10.1369 4.9088 10.1636 4.93895C10.2823 5.07107 10.4015 4.97277 10.5169 5.09721C10.5414 5.12329 10.4855 5.1664 10.4863 5.1762C10.4985 5.32976 10.6663 5.24733 10.6892 5.25962C10.7729 5.30313 10.8382 5.3557 10.8949 5.41244L10.4749 5.41215C10.6533 5.32107 10.8402 5.288 11.0122 5.14201C11.0409 5.11742 10.9219 5.09822 11.0058 5.03333C11.5641 4.60067 12.1832 4.18257 12.789 3.8276C12.8831 3.77231 12.8574 3.86889 12.8675 3.8712C13.0293 3.90432 12.9919 3.73011 13.017 3.70442C13.2176 3.50503 13.509 3.46203 13.5496 3.19459C14.3509 2.68183 15.0838 2.08069 15.8855 1.57924L16.5827 1.06891L16.3171 1.89342C16.2298 2.10929 16.1357 2.32275 16.0317 2.5328C16.0252 2.54638 15.9599 2.49692 15.9473 2.52411C15.7943 2.85131 15.9302 2.82325 15.9951 3.09402C16.0112 3.16215 15.7864 3.27997 15.7691 3.29127C15.7056 3.33215 15.6158 3.23891 15.601 3.25469C15.4817 3.38658 15.849 3.47869 15.7803 3.6867C15.7776 3.69302 15.7207 3.64416 15.7084 3.65948C15.6699 3.70701 15.6784 3.76936 15.6382 3.81505C15.5457 3.91942 15.3583 3.90614 15.3983 4.12476C15.4037 4.15252 15.6175 4.18264 15.5466 4.36523C15.5182 4.43797 15.4134 4.76681 15.37 4.85442C15.3268 4.94192 15.283 4.85784 15.278 4.86347C15.1113 5.08288 15.1069 4.97757 14.9403 5.06037C14.7744 5.14339 15.0848 5.20671 15.1016 5.26811C15.1182 5.32956 14.9885 5.48799 14.9497 5.52464C14.9108 5.56125 14.8883 5.4924 14.8615 5.52752C14.686 5.76094 14.9715 5.69104 14.9902 5.79296C15.0344 6.03327 14.7622 6.12027 14.6797 6.30012C14.6574 6.34877 14.7207 6.32381 14.7106 6.37032C14.6698 6.5543 14.5667 6.6393 14.5623 6.86235C14.5616 6.89885 14.6379 7.10524 14.5073 7.18008C14.4886 7.19061 14.4487 7.1303 14.4117 7.20231C14.3563 7.30984 14.2776 7.51048 14.2555 7.63831C14.2392 7.73268 14.3613 7.65829 14.2966 7.76265C14.2679 7.80902 14.247 7.69883 14.1972 7.78737C14.1582 7.85678 14.1023 8.02151 14.0666 8.1333L14.0382 8.04554C14.0638 8.06394 14.0862 8.07978 14.1029 8.09149C14.1818 8.14667 14.1803 8.05919 14.1894 8.05996C14.2432 8.06593 14.412 8.14788 14.4251 8.15761C15.0937 8.63766 15.6386 9.17879 16.3079 9.6211C16.3603 9.65593 16.3682 9.57397 16.3766 9.5787C16.5677 9.68204 16.3201 9.73374 16.4046 9.87312C16.4714 9.74452 16.5278 9.81785 16.6594 9.8947C16.7229 9.93164 16.7233 9.86351 16.732 9.86288C16.8687 9.85921 16.8659 9.99133 16.8686 10.0206C16.8788 10.1286 16.9983 10.0972 17.0058 10.1698C17.0136 10.242 16.8759 10.2403 16.9942 10.325C17.0569 10.3081 17.0476 10.1374 17.1494 10.1853C17.5329 10.3663 18.0994 10.9097 18.3639 11.1156C18.6275 11.3215 18.72 11.378 18.8668 11.5073C19.1322 11.7407 19.0835 11.5884 19.2849 11.6831C19.4866 11.7783 19.2655 11.901 19.2619 11.9596C19.2593 11.9972 19.2823 12.0015 19.303 12.012L19.3206 11.9585C19.3081 11.9605 19.2951 11.9605 19.2816 11.951C19.2433 11.9238 19.3264 11.8904 19.2363 11.8801C19.1461 11.87 18.8991 11.9568 18.867 12.0077C18.799 12.1156 18.9098 12.2299 18.6712 12.1883C18.6575 12.1858 18.7022 12.1265 18.6497 12.1202C18.2322 12.072 17.7984 12.067 17.3815 12.0256C17.3242 12.0198 17.3757 11.9556 17.3423 11.9515C16.9948 11.9095 17.1187 12.0184 16.9278 12.1369C16.9711 11.9778 16.8661 11.88 16.6022 11.879C16.4436 11.8782 16.4707 11.9472 16.368 11.9952C16.3371 12.0096 16.2251 11.9622 16.2046 11.9943C16.1372 12.0992 16.2425 12.2175 15.9707 12.1686C15.9588 12.1663 15.997 12.1093 15.9557 12.1055C15.6892 12.0813 15.657 12.1899 15.3688 12.2004C15.1429 12.2085 14.7415 12.1399 14.4844 12.1278C14.4903 11.9586 14.2473 11.997 14.1484 12.1117C13.9815 12.1058 13.8013 12.111 13.64 12.0942C13.5845 12.0885 13.6211 12.0409 13.6142 12.0356C13.5071 11.9542 13.4342 12.0644 13.3981 12.0684C13.1381 12.0947 12.9103 12.0657 12.6771 12.0668L12.7735 11.9964C12.7391 12.1083 12.7114 12.2238 12.6988 12.3504C12.6975 12.3639 12.7964 12.4176 12.689 12.4881C12.6818 12.4926 12.6713 12.3602 12.6143 12.5261C12.5571 12.6919 12.4016 12.9893 12.3757 13.2363C12.3694 13.2961 12.4068 13.4641 12.3057 13.5576C12.2921 13.57 12.2682 13.5442 12.245 13.561C12.1709 13.6156 12.2611 13.6865 12.1477 13.7424C12.0344 13.7983 11.9162 13.9515 11.9021 14.2044C11.9015 14.2124 11.9637 14.293 11.9391 14.3662C11.8999 14.483 11.8308 14.6446 11.7927 14.7675C11.7744 14.8263 11.8348 14.804 11.8325 14.8145C11.7342 15.2178 11.6019 15.4852 11.4504 15.9027C11.4227 15.9792 11.415 16.2219 11.3178 16.3564C11.2117 16.5042 11.04 16.2637 10.9768 16.6605C10.9519 16.8208 11.1689 17.102 10.9389 17.3315C10.8569 17.6694 10.7381 17.9787 10.6322 18.2966L10.7208 18.2961C10.6604 18.1007 10.5944 17.9054 10.5103 17.7094C10.5003 17.6862 10.4042 17.6338 10.387 17.5771C10.3614 17.493 10.3795 17.4363 10.3622 17.3759C10.2903 17.1226 10.1878 16.9028 10.1136 16.6602C10.0853 16.5681 10.1286 16.5894 10.0946 16.4797C10.0606 16.37 9.99422 16.3112 9.96646 16.1566C9.94569 16.0398 9.99457 15.9002 9.95501 15.7491C9.86947 15.7708 9.8377 15.6685 9.75671 15.4947C9.74113 15.4613 9.72465 15.508 9.71581 15.4927C9.67933 15.4305 9.68281 15.3608 9.64621 15.3024C9.63736 15.2881 9.60933 15.2965 9.60056 15.2854C9.52516 15.191 9.53017 14.9933 9.53078 14.9594C9.53342 14.8295 9.48028 14.7866 9.46704 14.6919C9.45365 14.5975 9.517 14.7245 9.49236 14.6171C9.44107 14.3946 9.34515 14.1185 9.27413 13.8987C9.24561 13.8111 9.23102 13.882 9.22613 13.8697C9.15845 13.6913 9.13386 13.4966 9.03475 13.4178C9.16482 13.2363 8.9825 13.314 8.93253 13.0437C8.92867 13.0224 8.99908 12.9707 9.03673 13.045C9.07445 13.1194 9.08873 13.2461 9.14323 13.3486C9.15594 13.3729 9.28161 13.4949 9.29322 13.5134C9.38306 13.6584 9.26691 13.7211 9.26279 13.7316C9.2204 13.8501 9.36391 14.0025 9.38591 14.0478C9.48525 14.2555 9.52877 14.4453 9.60916 14.6199C9.66163 14.7341 9.7518 14.7175 9.78085 14.8112C9.87794 15.1223 9.78933 15.271 9.99594 15.5266C10.0402 15.5814 10.1181 15.4871 10.1166 15.7359C10.1167 15.7515 10.1008 15.941 10.1791 16.0219C10.189 16.0321 10.2183 16.022 10.2262 16.0371C10.2786 16.1382 10.2792 16.2168 10.3302 16.329C10.3811 16.4411 10.4462 16.5747 10.4812 16.7102C10.5025 16.7919 10.4802 16.9129 10.479 16.9557C10.4749 17.0768 10.5808 17.1706 10.5539 17.2536C10.5265 17.3374 10.4069 17.2302 10.433 17.4179C10.5166 17.3978 10.6054 17.3855 10.6911 17.3692C10.7856 17.6522 10.8659 17.9361 10.955 18.2195L10.3972 18.2224C10.4314 18.1181 10.4646 18.013 10.4956 17.9067C10.5098 17.8579 10.4484 17.893 10.4622 17.8403C10.5208 17.6176 10.6123 17.4359 10.6676 17.2033C10.7103 17.0232 10.7174 16.8132 10.7594 16.624C10.8969 16.5438 10.9446 16.2585 11.0141 16.0623C11.0385 15.9935 11.0655 16.0072 11.0898 15.9605C11.181 15.7842 11.0599 15.8421 11.0605 15.7861C11.0626 15.5456 11.2839 15.5947 11.3584 15.3339C11.3625 15.3201 11.2969 15.1153 11.2964 15.0898C11.2931 14.9276 11.3446 15.0783 11.3812 14.989C11.448 14.8259 11.5121 14.7182 11.5371 14.5101C11.5443 14.4494 11.511 14.2877 11.6029 14.1944C11.615 14.1821 11.6524 14.2028 11.6584 14.1917C11.7628 13.9902 11.6384 13.9448 11.632 13.8088C11.6256 13.6728 11.7705 13.5115 11.8079 13.4812C11.9045 13.4015 11.8127 13.5671 11.8175 13.5746C11.8749 13.6628 11.9038 13.521 11.9426 13.4179C12.0735 13.4425 12.1117 13.2932 11.9823 13.3109C11.9681 13.313 11.9548 13.3986 11.9426 13.4179C11.8471 13.2865 11.879 13.1193 12.0509 12.9778C12.1315 12.9115 12.1715 13.0108 12.2264 12.7497C12.2513 12.6312 12.1485 12.6476 12.1552 12.5382C12.1683 12.3226 12.3008 12.0878 12.3759 11.871L12.4518 11.645L12.6785 11.6499C12.7149 11.651 12.7505 11.6508 12.7849 11.6487C12.8758 11.6431 12.7874 11.5911 12.8495 11.5854C13.0145 11.5698 13.1597 11.6085 13.3254 11.587C13.3404 11.585 13.3039 11.5296 13.3554 11.5284C13.7458 11.5185 14.0856 11.552 14.4931 11.5502C14.69 11.5493 15.0422 11.5146 15.2462 11.5195C15.5997 11.5273 16.0343 11.6111 16.3364 11.5885C16.5335 11.5739 16.4905 11.5139 16.575 11.4721C16.7382 11.3908 17.026 11.5319 17.0647 11.5543C17.0659 11.555 16.8964 11.5704 16.9867 11.6011C17.0391 11.6661 17.0628 11.5546 17.0647 11.5543C17.0902 11.5685 17.4288 11.5806 17.496 11.5685C17.5326 11.5619 17.5123 11.5036 17.5314 11.5012C17.9844 11.4458 18.438 11.4264 18.8972 11.4511C18.9052 11.4522 18.8928 11.5195 18.9118 11.5214C19.0729 11.5386 19.199 11.5148 19.3221 11.4819L19.0225 12.3973C18.9451 12.3678 18.8664 12.342 18.7845 12.3077C18.5768 12.2206 18.4445 12.1068 18.4084 11.936C18.265 11.8519 18.1027 11.6717 18.0105 11.5662C17.9183 11.4608 17.8231 11.5592 17.8117 11.5544C17.4559 11.4064 17.3252 11.2179 17.0161 10.9818C16.8692 10.8695 16.559 10.6726 16.3871 10.5687C16.251 10.4868 16.1928 10.4049 16.0618 10.3372C16.0441 10.328 16.0235 10.3902 16.0171 10.3886C15.8405 10.3549 15.9944 10.2764 15.9831 10.2347C15.9427 10.0834 15.913 9.99633 15.7161 9.91295C15.6707 9.89356 15.4259 9.99207 15.3468 9.95195C15.2442 9.8993 15.3264 9.8595 15.2179 9.80596C15.2086 9.80132 15.1812 9.84255 15.1226 9.79811C14.8498 9.59236 14.5637 9.35263 14.2718 9.1505C14.232 9.12275 14.2356 9.22336 14.1774 9.18438C13.9668 9.04351 13.7454 8.88589 13.5457 8.72199L13.0968 8.38705L13.2712 7.87355C13.2994 7.8017 13.3287 7.73153 13.3592 7.66396C13.392 7.59176 13.4311 7.65651 13.4523 7.64542C13.581 7.57695 13.4851 7.38889 13.4897 7.36454C13.5981 6.78308 13.8628 6.3974 13.9817 5.80752C13.988 5.77537 13.9084 5.4859 14.0752 5.42287C14.0863 5.41845 14.2564 5.35769 14.1926 5.23405C14.1886 5.22634 14.0974 5.26903 14.1409 5.15678C14.1844 5.04455 14.1955 4.84467 14.3232 4.71257C14.3635 4.67069 14.5385 4.5978 14.4762 4.41331C14.4718 4.40118 14.2959 4.09031 14.4936 4.06442C14.526 4.06036 14.7036 4.13368 14.6668 3.92578C14.6595 3.88596 14.5993 3.93424 14.6023 3.83661C14.6066 3.68693 14.7133 3.52158 14.6851 3.32664C14.68 3.29259 14.5949 3.12692 14.7213 3.05759C14.7411 3.04674 14.793 3.09659 14.8167 3.04592C14.9297 2.80508 14.9723 2.52815 15.0964 2.28667C15.1403 2.20111 15.2256 2.28004 15.2826 2.19454C15.3396 2.10901 15.4265 1.92758 15.4122 1.81394C15.3978 1.70025 15.2031 1.75572 15.2373 1.60363C15.2417 1.58412 15.2463 1.56466 15.2509 1.54524L16.5444 2.48689C16.046 2.91451 15.4684 3.22319 14.9331 3.59883C14.8513 3.65625 14.9541 3.65689 14.8362 3.74513C14.4015 4.07054 13.6809 4.67347 13.2233 4.84502C12.8565 4.98231 13.1921 4.63607 12.934 4.77148C12.8095 4.8369 12.8073 5.09029 12.784 5.11538C12.5576 5.36217 12.3206 5.42402 12.0985 5.62105C12.0527 5.66178 12.1496 5.69344 12.1101 5.72738C11.9755 5.84393 11.8035 5.92418 11.6707 6.02985C11.6113 6.07742 11.6599 6.12052 11.6006 6.15794C11.4608 6.24698 11.3273 6.31241 11.1632 6.36038L10.679 6.7082L10.2053 6.35972C10.2042 6.35805 10.203 6.35637 10.2019 6.35469C10.1996 6.3513 10.2065 6.34843 10.2162 6.34474L10.6791 6.68529L11.1523 6.34539C11.1512 6.32215 11.1506 6.28407 11.1146 6.29336L10.6795 6.60581L10.2541 6.29277C10.2484 6.28392 10.2384 6.27357 10.2223 6.26137C10.0625 6.14035 9.89557 5.94686 9.67276 5.86107C9.60651 5.83581 9.51831 5.95241 9.45848 5.78467C9.44588 5.74957 9.58115 5.63063 9.35298 5.65294C9.31483 5.65639 8.96081 5.65364 8.92411 5.46406C8.91438 5.41411 8.92214 5.24186 8.84215 5.21192C8.83098 5.20831 8.82081 5.29823 8.76103 5.26449C8.55114 5.1445 8.35201 4.99011 8.1374 4.86544C8.07999 4.83228 8.11141 4.95597 8.02737 4.90445C7.79619 4.76291 7.53506 4.54841 7.33612 4.37275C7.26286 4.30786 7.35745 4.29234 7.35606 4.28221C7.3346 4.11802 7.18436 4.20988 7.14812 4.19538C6.92409 4.10334 6.82395 3.93648 6.63639 3.82562C6.58475 3.79486 6.5734 3.88256 6.55967 3.88117C6.41974 3.86344 6.57642 3.80461 6.52213 3.7463C6.37032 3.58255 6.16889 3.44424 5.98363 3.32224C5.91551 3.27752 5.93645 3.40418 5.87593 3.36321C5.5167 3.12213 5.15791 2.85137 4.84581 2.56324C4.8387 2.55664 4.83364 2.55044 4.83025 2.54461L6.20592 1.54468C6.20109 1.59332 6.13683 1.57556 6.12807 1.59373C6.05772 1.73673 6.25428 1.84849 6.28005 1.88056C6.39743 2.0263 6.35997 2.11003 6.41904 2.25329C6.7087 2.95279 6.95965 3.85132 7.15675 4.53652C7.17644 4.60481 7.19555 4.67202 7.2142 4.73827C7.43904 5.53808 7.59379 6.19976 7.85635 6.97421C7.87431 7.02755 7.94447 6.94495 7.96103 6.99057C8.06438 7.28153 8.15302 7.5748 8.24156 7.86822L8.4341 8.48945L7.91974 8.84343C7.65854 9.02027 7.39718 9.19709 7.14209 9.38762C7.10072 9.41829 7.21098 9.44532 7.14614 9.49677C7.01347 9.60277 6.83306 9.71966 6.67574 9.79421C6.59913 9.83073 6.65045 9.70934 6.57424 9.74739C6.39675 9.83593 6.21979 9.94954 6.06082 10.0733C5.99324 10.1261 6.14888 10.122 6.05715 10.1852C5.43348 10.6168 4.81974 11.039 4.12277 11.3814C4.07493 11.4048 3.94574 11.3025 3.87048 11.3895C3.88858 11.4295 3.91846 11.4707 3.9422 11.5105C3.43027 11.867 2.90509 12.1987 2.37752 12.5288L1.99738 11.3296C2.47556 11.3596 2.95435 11.3913 3.43587 11.4166C3.48254 11.4191 3.40214 11.3467 3.4925 11.3515C4.01548 11.3787 4.52338 11.392 5.0581 11.4812C5.11116 11.4899 5.08353 11.5931 5.24001 11.5843C5.26761 11.5827 5.50324 11.5799 5.56423 11.5615C5.57252 11.5587 5.52972 11.5097 5.60563 11.5126C6.0468 11.5302 6.50904 11.5689 6.94933 11.6183C7.02039 11.6263 6.94454 11.664 6.99515 11.6698C7.35416 11.709 7.74486 11.7007 8.08787 11.751C8.31747 11.7837 8.23221 11.839 8.35405 11.8999C8.37128 11.9084 8.51352 11.9132 8.52075 11.9454C8.53933 12.0259 8.47009 12.1153 8.49803 12.2015C8.50259 12.2157 8.61733 12.2032 8.61729 12.2188C8.61729 12.2188 8.61729 12.2188 8.61729 12.2188C8.61727 12.2234 8.60728 12.2305 8.58157 12.2416C8.57368 12.2449 8.43548 12.2656 8.40139 12.2829C8.37766 12.2949 8.42023 12.326 8.37184 12.3426C8.32345 12.3594 8.27045 12.3338 8.19025 12.3551C8.11009 12.3768 8.14516 12.4146 7.98517 12.4304ZM17.5956 11.0913C17.5317 10.9643 17.3748 11.1481 17.5199 11.1812C17.527 11.1826 17.599 11.0977 17.5956 11.0913ZM10.8089 18.1813C10.8064 18.2128 10.8086 18.2411 10.8138 18.2657L10.5389 18.2671C10.5858 18.1599 10.5287 18.0792 10.4581 18.1576C10.4372 18.181 10.4266 18.2063 10.423 18.2306L10.9292 18.2279C10.8946 18.1608 10.812 18.1403 10.8089 18.1813ZM10.2198 16.5704C10.2318 16.7698 10.4411 16.7333 10.3344 16.5505C10.3283 16.5398 10.2191 16.5588 10.2198 16.5704ZM7.78793 11.9038C7.78966 11.9056 7.89191 11.9094 7.89436 11.9078C7.94895 11.8686 7.74452 11.8595 7.78793 11.9038ZM9.63802 14.9709C9.63223 15.0363 9.71514 15.1919 9.72252 15.1106C9.72824 15.0453 9.64493 14.8896 9.63802 14.9709ZM14.5552 6.26503C14.5595 6.26436 14.5857 6.19577 14.564 6.19024C14.4941 6.17264 14.4818 6.27597 14.5552 6.26503ZM8.73014 12.2259C8.85927 12.6331 8.80657 12.9229 8.67937 12.475C8.65611 12.394 8.77627 12.6344 8.75497 12.5285C8.71512 12.3351 8.59548 12.2372 8.57635 12.0328C8.5726 11.9959 8.72281 12.2027 8.73056 12.2266C8.73042 12.2264 8.73028 12.2262 8.73014 12.2259ZM17.7067 10.8151C17.7065 10.811 17.6262 10.7489 17.6224 10.75C17.5329 10.7796 17.6947 10.9046 17.7067 10.8151ZM16.0445 2.2513C16.0536 2.2484 16.134 2.0269 16.1295 2.01736C16.0305 1.85578 15.8683 2.30369 16.0445 2.2513ZM14.4804 12.1233C14.3694 12.189 14.2369 12.1953 14.1489 12.1118C14.2589 12.117 14.3697 12.1184 14.4804 12.1233ZM10.6921 10.5793C10.7736 10.7449 10.8214 10.9813 10.8416 11.1662C10.848 11.2241 10.7887 11.2131 10.7909 11.2538C10.7952 11.3334 10.8422 11.3936 10.8425 11.4735C10.8423 11.5001 10.7527 11.4963 10.7544 11.5236C10.7641 11.6729 10.827 11.7966 10.8556 11.9418C10.9578 12.4607 11.0864 12.9642 11.2222 13.472L10.0878 13.4774C10.1577 13.2917 10.2272 13.105 10.2977 12.9168C10.3824 12.6904 10.5435 12.4336 10.5869 12.1858C10.5919 12.1569 10.5164 12.1512 10.5122 12.1441C10.4498 12.0333 10.5829 12.1057 10.6189 12.0575C10.7611 11.8664 10.843 11.6298 10.8812 11.4147C10.8972 11.3232 10.7298 11.3671 10.8361 11.3034C10.8433 11.299 10.9109 11.3448 10.9265 11.3233C10.9617 11.2743 10.9811 11.1664 11.0004 11.1259C11.038 11.048 11.0415 11.0342 11.0667 10.9573C11.1019 10.8523 11.1787 10.7385 11.1976 10.6199C11.2014 10.5946 11.1148 10.6024 11.1139 10.5597C11.1132 10.5202 11.1463 10.4317 11.1741 10.3959L11.2824 10.0535L11.6415 10.0546C11.645 10.0559 11.6481 10.0572 11.6508 10.0587C11.6868 10.0777 11.6713 10.1407 11.6776 10.1552C11.7298 10.2773 11.8542 10.1087 11.8701 10.1046C12.1608 10.0343 12.4096 10.1313 12.6823 10.1318C12.8893 10.1321 13.1107 10.1009 13.3077 10.1059C13.5423 10.1121 13.741 10.1562 13.969 10.1494C13.9931 10.1488 13.9652 10.0544 13.9946 10.0534C14.3068 10.0434 14.6168 10.0546 14.9274 10.1192C14.9322 10.1202 14.9353 10.123 14.9373 10.1271L14.6852 10.8976C14.6877 10.8847 14.7044 10.869 14.7173 10.8536L14.9371 10.1816C14.9366 10.188 14.9365 10.1942 14.937 10.1997L14.7279 10.8389C14.7329 10.8304 14.7346 10.8224 14.7299 10.8153C14.6158 10.6481 14.4681 10.3383 14.1643 10.5632C14.0682 10.4758 13.95 10.3717 13.8994 10.2449C13.8667 10.1633 13.9783 10.1329 13.8816 10.1102C13.8599 10.105 13.8351 10.1846 13.806 10.172C13.6836 10.1187 13.5836 10.0141 13.4553 9.97121C13.4291 9.96264 13.3933 10.0241 13.3798 10.03C13.2685 10.0768 13.2849 9.87757 13.2739 9.85421C13.1888 9.67787 13.0655 9.63311 12.9368 9.53667C12.907 9.51425 12.8867 9.6171 12.856 9.59829C12.6974 9.49973 12.5463 9.3796 12.4238 9.23818C12.3966 9.20654 12.4745 9.163 12.4639 9.14453C12.417 9.06388 12.3116 9.17643 12.2648 9.10147C12.2548 9.08583 12.3035 9.03549 12.3054 9.02748C12.3359 8.90179 12.2016 9.01353 12.1891 9.00908C12.1554 8.99786 12.1297 8.97995 12.1089 8.95799L11.8895 8.79829L11.9731 8.54014C12.0268 8.44068 12.1551 8.38798 12.174 8.26555C12.1767 8.24693 12.0803 8.2597 12.093 8.209C12.1769 7.8711 12.3129 7.52905 12.4856 7.22357C12.5123 7.17604 12.5633 7.23264 12.572 7.23194C12.7097 7.21888 12.5588 7.13275 12.558 7.1142C12.5565 6.96918 12.7318 6.89091 12.5678 6.73963C12.7646 6.31396 12.849 5.85367 13.054 5.43397L13.5195 5.77137C13.4161 5.82625 13.308 5.87461 13.193 5.91332C13.1858 5.91594 13.1472 5.84047 13.1331 5.84599C12.9628 5.91178 13.0668 5.99711 13.0662 6.19456C13.066 6.24419 12.8805 6.1414 12.8658 6.13466C12.8119 6.10964 12.7627 5.99127 12.749 5.98883C12.6379 5.972 12.8911 6.29758 12.804 6.36113C12.8009 6.36256 12.7677 6.29289 12.7559 6.29211C12.7193 6.2895 12.7145 6.33028 12.6769 6.32535C12.5904 6.31354 12.4544 6.1648 12.4453 6.31563C12.4444 6.33502 12.597 6.51312 12.5128 6.56083C12.479 6.57968 12.3441 6.68287 12.2967 6.69863C12.2494 6.71437 12.2314 6.63425 12.2268 6.6336C12.0646 6.62844 12.0795 6.56647 11.9408 6.48498C11.8025 6.40394 12.0232 6.67683 12.0251 6.72385C12.0268 6.77081 11.9026 6.75962 11.8671 6.7501C11.8316 6.74056 11.8267 6.68492 11.8006 6.68391C11.6284 6.67849 11.8547 6.85969 11.8513 6.93104C11.8434 7.0997 11.6239 6.93798 11.5307 6.97431C11.5055 6.98415 11.5576 7.01945 11.542 7.03764C11.4799 7.10905 11.3873 7.07614 11.3462 7.19806C11.3394 7.21796 11.3628 7.39426 11.2509 7.33388C11.2349 7.32509 11.2146 7.25971 11.1743 7.27113C11.114 7.28811 11.0201 7.33897 10.9818 7.39365C10.9535 7.43404 11.0595 7.48887 10.9926 7.49661C10.9628 7.49999 10.9651 7.42106 10.9122 7.43163C10.8663 7.44069 10.7854 7.49903 10.7407 7.53359L10.687 7.57267L10.6333 7.53359C10.6263 7.52881 10.6201 7.52463 10.615 7.52122C10.5754 7.49514 10.5487 7.57585 10.5424 7.57801C10.5053 7.58964 10.4089 7.56774 10.4024 7.56293C10.0692 7.33259 9.84766 7.00248 9.50233 6.80695C9.4753 6.79151 9.44171 6.87267 9.43707 6.87102C9.33038 6.8376 9.5315 6.70323 9.51641 6.59826C9.42308 6.74462 9.40623 6.69355 9.33473 6.665C9.30019 6.65135 9.27653 6.71712 9.26984 6.72074C9.16676 6.77174 9.21421 6.64348 9.22232 6.61609C9.25207 6.51523 9.15212 6.58722 9.17166 6.51956C9.19092 6.45231 9.29293 6.40609 9.23434 6.36498C9.18162 6.40331 9.12917 6.56561 9.06979 6.55487C8.84559 6.51455 8.6111 6.18654 8.48563 6.07886C8.36042 5.97138 8.31073 5.94936 8.24644 5.87483C8.13032 5.74017 8.11084 5.87473 7.99153 5.85595C7.87198 5.83699 8.08849 5.62864 8.1134 5.5681C8.13575 5.5144 8.09709 5.54262 8.092 5.52175L7.99324 5.44985L8.03111 5.566C8.03011 5.56846 8.02824 5.57124 8.02523 5.57442C7.99786 5.60318 7.94408 5.57777 7.94536 5.62402C7.94666 5.67028 8.09182 5.75059 8.15993 5.74493C8.3042 5.73287 8.42783 5.63502 8.41485 5.7628C8.41401 5.77017 8.33325 5.77346 8.33379 5.80048C8.34055 6.01437 8.4032 6.21843 8.41646 6.42993C8.41817 6.45905 8.32806 6.4619 8.32812 6.47915C8.32852 6.65892 8.44831 6.55555 8.63149 6.5944C8.41986 6.64128 8.31045 6.73148 8.34949 6.85528C8.37288 6.92972 8.45829 6.88774 8.53708 6.91512C8.5608 6.92331 8.51641 6.99586 8.56164 6.99163C8.70958 6.97809 8.84761 6.87837 8.82772 7.02562C8.82663 7.03215 8.74545 7.03896 8.74718 7.05974C8.75796 7.19416 8.90686 7.1621 8.96826 7.29118C9.0164 7.39235 8.98983 7.60887 9.01478 7.73381C8.78335 7.80648 8.87321 7.90287 9.04723 7.8971C9.06618 7.97729 9.10267 8.05867 9.1053 8.14128C9.10627 8.16969 9.03394 8.1744 9.0278 8.18003C8.93101 8.26715 9.09676 8.25064 9.10832 8.26551C9.19652 8.38712 9.18101 8.52181 9.23798 8.6392L9.2733 8.74748L9.1805 8.8135C9.14785 8.84422 9.1197 8.8825 9.09937 8.93479C9.09659 8.9421 9.18567 9.08549 9.07443 9.01366C9.06693 9.00859 9.07182 8.91103 8.99812 8.95619C8.9244 9.00135 8.73957 9.02201 8.68727 9.15504C8.67455 9.18715 8.69413 9.34108 8.58425 9.28811C8.56945 9.28083 8.54843 9.23648 8.52362 9.22113C8.44415 9.17252 8.52661 9.32285 8.40772 9.22988C8.28883 9.13692 8.15318 9.10047 8.11265 9.2518C8.1112 9.2564 8.16616 9.38295 8.13398 9.40322C8.08254 9.4355 7.99612 9.46247 7.94506 9.49988C7.92064 9.51783 7.98503 9.57488 7.98163 9.57918C7.84283 9.73558 7.68134 9.75877 7.48467 9.8589C7.44853 9.87712 7.42108 10.0369 7.30558 10.0082C7.17892 9.97692 7.01161 9.59097 6.90912 9.7842C6.86759 9.86187 7.08887 10.3451 6.8166 10.2069C6.69388 10.3487 6.52622 10.4117 6.37786 10.5074L6.15058 10.6691L6.42952 10.67C6.51914 10.6744 6.60961 10.6691 6.70262 10.6371C6.71502 10.6329 6.75471 10.4874 6.78385 10.4895C6.82709 10.4928 6.85061 10.561 6.88148 10.5656C7.01084 10.5866 7.12949 10.5287 7.25425 10.5382C7.30161 10.5416 7.28481 10.612 7.3413 10.6161C7.39777 10.6202 7.43574 10.5276 7.51212 10.5726C7.5698 10.607 7.62694 10.7967 7.70359 10.819C7.70715 10.6321 7.75982 10.6361 7.85364 10.5871C7.87167 10.5776 7.85259 10.5125 7.86114 10.5046C7.89591 10.4712 7.9278 10.5252 7.96083 10.4888C7.96886 10.4801 7.96945 10.4163 7.97604 10.4055C8.032 10.3117 8.12319 10.4556 8.13886 10.4806C8.19888 10.5758 8.22736 10.4929 8.27352 10.5304C8.31961 10.568 8.25035 10.6145 8.30426 10.6373C8.416 10.6846 8.5598 10.6748 8.67343 10.6781C8.71878 10.6791 8.68813 10.5937 8.69462 10.5919C8.78846 10.5706 8.88297 10.6616 8.93553 10.492C8.99905 10.9311 8.99222 10.4496 9.12594 10.5379C9.13648 10.5451 9.1492 10.7527 9.10857 10.783C9.06794 10.8133 9.0067 10.7482 8.9503 10.7955C8.93695 10.8066 8.86 11.0009 8.84955 11.0126C8.76771 11.1044 8.75721 10.7942 8.75296 10.7772C8.70467 10.5932 8.61074 10.8024 8.58614 10.8168C8.47361 10.8827 8.37835 10.8388 8.28426 10.8858C8.22272 10.9162 8.21602 11.1193 8.16781 11.1129C8.00752 11.0918 7.9525 10.8083 7.80056 11.0535C7.76798 11.1058 7.79943 11.3279 7.68392 11.1529C7.67666 11.1419 7.591 10.9819 7.54086 11.0827C7.53456 11.0955 7.53454 11.1602 7.52627 11.1656C7.47087 11.2005 7.43418 11.1489 7.37387 11.1734C7.31357 11.1978 7.24103 11.2344 7.17235 11.2122C7.13096 11.199 7.0782 11.0782 7.05847 11.0486C7.00275 10.9634 6.94222 11.1026 6.90787 10.9995C6.87323 10.8959 6.94217 10.739 6.85065 10.6718C6.84668 10.8399 6.83828 11.0125 6.83225 11.1815C6.6967 11.1771 6.56269 11.1506 6.42793 11.1359L4.69906 11.13L6.10777 10.1278C6.16485 10.0956 6.22048 10.0611 6.27264 10.021C6.29239 10.0056 6.21915 9.94681 6.23897 9.92842C6.32282 9.85114 6.44069 9.84635 6.5214 9.75743C6.58368 9.68832 6.60934 9.55262 6.67274 9.47792C6.83153 9.60105 6.90848 9.46615 7.00208 9.42113C7.03482 9.4053 7.06265 9.44855 7.09314 9.44743C7.20747 9.44217 7.07218 9.32978 7.07816 9.29269C7.10416 9.13406 7.33513 9.44198 7.43832 9.3569C7.44386 9.35249 7.39535 9.13528 7.39764 9.11798C7.41095 9.00628 7.44922 9.16889 7.49656 9.15381C7.58301 9.12629 7.66032 9.1314 7.70808 9.02369C7.72185 8.99206 7.7055 8.84679 7.8096 8.89409C7.82326 8.90026 7.85916 8.95792 7.86641 8.95763C7.99441 8.94779 7.87327 8.77253 7.88267 8.6773C7.89208 8.58208 8.05646 8.64561 8.09713 8.66869C8.20282 8.72805 8.09202 8.72983 8.09597 8.74022C8.14341 8.86362 8.18833 8.8046 8.2387 8.78205C8.36617 8.9477 8.42057 8.89361 8.29042 8.75798C8.27611 8.74324 8.25308 8.78352 8.2387 8.78205C8.15859 8.58752 8.21115 8.51792 8.39702 8.62071C8.48409 8.66892 8.51164 8.77776 8.59588 8.67084C8.63416 8.62239 8.53212 8.51848 8.55202 8.4562C8.58664 8.34806 8.71313 8.33332 8.81049 8.29346L8.6312 8.83709C8.62837 8.80409 8.6223 8.77311 8.60835 8.74663C8.58718 8.70649 8.52584 8.77232 8.5088 8.74573C8.46334 8.67524 8.49732 8.58892 8.44329 8.52086C8.4383 8.51472 8.36555 8.55742 8.35669 8.53366C8.28805 8.35406 8.28639 8.17872 8.22561 7.98765C8.19621 7.89534 8.0993 7.74477 8.07687 7.64652C8.03753 7.4764 8.08512 7.23582 8.01137 7.10358C7.96361 7.01723 7.89184 7.063 7.82557 7.04093C7.69722 6.99851 7.83864 6.8032 7.86142 6.77568C7.86219 6.77481 7.90652 6.84807 7.93295 6.79265C8.00875 6.74071 7.86208 6.77645 7.86142 6.77568C7.87608 6.7577 7.84221 6.59352 7.81698 6.56696C7.80322 6.55254 7.73209 6.58632 7.72632 6.57834C7.5908 6.38824 7.50274 6.18224 7.46741 5.95613C7.46768 5.95186 7.55258 5.93047 7.55217 5.92076C7.55013 5.84402 7.50885 5.79574 7.45643 5.75342L6.8397 3.86237L8.44777 5.03307C8.50006 5.03583 8.55568 5.03174 8.61015 5.03707C8.73467 5.04928 8.79132 5.1168 8.75468 5.27561C8.83158 5.30825 8.88695 5.43056 8.91759 5.50263C8.94823 5.57469 9.05589 5.44274 9.06265 5.4435C9.27504 5.46503 9.30392 5.60645 9.44966 5.73129C9.51877 5.79087 9.67913 5.8771 9.76968 5.92003C9.84141 5.95372 9.85586 6.01353 9.92883 6.03513C9.93867 6.03809 9.97531 5.97111 9.97942 5.9705C10.0974 5.94436 9.9574 6.07137 9.9513 6.10782C9.92898 6.24026 9.92122 6.3138 10.0374 6.3284C10.0641 6.33184 10.2766 6.15691 10.3206 6.16967C10.3776 6.18666 10.3042 6.25144 10.3653 6.26726C10.3704 6.26868 10.4043 6.22042 10.432 6.24383C10.5613 6.35187 10.6892 6.48743 10.8339 6.58544C10.8535 6.59901 10.8838 6.50544 10.913 6.5238C11.014 6.58725 11.1172 6.66201 11.2052 6.74812L10.1688 6.74815C10.2079 6.72759 10.2478 6.70935 10.2883 6.69419C10.3262 6.68031 10.345 6.74753 10.3633 6.75828C10.4743 6.82292 10.433 6.64166 10.4408 6.63191C10.6257 6.39573 10.8952 6.39076 11.0896 6.15818C11.1 6.14527 11.0918 5.92469 11.2287 6.01932C11.2379 6.02555 11.3764 6.12346 11.3506 6.00633C11.349 5.99901 11.2729 5.95208 11.3257 5.92408C11.3784 5.89608 11.4228 5.7954 11.542 5.82104C11.5797 5.82904 11.7232 5.92283 11.7101 5.77434C11.7089 5.76419 11.6346 5.46084 11.7861 5.59711C11.811 5.6196 11.9294 5.79438 11.9398 5.653C11.9416 5.62575 11.8882 5.60641 11.9082 5.55551C11.9386 5.47731 12.0476 5.46788 12.0625 5.34078C12.0649 5.31841 12.0328 5.16469 12.1386 5.22211C12.1551 5.2311 12.1842 5.2971 12.2109 5.28739C12.3381 5.2415 12.4204 5.12336 12.5557 5.08512C12.6035 5.07147 12.6512 5.17757 12.7086 5.17358C12.7659 5.16957 12.8625 5.13554 12.873 5.06348C12.8836 4.99139 12.7318 4.87747 12.785 4.82078C12.7929 4.8123 12.801 4.80397 12.8092 4.79581L15.0591 3.15762L14.2022 5.80554C14.151 6.12567 13.9583 6.39711 13.8455 6.69699C13.8281 6.74304 13.9025 6.72426 13.8813 6.79357C13.8037 7.04918 13.7196 7.50668 13.517 7.68471C13.3546 7.82737 13.3466 7.57911 13.2601 7.70028C13.2186 7.75883 13.3965 7.89427 13.3977 7.91205C13.4122 8.08646 13.2887 8.16446 13.2712 8.31158C13.2677 8.34197 13.3581 8.34029 13.3541 8.36586C13.3414 8.45344 13.2768 8.52894 13.2578 8.61042C13.2494 8.64703 13.3137 8.66058 13.2983 8.69178C13.2622 8.76665 13.2137 8.82749 13.1307 8.88502C13.1231 8.89027 13.061 8.81831 13.0394 8.87535C13.0383 8.87826 13.0371 8.88118 13.0359 8.88411L12.7664 8.05483C12.8402 8.11814 12.9036 8.232 13.028 8.24785C13.0662 8.2525 13.1551 8.1326 13.153 8.25853C13.1526 8.28487 13.0314 8.41837 13.1907 8.34278C13.2173 8.33032 13.4547 8.24478 13.4317 8.39454C13.4256 8.43398 13.3771 8.58009 13.4234 8.58529C13.43 8.58554 13.4595 8.50778 13.4912 8.5212C13.6022 8.56963 13.6973 8.64947 13.8103 8.70066C13.8405 8.7142 13.8503 8.61869 13.8938 8.64101C14.0137 8.7023 14.1354 8.81706 14.2252 8.91456C14.2582 8.95063 14.191 8.9867 14.1894 8.9948C14.1632 9.12615 14.2866 9.01292 14.3073 9.01613C14.4346 9.03791 14.4605 9.15215 14.5587 9.19845C14.5857 9.21139 14.6149 9.13581 14.6238 9.13361C14.7131 9.11425 14.5937 9.20127 14.6157 9.23644C14.677 9.33536 14.7779 9.401 14.8719 9.45707C14.9065 9.47758 14.9235 9.3777 14.954 9.39694C15.1351 9.50948 15.3088 9.64663 15.4471 9.80926C15.4731 9.84001 15.4121 9.88205 15.4092 9.89975C15.409 9.90118 15.4088 9.90258 15.4086 9.90395L17.4137 11.3637L14.9336 11.3562C14.8778 11.2516 14.7967 11.4004 14.778 11.4147C14.6917 11.4807 14.6584 11.4188 14.5824 11.4301C14.2109 11.4864 13.7524 11.4441 13.402 11.4177C12.9453 11.3838 12.591 11.3162 12.1553 11.3322C12.1277 11.3331 12.1553 11.4262 12.1314 11.4282C11.9659 11.4397 11.8017 11.4343 11.6374 11.4308L12.4864 10.8107C12.4413 10.945 12.3975 11.0798 12.3663 11.2198C12.3606 11.2445 12.4557 11.2363 12.4494 11.2769C12.437 11.3605 12.4006 11.4598 12.3483 11.5317C12.323 11.5669 12.2675 11.4915 12.2435 11.5273C12.1874 11.6107 12.1503 11.7073 12.1339 11.806C12.1271 11.8481 12.2322 11.8146 12.2167 11.8671C12.1128 12.2256 12.0172 12.5797 11.7922 12.9041C11.7767 12.9263 11.5952 12.8927 11.6121 12.9557C11.6594 12.975 11.7165 12.9928 11.7678 13.0109C11.6882 13.3194 11.5789 13.6165 11.4671 13.9134L10.669 16.4384L9.84697 13.9211C9.78887 13.7043 9.73182 13.4867 9.66563 13.2709C9.65887 13.249 9.5789 13.3168 9.56535 13.2745C9.48683 13.0294 9.38369 12.8002 9.39371 12.52C9.39458 12.4923 9.56111 12.452 9.51266 12.3868C9.50397 12.3754 9.44633 12.2723 9.40178 12.2553C9.3952 12.2532 9.32597 12.298 9.31217 12.2632C9.23327 12.0606 9.17996 11.8388 9.159 11.6176C9.15576 11.5819 9.24804 11.591 9.24643 11.5653C9.23442 11.3833 9.11341 11.2206 9.13428 11.0362C9.14853 10.9127 9.30104 10.9069 9.41973 10.805C9.43646 10.7905 9.41781 10.723 9.49659 10.6935C9.69462 10.619 9.92515 10.5794 10.135 10.4963C10.1802 10.4784 10.1014 10.4055 10.2301 10.4219C10.2388 10.4231 10.2969 10.4757 10.3399 10.4792C10.3697 10.4818 10.4444 10.4353 10.4852 10.4469C10.5261 10.4586 10.4661 10.5057 10.5176 10.5303C10.5696 10.5548 10.6567 10.5081 10.6921 10.5793ZM9.05633 5.82605C9.05856 5.92868 9.24202 5.69228 9.14551 5.71053C9.14063 5.7117 9.05609 5.82092 9.05633 5.82605ZM6.43542 10.8943C6.43319 10.8906 6.43098 10.8872 6.42879 10.8841L5.48363 10.8809L6.25376 10.3329C6.38144 10.3785 6.31515 10.1972 6.21225 10.1488C6.15669 10.1227 6.15587 10.1686 6.17389 10.2207L5.05441 11.0172L6.42832 11.0218C6.4425 10.9741 6.44712 10.9133 6.43542 10.8943ZM7.2791 10.8008C7.18441 10.6965 7.168 11.1206 7.2701 11.0352C7.27604 11.0304 7.28464 10.8069 7.2791 10.8008ZM9.54529 11.0569C9.5488 11.0549 9.53686 11.0059 9.53274 11.0059C9.43413 11.01 9.45806 11.108 9.54529 11.0569ZM8.11635 10.6988C8.08687 10.6414 8.00121 10.7073 8.03783 10.7788C8.06732 10.8363 8.15306 10.7703 8.11635 10.6988ZM11.4427 6.85783C11.4461 6.86085 11.4776 6.84287 11.4622 6.82293C11.4124 6.75877 11.3854 6.80683 11.4427 6.85783ZM9.53875 10.6988C9.32865 10.6821 9.20242 10.3313 9.43114 10.3716C9.47256 10.3789 9.34144 10.483 9.39408 10.5148C9.4904 10.5727 9.55524 10.3529 9.65334 10.4711C9.67109 10.4928 9.55073 10.7005 9.53837 10.6993C9.5385 10.6991 9.53862 10.6989 9.53875 10.6988ZM8.87385 6.13757C8.87253 6.1415 8.91068 6.17391 8.91396 6.17145C8.99171 6.1106 8.91487 6.04525 8.87385 6.13757ZM13.2529 5.76857C13.2601 5.77376 13.3584 5.71193 13.3568 5.70343C13.3143 5.54233 13.1153 5.66695 13.2529 5.76857ZM9.00924 7.7377C9.11695 7.75988 9.14785 7.81835 9.04727 7.89683C9.03654 7.84338 9.02053 7.79128 9.00924 7.7377Z" fill="#FFAA00"/>
</svg>
